Dingbats.ufo
<glyph name="a1" format="1">
  <advance width="974"/>
  <outline>
    <contour>
      <point x="617" y="120" type="line"/>
      <point x="521" y="230" type="line"/>
      <point x="939" y="285" type="line"/>
      <point x="865" y="327"/>
      <point x="801" y="346"/>
      <point x="737" y="346" type="curve" smooth="yes"/>
      <point x="728" y="346"/>
      <point x="707" y="345"/>
      <point x="689" y="344" type="curve" smooth="yes"/>
      <point x="424" y="329" type="line"/>
      <point x="378" y="373"/>
      <point x="345" y="398"/>
      <point x="314" y="410" type="curve" smooth="yes"/>
      <point x="249" y="435"/>
      <point x="247" y="436"/>
      <point x="247" y="446" type="curve" smooth="yes"/>
      <point x="247" y="449"/>
      <point x="248" y="453"/>
      <point x="251" y="458" type="curve"/>
      <point x="263" y="483"/>
      <point x="266" y="493"/>
      <point x="266" y="509" type="curve" smooth="yes"/>
      <point x="266" y="565"/>
      <point x="211" y="617"/>
      <point x="150" y="617" type="curve" smooth="yes"/>
      <point x="104" y="617"/>
      <point x="66" y="580"/>
      <point x="66" y="535" type="curve" smooth="yes"/>
      <point x="66" y="485"/>
      <point x="107" y="444"/>
      <point x="171" y="428" type="curve"/>
      <point x="270" y="410"/>
      <point x="331" y="371"/>
      <point x="372" y="302" type="curve"/>
      <point x="338" y="267"/>
      <point x="286" y="241"/>
      <point x="250" y="241" type="curve" smooth="yes"/>
      <point x="234" y="241"/>
      <point x="211" y="245"/>
      <point x="182" y="252" type="curve" smooth="yes"/>
      <point x="159" y="258"/>
      <point x="137" y="261"/>
      <point x="120" y="261" type="curve" smooth="yes"/>
      <point x="74" y="261"/>
      <point x="35" y="223"/>
      <point x="35" y="177" type="curve" smooth="yes"/>
      <point x="35" y="121"/>
      <point x="88" y="71"/>
      <point x="148" y="71" type="curve" smooth="yes"/>
      <point x="202" y="71"/>
      <point x="240" y="108"/>
      <point x="240" y="159" type="curve" smooth="yes"/>
      <point x="240" y="164"/>
      <point x="239" y="171"/>
      <point x="238" y="175" type="curve" smooth="yes"/>
      <point x="235" y="189"/>
      <point x="233" y="198"/>
      <point x="233" y="201" type="curve" smooth="yes"/>
      <point x="233" y="210"/>
      <point x="241" y="216"/>
      <point x="253" y="216" type="curve" smooth="yes"/>
      <point x="302" y="214" type="line" smooth="yes"/>
      <point x="314" y="214"/>
      <point x="383" y="221"/>
      <point x="424" y="226" type="curve"/>
      <point x="525" y="112" type="line"/>
    </contour>
    <contour>
      <point x="152" y="589" type="curve" smooth="yes"/>
      <point x="194" y="589"/>
      <point x="236" y="551"/>
      <point x="236" y="512" type="curve" smooth="yes"/>
      <point x="236" y="481"/>
      <point x="214" y="457"/>
      <point x="187" y="457" type="curve" smooth="yes"/>
      <point x="142" y="457"/>
      <point x="95" y="496"/>
      <point x="95" y="534" type="curve" smooth="yes"/>
      <point x="95" y="563"/>
      <point x="121" y="589"/>
    </contour>
    <contour>
      <point x="128" y="233" type="curve" smooth="yes"/>
      <point x="174" y="233"/>
      <point x="211" y="201"/>
      <point x="211" y="160" type="curve" smooth="yes"/>
      <point x="211" y="126"/>
      <point x="183" y="99"/>
      <point x="148" y="99" type="curve" smooth="yes"/>
      <point x="104" y="99"/>
      <point x="64" y="136"/>
      <point x="64" y="177" type="curve" smooth="yes"/>
      <point x="64" y="208"/>
      <point x="92" y="233"/>
    </contour>
  </outline>
</glyph>
<glyph name="a10" format="1">
  <advance width="692"/>
  <outline>
    <contour>
      <point x="346" y="702" type="line"/>
      <point x="240" y="520" type="line"/>
      <point x="35" y="520" type="line"/>
      <point x="137" y="346" type="line"/>
      <point x="35" y="169" type="line"/>
      <point x="240" y="169" type="line"/>
      <point x="346" y="-14" type="line"/>
      <point x="451" y="169" type="line"/>
      <point x="657" y="169" type="line"/>
      <point x="555" y="346" type="line"/>
      <point x="657" y="520" type="line"/>
      <point x="451" y="520" type="line"/>
    </contour>
    <contour>
      <point x="262" y="487" type="line"/>
      <point x="430" y="487" type="line"/>
      <point x="512" y="346" type="line"/>
      <point x="430" y="202" type="line"/>
      <point x="262" y="202" type="line"/>
      <point x="180" y="346" type="line"/>
    </contour>
    <contour>
      <point x="346" y="630" type="line"/>
      <point x="408" y="520" type="line"/>
      <point x="283" y="520" type="line"/>
    </contour>
    <contour>
      <point x="473" y="487" type="line"/>
      <point x="594" y="487" type="line"/>
      <point x="534" y="384" type="line"/>
    </contour>
    <contour>
      <point x="534" y="307" type="line"/>
      <point x="593" y="202" type="line"/>
      <point x="474" y="202" type="line"/>
    </contour>
    <contour>
      <point x="411" y="169" type="line"/>
      <point x="346" y="61" type="line"/>
      <point x="287" y="169" type="line"/>
    </contour>
    <contour>
      <point x="220" y="202" type="line"/>
      <point x="97" y="202" type="line"/>
      <point x="158" y="307" type="line"/>
    </contour>
    <contour>
      <point x="158" y="384" type="line"/>
      <point x="99" y="487" type="line"/>
      <point x="218" y="487" type="line"/>
    </contour>
  </outline>
</glyph>
<glyph name="a100" format="1">
  <advance width="668"/>
  <outline>
    <contour>
      <point x="351" y="263" type="line"/>
      <point x="404" y="264"/>
      <point x="446" y="273"/>
      <point x="487" y="294" type="curve" smooth="yes"/>
      <point x="576" y="339"/>
      <point x="634" y="432"/>
      <point x="634" y="528" type="curve" smooth="yes"/>
      <point x="634" y="629"/>
      <point x="566" y="705"/>
      <point x="475" y="705" type="curve" smooth="yes"/>
      <point x="410" y="705"/>
      <point x="352" y="663"/>
      <point x="331" y="603" type="curve"/>
      <point x="301" y="672"/>
      <point x="254" y="705"/>
      <point x="188" y="705" type="curve" smooth="yes"/>
      <point x="103" y="705"/>
      <point x="36" y="638"/>
      <point x="36" y="554" type="curve" smooth="yes"/>
      <point x="36" y="471"/>
      <point x="104" y="402"/>
      <point x="187" y="402" type="curve" smooth="yes"/>
      <point x="212" y="402"/>
      <point x="229" y="406"/>
      <point x="261" y="421" type="curve"/>
      <point x="243" y="349"/>
      <point x="141" y="288"/>
      <point x="43" y="288" type="curve"/>
      <point x="63" y="263" type="line"/>
      <point x="200" y="261"/>
      <point x="307" y="345"/>
      <point x="342" y="481" type="curve"/>
      <point x="375" y="429"/>
      <point x="421" y="402"/>
      <point x="476" y="402" type="curve" smooth="yes"/>
      <point x="502" y="402"/>
      <point x="522" y="407"/>
      <point x="550" y="421" type="curve"/>
      <point x="527" y="344"/>
      <point x="432" y="287"/>
      <point x="331" y="288" type="curve"/>
    </contour>
  </outline>
</glyph>
<glyph name="a101" format="1">
  <advance width="732"/>
  <outline>
    <contour>
      <point x="697" y="691" type="line"/>
      <point x="519" y="691" type="line"/>
      <point x="519" y="805" type="line"/>
      <point x="480" y="795" type="line"/>
      <point x="480" y="691" type="line"/>
      <point x="383" y="691" type="line" smooth="yes"/>
      <point x="294" y="691"/>
      <point x="250" y="688"/>
      <point x="204" y="678" type="curve" smooth="yes"/>
      <point x="104" y="657"/>
      <point x="35" y="569"/>
      <point x="35" y="463" type="curve" smooth="yes"/>
      <point x="35" y="370"/>
      <point x="89" y="291"/>
      <point x="176" y="256" type="curve" smooth="yes"/>
      <point x="218" y="240"/>
      <point x="265" y="232"/>
      <point x="325" y="232" type="curve" smooth="yes"/>
      <point x="371" y="232"/>
      <point x="426" y="236"/>
      <point x="480" y="245" type="curve"/>
      <point x="478" y="133"/>
      <point x="471" y="74"/>
      <point x="456" y="28" type="curve" smooth="yes"/>
      <point x="428" y="-58"/>
      <point x="369" y="-110"/>
      <point x="299" y="-110" type="curve" smooth="yes"/>
      <point x="251" y="-110"/>
      <point x="211" y="-81"/>
      <point x="211" y="-47" type="curve" smooth="yes"/>
      <point x="211" y="-39"/>
      <point x="214" y="-31"/>
      <point x="221" y="-25" type="curve"/>
      <point x="226" y="-20"/>
      <point x="227" y="-20"/>
      <point x="251" y="-18" type="curve" smooth="yes"/>
      <point x="283" y="-16"/>
      <point x="306" y="11"/>
      <point x="306" y="44" type="curve" smooth="yes"/>
      <point x="306" y="87"/>
      <point x="268" y="122"/>
      <point x="222" y="122" type="curve" smooth="yes"/>
      <point x="162" y="122"/>
      <point x="114" y="69"/>
      <point x="114" y="4" type="curve" smooth="yes"/>
      <point x="114" y="-78"/>
      <point x="187" y="-143"/>
      <point x="281" y="-143" type="curve" smooth="yes"/>
      <point x="326" y="-143"/>
      <point x="368" y="-129"/>
      <point x="406" y="-100" type="curve" smooth="yes"/>
      <point x="451" y="-66"/>
      <point x="478" y="-24"/>
      <point x="496" y="41" type="curve" smooth="yes"/>
      <point x="514" y="104"/>
      <point x="519" y="167"/>
      <point x="519" y="334" type="curve" smooth="yes"/>
      <point x="519" y="652" type="line"/>
      <point x="538" y="651"/>
      <point x="552" y="651"/>
      <point x="561" y="651" type="curve" smooth="yes"/>
      <point x="605" y="651"/>
      <point x="631" y="655"/>
      <point x="680" y="668" type="curve"/>
    </contour>
    <contour>
      <point x="480" y="652" type="line"/>
      <point x="480" y="263" type="line"/>
      <point x="452" y="266"/>
      <point x="419" y="276"/>
      <point x="383" y="294" type="curve"/>
      <point x="374" y="331"/>
      <point x="369" y="391"/>
      <point x="369" y="455" type="curve" smooth="yes"/>
      <point x="369" y="518"/>
      <point x="375" y="608"/>
      <point x="383" y="652" type="curve"/>
    </contour>
  </outline>
</glyph>
<glyph name="a102" format="1">
  <advance width="544"/>
  <outline>
    <contour>
      <point x="272" y="297" type="curve"/>
      <point x="295" y="363"/>
      <point x="307" y="378"/>
      <point x="363" y="407" type="curve" smooth="yes"/>
      <point x="407" y="430"/>
      <point x="422" y="439"/>
      <point x="436" y="451" type="curve" smooth="yes"/>
      <point x="471" y="479"/>
      <point x="488" y="513"/>
      <point x="488" y="556" type="curve" smooth="yes"/>
      <point x="488" y="592"/>
      <point x="474" y="627"/>
      <point x="451" y="653" type="curve" smooth="yes"/>
      <point x="414" y="694"/>
      <point x="375" y="705"/>
      <point x="272" y="705" type="curve" smooth="yes"/>
      <point x="169" y="705"/>
      <point x="130" y="694"/>
      <point x="93" y="653" type="curve" smooth="yes"/>
      <point x="69" y="627"/>
      <point x="56" y="592"/>
      <point x="56" y="556" type="curve" smooth="yes"/>
      <point x="56" y="518"/>
      <point x="69" y="486"/>
      <point x="96" y="461" type="curve" smooth="yes"/>
      <point x="113" y="444"/>
      <point x="128" y="435"/>
      <point x="181" y="407" type="curve" smooth="yes"/>
      <point x="238" y="377"/>
      <point x="249" y="364"/>
    </contour>
    <contour>
      <point x="275" y="270" type="curve" smooth="yes"/>
      <point x="194" y="270"/>
      <point x="130" y="208"/>
      <point x="130" y="129" type="curve" smooth="yes"/>
      <point x="130" y="50"/>
      <point x="193" y="-14"/>
      <point x="273" y="-14" type="curve" smooth="yes"/>
      <point x="351" y="-14"/>
      <point x="415" y="50"/>
      <point x="415" y="128" type="curve" smooth="yes"/>
      <point x="415" y="206"/>
      <point x="351" y="270"/>
    </contour>
  </outline>
</glyph>
<glyph name="a103" format="1">
  <advance width="544"/>
  <outline>
    <contour>
      <point x="271" y="626" type="curve"/>
      <point x="259" y="646"/>
      <point x="255" y="653"/>
      <point x="249" y="660" type="curve" smooth="yes"/>
      <point x="227" y="688"/>
      <point x="192" y="704"/>
      <point x="155" y="704" type="curve" smooth="yes"/>
      <point x="82" y="704"/>
      <point x="34" y="649"/>
      <point x="34" y="565" type="curve" smooth="yes"/>
      <point x="34" y="523"/>
      <point x="48" y="485"/>
      <point x="73" y="458" type="curve" smooth="yes"/>
      <point x="91" y="438"/>
      <point x="91" y="438"/>
      <point x="159" y="407" type="curve" smooth="yes"/>
      <point x="222" y="376"/>
      <point x="248" y="349"/>
      <point x="271" y="296" type="curve"/>
      <point x="294" y="350"/>
      <point x="320" y="375"/>
      <point x="384" y="407" type="curve" smooth="yes"/>
      <point x="446" y="436"/>
      <point x="446" y="436"/>
      <point x="458" y="447" type="curve" smooth="yes"/>
      <point x="490" y="474"/>
      <point x="508" y="517"/>
      <point x="508" y="565" type="curve" smooth="yes"/>
      <point x="508" y="649"/>
      <point x="460" y="704"/>
      <point x="388" y="704" type="curve" smooth="yes"/>
      <point x="350" y="704"/>
      <point x="315" y="688"/>
      <point x="293" y="660" type="curve" smooth="yes"/>
      <point x="287" y="653"/>
      <point x="283" y="647"/>
    </contour>
    <contour>
      <point x="273" y="270" type="curve" smooth="yes"/>
      <point x="193" y="270"/>
      <point x="129" y="207"/>
      <point x="129" y="129" type="curve" smooth="yes"/>
      <point x="129" y="50"/>
      <point x="192" y="-14"/>
      <point x="271" y="-14" type="curve" smooth="yes"/>
      <point x="349" y="-14"/>
      <point x="413" y="50"/>
      <point x="413" y="128" type="curve" smooth="yes"/>
      <point x="413" y="205"/>
      <point x="349" y="270"/>
    </contour>
  </outline>
</glyph>
<glyph name="a104" format="1">
  <advance width="910"/>
  <outline>
    <contour>
      <point x="455" y="474" type="curve"/>
      <point x="439" y="515"/>
      <point x="432" y="531"/>
      <point x="420" y="551" type="curve" smooth="yes"/>
      <point x="383" y="612"/>
      <point x="312" y="651"/>
      <point x="238" y="651" type="curve" smooth="yes"/>
      <point x="121" y="651"/>
      <point x="35" y="564"/>
      <point x="35" y="446" type="curve" smooth="yes"/>
      <point x="35" y="375"/>
      <point x="58" y="323"/>
      <point x="107" y="285" type="curve" smooth="yes"/>
      <point x="138" y="261"/>
      <point x="171" y="243"/>
      <point x="256" y="206" type="curve" smooth="yes"/>
      <point x="376" y="153"/>
      <point x="414" y="122"/>
      <point x="455" y="40" type="curve"/>
      <point x="497" y="122"/>
      <point x="534" y="153"/>
      <point x="654" y="206" type="curve" smooth="yes"/>
      <point x="724" y="236"/>
      <point x="758" y="253"/>
      <point x="783" y="270" type="curve" smooth="yes"/>
      <point x="848" y="314"/>
      <point x="875" y="366"/>
      <point x="875" y="444" type="curve" smooth="yes"/>
      <point x="875" y="564"/>
      <point x="790" y="651"/>
      <point x="672" y="651" type="curve" smooth="yes"/>
      <point x="598" y="651"/>
      <point x="527" y="612"/>
      <point x="490" y="551" type="curve" smooth="yes"/>
      <point x="478" y="531"/>
      <point x="471" y="515"/>
    </contour>
  </outline>
</glyph>
<glyph name="a105" format="1">
  <advance width="911"/>
  <outline>
    <contour>
      <point x="153" y="264" type="curve" smooth="yes"/>
      <point x="136" y="264"/>
      <point x="122" y="248"/>
      <point x="122" y="229" type="curve" smooth="yes"/>
      <point x="122" y="187"/>
      <point x="161" y="136"/>
      <point x="194" y="136" type="curve" smooth="yes"/>
      <point x="210" y="136"/>
      <point x="222" y="151"/>
      <point x="222" y="172" type="curve" smooth="yes"/>
      <point x="222" y="214"/>
      <point x="185" y="264"/>
    </contour>
    <contour>
      <point x="265" y="49" type="line"/>
      <point x="684" y="303" type="line"/>
      <point x="685" y="304"/>
      <point x="690" y="306"/>
      <point x="694" y="309" type="curve"/>
      <point x="711" y="318"/>
      <point x="715" y="322"/>
      <point x="726" y="343" type="curve" smooth="yes"/>
      <point x="868" y="592" type="line" smooth="yes"/>
      <point x="874" y="602"/>
      <point x="876" y="607"/>
      <point x="876" y="612" type="curve" smooth="yes"/>
      <point x="876" y="628"/>
      <point x="864" y="636"/>
      <point x="840" y="636" type="curve" smooth="yes"/>
      <point x="563" y="636" type="line" smooth="yes"/>
      <point x="545" y="636"/>
      <point x="525" y="631"/>
      <point x="510" y="622" type="curve" smooth="yes"/>
      <point x="76" y="363" type="line"/>
      <point x="35" y="209" type="line"/>
      <point x="116" y="74" type="line"/>
    </contour>
    <contour>
      <point x="257" y="74" type="line"/>
      <point x="133" y="97" type="line"/>
      <point x="64" y="211" type="line"/>
      <point x="97" y="341" type="line"/>
      <point x="218" y="315" type="line"/>
      <point x="291" y="192" type="line"/>
    </contour>
    <contour>
      <point x="713" y="373" type="line"/>
      <point x="705" y="481"/>
      <point x="665" y="549"/>
      <point x="571" y="612" type="curve"/>
      <point x="752" y="612" type="line" smooth="yes"/>
      <point x="763" y="612"/>
      <point x="780" y="608"/>
      <point x="784" y="604" type="curve"/>
      <point x="800" y="592"/>
      <point x="816" y="565"/>
      <point x="816" y="553" type="curve" smooth="yes"/>
      <point x="816" y="543"/>
      <point x="815" y="542"/>
      <point x="794" y="510" type="curve" smooth="yes"/>
    </contour>
    <contour>
      <point x="290" y="91" type="line"/>
      <point x="318" y="195" type="line"/>
      <point x="684" y="413" type="line"/>
      <point x="687" y="393"/>
      <point x="688" y="384"/>
      <point x="688" y="369" type="curve" smooth="yes"/>
      <point x="688" y="356"/>
      <point x="687" y="347"/>
      <point x="684" y="330" type="curve"/>
    </contour>
    <contour>
      <point x="306" y="215" type="line"/>
      <point x="243" y="319" type="line"/>
      <point x="612" y="541" type="line"/>
      <point x="635" y="524"/>
      <point x="671" y="464"/>
      <point x="674" y="437" type="curve"/>
    </contour>
    <contour>
      <point x="231" y="339" type="line"/>
      <point x="120" y="361" type="line"/>
      <point x="534" y="612" type="line"/>
      <point x="547" y="606"/>
      <point x="579" y="578"/>
      <point x="595" y="559" type="curve"/>
    </contour>
  </outline>
</glyph>
<glyph name="a106" format="1">
  <advance width="667"/>
  <outline>
    <contour>
      <point x="633" y="381" type="line"/>
      <point x="615" y="379"/>
      <point x="603" y="378"/>
      <point x="593" y="378" type="curve" smooth="yes"/>
      <point x="561" y="378"/>
      <point x="524" y="390"/>
      <point x="492" y="411" type="curve" smooth="yes"/>
      <point x="451" y="437"/>
      <point x="420" y="480"/>
      <point x="393" y="548" type="curve" smooth="yes"/>
      <point x="372" y="602"/>
      <point x="363" y="620"/>
      <point x="350" y="637" type="curve" smooth="yes"/>
      <point x="317" y="681"/>
      <point x="268" y="706"/>
      <point x="213" y="706" type="curve" smooth="yes"/>
      <point x="115" y="706"/>
      <point x="35" y="627"/>
      <point x="35" y="531" type="curve" smooth="yes"/>
      <point x="35" y="478"/>
      <point x="60" y="427"/>
      <point x="103" y="393" type="curve" smooth="yes"/>
      <point x="126" y="374"/>
      <point x="145" y="366"/>
      <point x="187" y="356" type="curve"/>
      <point x="187" y="338" type="line"/>
      <point x="150" y="329"/>
      <point x="133" y="322"/>
      <point x="112" y="308" type="curve" smooth="yes"/>
      <point x="64" y="274"/>
      <point x="35" y="219"/>
      <point x="35" y="162" type="curve" smooth="yes"/>
      <point x="35" y="65"/>
      <point x="114" y="-13"/>
      <point x="211" y="-13" type="curve" smooth="yes"/>
      <point x="286" y="-13"/>
      <point x="352" y="33"/>
      <point x="377" y="102" type="curve" smooth="yes"/>
      <point x="413" y="199"/>
      <point x="417" y="208"/>
      <point x="450" y="246" type="curve" smooth="yes"/>
      <point x="489" y="291"/>
      <point x="546" y="318"/>
      <point x="602" y="318" type="curve" smooth="yes"/>
      <point x="610" y="318"/>
      <point x="617" y="318"/>
      <point x="633" y="316" type="curve"/>
    </contour>
  </outline>
</glyph>
<glyph name="a107" format="1">
  <advance width="760"/>
  <outline>
    <contour>
      <point x="325" y="634" type="line"/>
      <point x="278" y="673"/>
      <point x="244" y="688"/>
      <point x="207" y="688" type="curve" smooth="yes"/>
      <point x="128" y="688"/>
      <point x="35" y="593"/>
      <point x="35" y="513" type="curve" smooth="yes"/>
      <point x="35" y="490"/>
      <point x="50" y="472"/>
      <point x="70" y="472" type="curve" smooth="yes"/>
      <point x="89" y="472"/>
      <point x="111" y="491"/>
      <point x="111" y="507" type="curve" smooth="yes"/>
      <point x="111" y="512"/>
      <point x="111" y="512"/>
      <point x="99" y="525" type="curve" smooth="yes"/>
      <point x="90" y="535"/>
      <point x="85" y="550"/>
      <point x="85" y="563" type="curve" smooth="yes"/>
      <point x="85" y="612"/>
      <point x="129" y="655"/>
      <point x="179" y="655" type="curve" smooth="yes"/>
      <point x="214" y="655"/>
      <point x="261" y="633"/>
      <point x="356" y="573" type="curve" smooth="yes"/>
      <point x="411" y="538"/>
      <point x="416" y="534"/>
      <point x="442" y="521" type="curve"/>
      <point x="424" y="476"/>
      <point x="421" y="468"/>
      <point x="414" y="453" type="curve" smooth="yes"/>
      <point x="398" y="422"/>
      <point x="396" y="416"/>
      <point x="396" y="403" type="curve" smooth="yes"/>
      <point x="396" y="397"/>
      <point x="397" y="393"/>
      <point x="399" y="383" type="curve"/>
      <point x="401" y="387"/>
      <point x="403" y="392"/>
      <point x="406" y="397" type="curve"/>
      <point x="438" y="459"/>
      <point x="439" y="461"/>
      <point x="460" y="513" type="curve"/>
      <point x="494" y="498"/>
      <point x="518" y="491"/>
      <point x="533" y="491" type="curve" smooth="yes"/>
      <point x="546" y="491"/>
      <point x="571" y="495"/>
      <point x="585" y="499" type="curve" smooth="yes"/>
      <point x="669" y="522"/>
      <point x="726" y="579"/>
      <point x="726" y="640" type="curve" smooth="yes"/>
      <point x="726" y="677"/>
      <point x="700" y="705"/>
      <point x="666" y="705" type="curve" smooth="yes"/>
      <point x="634" y="705"/>
      <point x="610" y="677"/>
      <point x="610" y="638" type="curve" smooth="yes"/>
      <point x="610" y="629"/>
      <point x="612" y="624"/>
      <point x="617" y="621" type="curve"/>
      <point x="639" y="606"/>
      <point x="644" y="598"/>
      <point x="644" y="577" type="curve" smooth="yes"/>
      <point x="644" y="541"/>
      <point x="610" y="510"/>
      <point x="572" y="510" type="curve" smooth="yes"/>
      <point x="539" y="510"/>
      <point x="502" y="523"/>
      <point x="469" y="545" type="curve"/>
      <point x="475" y="570"/>
      <point x="478" y="587"/>
      <point x="478" y="602" type="curve" smooth="yes"/>
      <point x="478" y="659"/>
      <point x="441" y="703"/>
      <point x="393" y="703" type="curve" smooth="yes"/>
      <point x="368" y="703"/>
      <point x="350" y="693"/>
      <point x="325" y="665" type="curve"/>
    </contour>
    <contour>
      <point x="451" y="554" type="curve"/>
      <point x="438" y="559"/>
      <point x="418" y="571"/>
      <point x="397" y="587" type="curve" smooth="yes"/>
      <point x="376" y="603"/>
      <point x="366" y="618"/>
      <point x="366" y="636" type="curve" smooth="yes"/>
      <point x="366" y="655"/>
      <point x="381" y="671"/>
      <point x="399" y="671" type="curve" smooth="yes"/>
      <point x="430" y="671"/>
      <point x="458" y="634"/>
      <point x="458" y="593" type="curve" smooth="yes"/>
      <point x="458" y="580"/>
      <point x="456" y="571"/>
    </contour>
    <contour>
      <point x="379" y="361" type="line"/>
      <point x="379" y="436"/>
      <point x="346" y="474"/>
      <point x="281" y="474" type="curve" smooth="yes"/>
      <point x="202" y="474"/>
      <point x="145" y="398"/>
      <point x="145" y="292" type="curve" smooth="yes"/>
      <point x="145" y="128"/>
      <point x="287" y="-13"/>
      <point x="451" y="-13" type="curve" smooth="yes"/>
      <point x="536" y="-13"/>
      <point x="611" y="29"/>
      <point x="611" y="78" type="curve" smooth="yes"/>
      <point x="611" y="100"/>
      <point x="593" y="116"/>
      <point x="568" y="116" type="curve" smooth="yes"/>
      <point x="555" y="116"/>
      <point x="549" y="113"/>
      <point x="541" y="103" type="curve"/>
      <point x="532" y="41"/>
      <point x="506" y="11"/>
      <point x="461" y="11" type="curve" smooth="yes"/>
      <point x="427" y="11"/>
      <point x="401" y="35"/>
      <point x="401" y="65" type="curve" smooth="yes"/>
      <point x="401" y="96"/>
      <point x="422" y="115"/>
      <point x="498" y="152" type="curve" smooth="yes"/>
      <point x="549" y="177"/>
      <point x="581" y="197"/>
      <point x="598" y="216" type="curve" smooth="yes"/>
      <point x="626" y="246"/>
      <point x="641" y="284"/>
      <point x="641" y="322" type="curve" smooth="yes"/>
      <point x="641" y="391"/>
      <point x="590" y="448"/>
      <point x="529" y="448" type="curve" smooth="yes"/>
      <point x="500" y="448"/>
      <point x="466" y="436"/>
      <point x="446" y="419" type="curve" smooth="yes"/>
      <point x="429" y="404"/>
      <point x="417" y="389"/>
      <point x="397" y="354" type="curve"/>
    </contour>
  </outline>
</glyph>
<glyph name="a108" format="1">
  <advance width="760"/>
  <outline>
    <contour>
      <point x="22" y="216" type="line"/>
      <point x="28" y="161"/>
      <point x="62" y="126"/>
      <point x="110" y="126" type="curve" smooth="yes"/>
      <point x="148" y="126"/>
      <point x="171" y="148"/>
      <point x="171" y="185" type="curve" smooth="yes"/>
      <point x="171" y="193"/>
      <point x="171" y="197"/>
      <point x="169" y="216" type="curve"/>
      <point x="153" y="202"/>
      <point x="142" y="197"/>
      <point x="125" y="197" type="curve" smooth="yes"/>
      <point x="98" y="197"/>
      <point x="82" y="211"/>
      <point x="75" y="240" type="curve"/>
      <point x="159" y="274"/>
      <point x="214" y="335"/>
      <point x="213" y="394" type="curve"/>
      <point x="257" y="393"/>
      <point x="297" y="370"/>
      <point x="312" y="339" type="curve"/>
      <point x="263" y="313"/>
      <point x="247" y="292"/>
      <point x="247" y="253" type="curve" smooth="yes"/>
      <point x="247" y="180"/>
      <point x="330" y="121"/>
      <point x="433" y="121" type="curve" smooth="yes"/>
      <point x="507" y="121"/>
      <point x="595" y="154"/>
      <point x="680" y="215" type="curve" smooth="yes"/>
      <point x="736" y="255"/>
      <point x="758" y="279"/>
      <point x="758" y="303" type="curve" smooth="yes"/>
      <point x="758" y="322"/>
      <point x="745" y="335"/>
      <point x="725" y="335" type="curve" smooth="yes"/>
      <point x="712" y="335"/>
      <point x="703" y="330"/>
      <point x="694" y="316" type="curve"/>
      <point x="699" y="301"/>
      <point x="701" y="294"/>
      <point x="701" y="284" type="curve" smooth="yes"/>
      <point x="701" y="252"/>
      <point x="677" y="228"/>
      <point x="645" y="228" type="curve" smooth="yes"/>
      <point x="623" y="228"/>
      <point x="603" y="240"/>
      <point x="590" y="261" type="curve" smooth="yes"/>
      <point x="580" y="276"/>
      <point x="577" y="291"/>
      <point x="573" y="336" type="curve" smooth="yes"/>
      <point x="566" y="413"/>
      <point x="563" y="423"/>
      <point x="543" y="454" type="curve" smooth="yes"/>
      <point x="515" y="495"/>
      <point x="464" y="523"/>
      <point x="414" y="523" type="curve" smooth="yes"/>
      <point x="359" y="523"/>
      <point x="313" y="483"/>
      <point x="313" y="434" type="curve" smooth="yes"/>
      <point x="313" y="414"/>
      <point x="317" y="399"/>
      <point x="330" y="369" type="curve"/>
      <point x="292" y="400"/>
      <point x="256" y="415"/>
      <point x="221" y="415" type="curve" smooth="yes"/>
      <point x="213" y="415" type="line"/>
      <point x="202" y="441"/>
      <point x="189" y="456"/>
      <point x="159" y="475" type="curve" smooth="yes"/>
      <point x="113" y="503"/>
      <point x="102" y="515"/>
      <point x="102" y="539" type="curve" smooth="yes"/>
      <point x="102" y="551"/>
      <point x="108" y="561"/>
      <point x="121" y="570" type="curve"/>
      <point x="111" y="570" type="line" smooth="yes"/>
      <point x="70" y="570"/>
      <point x="42" y="545"/>
      <point x="42" y="509" type="curve" smooth="yes"/>
      <point x="42" y="476"/>
      <point x="60" y="459"/>
      <point x="106" y="449" type="curve" smooth="yes"/>
      <point x="165" y="437"/>
      <point x="169" y="435"/>
      <point x="179" y="415" type="curve"/>
      <point x="98" y="402"/>
      <point x="25" y="332"/>
      <point x="22" y="264" type="curve"/>
      <point x="7" y="248"/>
      <point x="3" y="238"/>
      <point x="0" y="216" type="curve"/>
    </contour>
    <contour>
      <point x="71" y="278" type="curve"/>
      <point x="68" y="335"/>
      <point x="126" y="393"/>
      <point x="187" y="394" type="curve"/>
      <point x="188" y="388"/>
      <point x="189" y="383"/>
      <point x="189" y="380" type="curve" smooth="yes"/>
      <point x="189" y="359"/>
      <point x="171" y="331"/>
      <point x="144" y="313" type="curve" smooth="yes"/>
      <point x="123" y="298"/>
      <point x="107" y="290"/>
    </contour>
  </outline>
</glyph>
<glyph name="a109" format="1">
  <advance width="626"/>
  <outline>
    <contour>
      <point x="72" y="0" type="line"/>
      <point x="553" y="0" type="line"/>
      <point x="553" y="20" type="line"/>
      <point x="461" y="37"/>
      <point x="430" y="51"/>
      <point x="386" y="99" type="curve" smooth="yes"/>
      <point x="349" y="142"/>
      <point x="335" y="176"/>
      <point x="329" y="238" type="curve"/>
      <point x="362" y="187"/>
      <point x="410" y="158"/>
      <point x="463" y="158" type="curve" smooth="yes"/>
      <point x="534" y="158"/>
      <point x="591" y="214"/>
      <point x="591" y="285" type="curve" smooth="yes"/>
      <point x="591" y="348"/>
      <point x="566" y="387"/>
      <point x="466" y="477" type="curve" smooth="yes"/>
      <point x="369" y="565"/>
      <point x="338" y="610"/>
      <point x="313" y="705" type="curve"/>
      <point x="286" y="609"/>
      <point x="257" y="566"/>
      <point x="159" y="477" type="curve" smooth="yes"/>
      <point x="59" y="387"/>
      <point x="34" y="348"/>
      <point x="34" y="285" type="curve" smooth="yes"/>
      <point x="34" y="214"/>
      <point x="91" y="158"/>
      <point x="162" y="158" type="curve" smooth="yes"/>
      <point x="215" y="158"/>
      <point x="263" y="187"/>
      <point x="296" y="238" type="curve"/>
      <point x="290" y="176"/>
      <point x="276" y="142"/>
      <point x="239" y="99" type="curve" smooth="yes"/>
      <point x="195" y="51"/>
      <point x="164" y="37"/>
      <point x="72" y="20" type="curve"/>
    </contour>
  </outline>
</glyph>
<glyph name="a11" format="1">
  <advance width="960"/>
  <outline>
    <contour>
      <point x="662" y="425" type="line"/>
      <point x="682" y="425"/>
      <point x="723" y="419"/>
      <point x="757" y="410" type="curve" smooth="yes"/>
      <point x="798" y="400"/>
      <point x="804" y="399"/>
      <point x="823" y="399" type="curve" smooth="yes"/>
      <point x="844" y="399"/>
      <point x="883" y="403"/>
      <point x="899" y="408" type="curve" smooth="yes"/>
      <point x="917" y="413"/>
      <point x="925" y="420"/>
      <point x="925" y="430" type="curve" smooth="yes"/>
      <point x="925" y="444"/>
      <point x="912" y="456"/>
      <point x="884" y="471" type="curve" smooth="yes"/>
      <point x="847" y="490"/>
      <point x="739" y="529"/>
      <point x="691" y="541" type="curve" smooth="yes"/>
      <point x="645" y="552"/>
      <point x="512" y="568"/>
      <point x="461" y="568" type="curve" smooth="yes"/>
      <point x="437" y="568"/>
      <point x="423" y="565"/>
      <point x="398" y="554" type="curve" smooth="yes"/>
      <point x="353" y="535"/>
      <point x="305" y="512"/>
      <point x="274" y="495" type="curve" smooth="yes"/>
      <point x="245" y="478"/>
      <point x="238" y="476"/>
      <point x="202" y="473" type="curve" smooth="yes"/>
      <point x="154" y="470"/>
      <point x="153" y="470"/>
      <point x="142" y="461" type="curve" smooth="yes"/>
      <point x="119" y="443"/>
      <point x="103" y="388"/>
      <point x="103" y="329" type="curve" smooth="yes"/>
      <point x="103" y="268"/>
      <point x="122" y="199"/>
      <point x="140" y="194" type="curve" smooth="yes"/>
      <point x="156" y="190"/>
      <point x="207" y="182"/>
      <point x="233" y="180" type="curve" smooth="yes"/>
      <point x="253" y="178"/>
      <point x="255" y="178"/>
      <point x="260" y="176" type="curve"/>
      <point x="266" y="174"/>
      <point x="271" y="171"/>
      <point x="281" y="165" type="curve" smooth="yes"/>
      <point x="357" y="123"/>
      <point x="359" y="122"/>
      <point x="401" y="122" type="curve" smooth="yes"/>
      <point x="434" y="122"/>
      <point x="504" y="132"/>
      <point x="563" y="145" type="curve" smooth="yes"/>
      <point x="600" y="153"/>
      <point x="617" y="169"/>
      <point x="617" y="196" type="curve" smooth="yes"/>
      <point x="617" y="203"/>
      <point x="616" y="211"/>
      <point x="615" y="220" type="curve"/>
      <point x="646" y="229"/>
      <point x="656" y="240"/>
      <point x="656" y="263" type="curve" smooth="yes"/>
      <point x="656" y="280"/>
      <point x="651" y="292"/>
      <point x="637" y="307" type="curve"/>
      <point x="672" y="321"/>
      <point x="689" y="339"/>
      <point x="689" y="361" type="curve" smooth="yes"/>
      <point x="689" y="381"/>
      <point x="682" y="392"/>
      <point x="644" y="424" type="curve"/>
    </contour>
    <contour>
      <point x="141" y="494" type="curve"/>
      <point x="134" y="506"/>
      <point x="128" y="510"/>
      <point x="119" y="510" type="curve" smooth="yes"/>
      <point x="72" y="510"/>
      <point x="35" y="424"/>
      <point x="35" y="317" type="curve" smooth="yes"/>
      <point x="35" y="211"/>
      <point x="65" y="145"/>
      <point x="113" y="145" type="curve" smooth="yes"/>
      <point x="124" y="145"/>
      <point x="132" y="149"/>
      <point x="141" y="160" type="curve"/>
      <point x="138" y="159"/>
      <point x="136" y="159"/>
      <point x="135" y="159" type="curve" smooth="yes"/>
      <point x="87" y="159"/>
      <point x="59" y="217"/>
      <point x="59" y="317" type="curve" smooth="yes"/>
      <point x="59" y="388"/>
      <point x="76" y="454"/>
      <point x="100" y="479" type="curve" smooth="yes"/>
      <point x="112" y="491"/>
      <point x="120" y="493"/>
    </contour>
  </outline>
</glyph>
<glyph name="a110" format="1">
  <advance width="694"/>
  <outline>
    <contour>
      <point x="348" y="-14" type="curve"/>
      <point x="369" y="73"/>
      <point x="425" y="169"/>
      <point x="536" y="306" type="curve" smooth="yes"/>
      <point x="628" y="422"/>
      <point x="659" y="486"/>
      <point x="659" y="561" type="curve" smooth="yes"/>
      <point x="659" y="639"/>
      <point x="592" y="704"/>
      <point x="511" y="704" type="curve" smooth="yes"/>
      <point x="466" y="704"/>
      <point x="423" y="684"/>
      <point x="391" y="648" type="curve" smooth="yes"/>
      <point x="371" y="624"/>
      <point x="360" y="604"/>
      <point x="348" y="560" type="curve"/>
      <point x="337" y="594"/>
      <point x="329" y="611"/>
      <point x="317" y="629" type="curve" smooth="yes"/>
      <point x="285" y="677"/>
      <point x="236" y="704"/>
      <point x="182" y="704" type="curve" smooth="yes"/>
      <point x="99" y="704"/>
      <point x="35" y="639"/>
      <point x="35" y="555" type="curve" smooth="yes"/>
      <point x="35" y="493"/>
      <point x="57" y="446"/>
      <point x="138" y="340" type="curve" smooth="yes"/>
      <point x="284" y="150"/>
      <point x="322" y="85"/>
    </contour>
  </outline>
</glyph>
<glyph name="a111" format="1">
  <advance width="595"/>
  <outline>
    <contour>
      <point x="296" y="705" type="curve"/>
      <point x="245" y="612"/>
      <point x="173" y="514"/>
      <point x="34" y="346" type="curve"/>
      <point x="152" y="203"/>
      <point x="245" y="77"/>
      <point x="296" y="-14" type="curve"/>
      <point x="339" y="65"/>
      <point x="465" y="238"/>
      <point x="560" y="346" type="curve"/>
      <point x="484" y="429"/>
      <point x="328" y="642"/>
    </contour>
  </outline>
</glyph>
<glyph name="a112" format="1">
  <advance width="776"/>
  <outline>
    <contour>
      <point x="630" y="0" type="line"/>
      <point x="630" y="20" type="line"/>
      <point x="538" y="37"/>
      <point x="507" y="52"/>
      <point x="463" y="99" type="curve" smooth="yes"/>
      <point x="418" y="151"/>
      <point x="407" y="186"/>
      <point x="402" y="293" type="curve"/>
      <point x="419" y="261"/>
      <point x="427" y="247"/>
      <point x="441" y="231" type="curve" smooth="yes"/>
      <point x="477" y="186"/>
      <point x="535" y="157"/>
      <point x="585" y="157" type="curve" smooth="yes"/>
      <point x="671" y="157"/>
      <point x="741" y="230"/>
      <point x="741" y="319" type="curve" smooth="yes"/>
      <point x="741" y="406"/>
      <point x="678" y="476"/>
      <point x="599" y="476" type="curve" smooth="yes"/>
      <point x="575" y="476"/>
      <point x="561" y="472"/>
      <point x="528" y="456" type="curve"/>
      <point x="521" y="452"/>
      <point x="516" y="450"/>
      <point x="507" y="446" type="curve"/>
      <point x="535" y="486"/>
      <point x="546" y="516"/>
      <point x="546" y="552" type="curve" smooth="yes"/>
      <point x="546" y="636"/>
      <point x="475" y="705"/>
      <point x="388" y="705" type="curve" smooth="yes"/>
      <point x="301" y="705"/>
      <point x="230" y="636"/>
      <point x="230" y="552" type="curve" smooth="yes"/>
      <point x="230" y="516"/>
      <point x="241" y="486"/>
      <point x="269" y="446" type="curve"/>
      <point x="261" y="449"/>
      <point x="251" y="454"/>
      <point x="248" y="456" type="curve"/>
      <point x="215" y="472"/>
      <point x="201" y="476"/>
      <point x="177" y="476" type="curve" smooth="yes"/>
      <point x="98" y="476"/>
      <point x="35" y="406"/>
      <point x="35" y="319" type="curve" smooth="yes"/>
      <point x="35" y="230"/>
      <point x="105" y="157"/>
      <point x="191" y="157" type="curve" smooth="yes"/>
      <point x="241" y="157"/>
      <point x="299" y="186"/>
      <point x="335" y="231" type="curve" smooth="yes"/>
      <point x="349" y="247"/>
      <point x="357" y="261"/>
      <point x="374" y="293" type="curve"/>
      <point x="369" y="186"/>
      <point x="358" y="151"/>
      <point x="313" y="99" type="curve" smooth="yes"/>
      <point x="269" y="52"/>
      <point x="238" y="37"/>
      <point x="146" y="20" type="curve"/>
      <point x="146" y="0" type="line"/>
    </contour>
  </outline>
</glyph>
<glyph name="a117" format="1">
  <advance width="690"/>
  <outline>
    <contour>
      <point x="655" y="556" type="line"/>
      <point x="35" y="556" type="line"/>
      <point x="35" y="137" type="line"/>
      <point x="655" y="137" type="line"/>
    </contour>
    <contour>
      <point x="54" y="515" type="line"/>
      <point x="262" y="352" type="line"/>
      <point x="262" y="341" type="line"/>
      <point x="54" y="178" type="line"/>
    </contour>
    <contour>
      <point x="636" y="156" type="line"/>
      <point x="54" y="156" type="line"/>
      <point x="262" y="318" type="line"/>
      <point x="279" y="282"/>
      <point x="307" y="263"/>
      <point x="345" y="263" type="curve" smooth="yes"/>
      <point x="383" y="263"/>
      <point x="412" y="282"/>
      <point x="428" y="318" type="curve"/>
    </contour>
    <contour>
      <point x="636" y="515" type="line"/>
      <point x="636" y="178" type="line"/>
      <point x="428" y="341" type="line"/>
      <point x="428" y="352" type="line"/>
    </contour>
    <contour>
      <point x="636" y="537" type="line"/>
      <point x="428" y="375" type="line"/>
      <point x="412" y="411"/>
      <point x="383" y="430"/>
      <point x="345" y="430" type="curve" smooth="yes"/>
      <point x="308" y="430"/>
      <point x="278" y="411"/>
      <point x="262" y="375" type="curve"/>
      <point x="54" y="537" type="line"/>
    </contour>
  </outline>
</glyph>
<glyph name="a118" format="1">
  <advance width="791"/>
  <outline>
    <contour>
      <point x="35" y="347" type="line"/>
      <point x="70" y="333" type="line"/>
      <point x="37" y="215" type="line"/>
      <point x="88" y="222" type="line"/>
      <point x="162" y="321" type="line"/>
      <point x="210" y="316"/>
      <point x="289" y="309"/>
      <point x="297" y="309" type="curve" smooth="yes"/>
      <point x="354" y="308"/>
      <point x="354" y="308"/>
      <point x="362" y="304" type="curve" smooth="yes"/>
      <point x="371" y="300"/>
      <point x="376" y="292"/>
      <point x="376" y="282" type="curve" smooth="yes"/>
      <point x="376" y="271"/>
      <point x="374" y="264"/>
      <point x="353" y="184" type="curve"/>
      <point x="266" y="-13" type="line"/>
      <point x="303" y="-13" type="line" smooth="yes"/>
      <point x="321" y="-13"/>
      <point x="327" y="-9"/>
      <point x="344" y="14" type="curve" smooth="yes"/>
      <point x="383" y="69" type="line"/>
      <point x="444" y="69" type="line" smooth="yes"/>
      <point x="450" y="69"/>
      <point x="456" y="77"/>
      <point x="456" y="85" type="curve" smooth="yes"/>
      <point x="456" y="94"/>
      <point x="450" y="102"/>
      <point x="444" y="102" type="curve" smooth="yes"/>
      <point x="411" y="102" type="line"/>
      <point x="460" y="172" type="line"/>
      <point x="520" y="172" type="line" smooth="yes"/>
      <point x="526" y="172"/>
      <point x="532" y="180"/>
      <point x="532" y="189" type="curve" smooth="yes"/>
      <point x="532" y="197"/>
      <point x="526" y="206"/>
      <point x="519" y="206" type="curve" smooth="yes"/>
      <point x="488" y="206" type="line"/>
      <point x="562" y="305" type="line"/>
      <point x="571" y="306" type="line"/>
      <point x="665" y="310"/>
      <point x="676" y="311"/>
      <point x="710" y="316" type="curve" smooth="yes"/>
      <point x="741" y="321"/>
      <point x="761" y="333"/>
      <point x="761" y="347" type="curve" smooth="yes"/>
      <point x="761" y="366"/>
      <point x="717" y="379"/>
      <point x="641" y="382" type="curve" smooth="yes"/>
      <point x="571" y="385" type="line"/>
      <point x="562" y="386" type="line"/>
      <point x="488" y="485" type="line"/>
      <point x="519" y="485" type="line" smooth="yes"/>
      <point x="526" y="485"/>
      <point x="532" y="494"/>
      <point x="532" y="503" type="curve" smooth="yes"/>
      <point x="532" y="511"/>
      <point x="526" y="519"/>
      <point x="520" y="519" type="curve" smooth="yes"/>
      <point x="460" y="519" type="line"/>
      <point x="411" y="589" type="line"/>
      <point x="444" y="589" type="line" smooth="yes"/>
      <point x="450" y="589"/>
      <point x="456" y="597"/>
      <point x="456" y="606" type="curve" smooth="yes"/>
      <point x="456" y="614"/>
      <point x="450" y="622"/>
      <point x="444" y="622" type="curve" smooth="yes"/>
      <point x="383" y="622" type="line"/>
      <point x="344" y="677" type="line" smooth="yes"/>
      <point x="327" y="701"/>
      <point x="321" y="705"/>
      <point x="303" y="705" type="curve" smooth="yes"/>
      <point x="266" y="705" type="line"/>
      <point x="353" y="507" type="line"/>
      <point x="374" y="429"/>
      <point x="376" y="420"/>
      <point x="376" y="409" type="curve" smooth="yes"/>
      <point x="376" y="392"/>
      <point x="364" y="384"/>
      <point x="339" y="383" type="curve" smooth="yes"/>
      <point x="306" y="382" type="line" smooth="yes"/>
      <point x="288" y="382"/>
      <point x="285" y="382"/>
      <point x="247" y="378" type="curve" smooth="yes"/>
      <point x="231" y="377"/>
      <point x="215" y="375"/>
      <point x="198" y="374" type="curve"/>
      <point x="162" y="370" type="line"/>
      <point x="88" y="469" type="line"/>
      <point x="37" y="476" type="line"/>
      <point x="70" y="358" type="line"/>
    </contour>
  </outline>
</glyph>
<glyph name="a119" format="1">
  <advance width="790"/>
  <outline>
    <contour>
      <point x="617" y="146" type="line"/>
      <point x="631" y="156"/>
      <point x="666" y="211"/>
      <point x="671" y="232" type="curve"/>
      <point x="526" y="349" type="line"/>
      <point x="526" y="298"/>
      <point x="498" y="253"/>
      <point x="454" y="232" type="curve"/>
    </contour>
    <contour>
      <point x="116" y="245" type="line"/>
      <point x="127" y="214"/>
      <point x="151" y="173"/>
      <point x="168" y="156" type="curve"/>
      <point x="334" y="232" type="line"/>
      <point x="288" y="259"/>
      <point x="267" y="298"/>
      <point x="266" y="355" type="curve"/>
    </contour>
    <contour>
      <point x="441" y="639" type="line"/>
      <point x="426" y="644"/>
      <point x="416" y="645"/>
      <point x="395" y="645" type="curve" smooth="yes"/>
      <point x="373" y="645"/>
      <point x="359" y="643"/>
      <point x="345" y="639" type="curve"/>
      <point x="324" y="454" type="line"/>
      <point x="349" y="470"/>
      <point x="371" y="476"/>
      <point x="398" y="476" type="curve" smooth="yes"/>
      <point x="427" y="476"/>
      <point x="447" y="470"/>
      <point x="469" y="454" type="curve"/>
    </contour>
    <contour>
      <point x="398" y="446" type="curve" smooth="yes"/>
      <point x="341" y="446"/>
      <point x="295" y="401"/>
      <point x="295" y="346" type="curve" smooth="yes"/>
      <point x="295" y="290"/>
      <point x="340" y="244"/>
      <point x="396" y="244" type="curve" smooth="yes"/>
      <point x="452" y="244"/>
      <point x="497" y="289"/>
      <point x="497" y="345" type="curve" smooth="yes"/>
      <point x="497" y="400"/>
      <point x="452" y="446"/>
    </contour>
    <contour>
      <point x="401" y="706" type="curve" smooth="yes"/>
      <point x="198" y="706"/>
      <point x="35" y="547"/>
      <point x="35" y="349" type="curve" smooth="yes"/>
      <point x="35" y="147"/>
      <point x="195" y="-14"/>
      <point x="395" y="-14" type="curve" smooth="yes"/>
      <point x="594" y="-14"/>
      <point x="755" y="147"/>
      <point x="755" y="346" type="curve" smooth="yes"/>
      <point x="755" y="542"/>
      <point x="594" y="706"/>
    </contour>
    <contour>
      <point x="400" y="680" type="curve" smooth="yes"/>
      <point x="477" y="680"/>
      <point x="560" y="647"/>
      <point x="618" y="594" type="curve" smooth="yes"/>
      <point x="691" y="528"/>
      <point x="729" y="442"/>
      <point x="729" y="347" type="curve" smooth="yes"/>
      <point x="729" y="163"/>
      <point x="579" y="13"/>
      <point x="395" y="13" type="curve" smooth="yes"/>
      <point x="209" y="13"/>
      <point x="61" y="162"/>
      <point x="61" y="349" type="curve" smooth="yes"/>
      <point x="61" y="429"/>
      <point x="92" y="509"/>
      <point x="147" y="569" type="curve" smooth="yes"/>
      <point x="214" y="643"/>
      <point x="298" y="680"/>
    </contour>
  </outline>
</glyph>
<glyph name="a12" format="1">
  <advance width="939"/>
  <outline>
    <contour>
      <point x="35" y="507" type="line"/>
      <point x="35" y="161" type="line"/>
      <point x="140" y="148" type="line"/>
      <point x="152" y="173" type="line"/>
      <point x="235" y="173" type="line"/>
      <point x="235" y="222" type="line"/>
      <point x="258" y="220"/>
      <point x="279" y="217"/>
      <point x="285" y="215" type="curve" smooth="yes"/>
      <point x="291" y="213"/>
      <point x="308" y="204"/>
      <point x="333" y="191" type="curve" smooth="yes"/>
      <point x="391" y="161"/>
      <point x="402" y="160"/>
      <point x="515" y="161" type="curve"/>
      <point x="528" y="142"/>
      <point x="548" y="133"/>
      <point x="578" y="133" type="curve" smooth="yes"/>
      <point x="650" y="133"/>
      <point x="720" y="173"/>
      <point x="720" y="214" type="curve" smooth="yes"/>
      <point x="720" y="228"/>
      <point x="714" y="240"/>
      <point x="695" y="262" type="curve"/>
      <point x="703" y="272"/>
      <point x="705" y="277"/>
      <point x="705" y="288" type="curve" smooth="yes"/>
      <point x="705" y="313"/>
      <point x="695" y="330"/>
      <point x="671" y="345" type="curve"/>
      <point x="676" y="357"/>
      <point x="678" y="362"/>
      <point x="678" y="368" type="curve" smooth="yes"/>
      <point x="678" y="380"/>
      <point x="673" y="390"/>
      <point x="660" y="404" type="curve"/>
      <point x="678" y="404"/>
      <point x="678" y="404"/>
      <point x="741" y="408" type="curve" smooth="yes"/>
      <point x="835" y="413"/>
      <point x="858" y="416"/>
      <point x="877" y="428" type="curve" smooth="yes"/>
      <point x="894" y="438"/>
      <point x="904" y="453"/>
      <point x="904" y="468" type="curve" smooth="yes"/>
      <point x="904" y="489"/>
      <point x="884" y="510"/>
      <point x="852" y="523" type="curve" smooth="yes"/>
      <point x="819" y="537"/>
      <point x="707" y="546"/>
      <point x="579" y="546" type="curve" smooth="yes"/>
      <point x="554" y="546"/>
      <point x="534" y="545"/>
      <point x="500" y="541" type="curve"/>
      <point x="481" y="554"/>
      <point x="465" y="559"/>
      <point x="445" y="559" type="curve" smooth="yes"/>
      <point x="414" y="559"/>
      <point x="383" y="547"/>
      <point x="337" y="518" type="curve" smooth="yes"/>
      <point x="294" y="491"/>
      <point x="274" y="483"/>
      <point x="249" y="483" type="curve" smooth="yes"/>
      <point x="246" y="483"/>
      <point x="242" y="483"/>
      <point x="235" y="484" type="curve"/>
      <point x="235" y="518" type="line"/>
    </contour>
    <contour>
      <point x="139" y="484" type="line"/>
      <point x="202" y="484" type="line"/>
      <point x="202" y="212" type="line"/>
      <point x="148" y="212" type="line"/>
    </contour>
    <contour>
      <point x="235" y="450" type="line"/>
      <point x="269" y="450"/>
      <point x="281" y="454"/>
      <point x="311" y="472" type="curve" smooth="yes"/>
      <point x="363" y="505"/>
      <point x="363" y="505"/>
      <point x="378" y="512" type="curve" smooth="yes"/>
      <point x="404" y="525"/>
      <point x="426" y="532"/>
      <point x="440" y="532" type="curve" smooth="yes"/>
      <point x="460" y="532"/>
      <point x="484" y="522"/>
      <point x="498" y="507" type="curve" smooth="yes"/>
      <point x="569" y="436" type="line" smooth="yes"/>
      <point x="581" y="423"/>
      <point x="589" y="409"/>
      <point x="589" y="399" type="curve" smooth="yes"/>
      <point x="589" y="383"/>
      <point x="570" y="369"/>
      <point x="549" y="369" type="curve" smooth="yes"/>
      <point x="528" y="369"/>
      <point x="513" y="376"/>
      <point x="485" y="401" type="curve" smooth="yes"/>
      <point x="426" y="450" type="line"/>
      <point x="414" y="436" type="line"/>
      <point x="457" y="383" type="line"/>
      <point x="432" y="356"/>
      <point x="401" y="341"/>
      <point x="368" y="341" type="curve" smooth="yes"/>
      <point x="356" y="341"/>
      <point x="337" y="344"/>
      <point x="314" y="349" type="curve" smooth="yes"/>
      <point x="301" y="352" type="line"/>
      <point x="293" y="337" type="line"/>
      <point x="360" y="314" type="line"/>
      <point x="414" y="314" type="line"/>
      <point x="429" y="267"/>
      <point x="437" y="258"/>
      <point x="472" y="252" type="curve"/>
      <point x="474" y="217"/>
      <point x="483" y="203"/>
      <point x="508" y="198" type="curve"/>
      <point x="508" y="185" type="line"/>
      <point x="482" y="184"/>
      <point x="474" y="184"/>
      <point x="465" y="184" type="curve" smooth="yes"/>
      <point x="413" y="184"/>
      <point x="370" y="194"/>
      <point x="340" y="213" type="curve" smooth="yes"/>
      <point x="316" y="228" type="line" smooth="yes"/>
      <point x="302" y="236"/>
      <point x="291" y="242"/>
      <point x="284" y="245" type="curve"/>
      <point x="270" y="249"/>
      <point x="259" y="251"/>
      <point x="235" y="252" type="curve"/>
    </contour>
    <contour>
      <point x="534" y="518" type="line"/>
      <point x="576" y="520"/>
      <point x="596" y="521"/>
      <point x="619" y="521" type="curve" smooth="yes"/>
      <point x="700" y="521"/>
      <point x="806" y="513"/>
      <point x="832" y="505" type="curve" smooth="yes"/>
      <point x="857" y="497"/>
      <point x="871" y="485"/>
      <point x="871" y="471" type="curve" smooth="yes"/>
      <point x="871" y="463"/>
      <point x="864" y="453"/>
      <point x="856" y="450" type="curve" smooth="yes"/>
      <point x="835" y="442"/>
      <point x="741" y="435"/>
      <point x="642" y="435" type="curve" smooth="yes"/>
      <point x="637" y="435"/>
      <point x="623" y="435"/>
      <point x="605" y="436" type="curve"/>
    </contour>
    <contour>
      <point x="629" y="395" type="curve"/>
      <point x="642" y="387"/>
      <point x="647" y="380"/>
      <point x="647" y="371" type="curve" smooth="yes"/>
      <point x="647" y="353"/>
      <point x="633" y="340"/>
      <point x="597" y="323" type="curve" smooth="yes"/>
      <point x="546" y="300"/>
      <point x="495" y="281"/>
      <point x="480" y="281" type="curve" smooth="yes"/>
      <point x="460" y="281"/>
      <point x="442" y="297"/>
      <point x="442" y="316" type="curve" smooth="yes"/>
      <point x="442" y="337"/>
      <point x="469" y="365"/>
      <point x="490" y="365" type="curve" smooth="yes"/>
      <point x="492" y="365"/>
      <point x="496" y="364"/>
      <point x="501" y="362" type="curve" smooth="yes"/>
      <point x="516" y="356"/>
      <point x="532" y="353"/>
      <point x="546" y="353" type="curve" smooth="yes"/>
      <point x="578" y="353"/>
      <point x="603" y="365"/>
      <point x="625" y="390" type="curve"/>
      <point x="627" y="393"/>
      <point x="627" y="393"/>
    </contour>
    <contour>
      <point x="649" y="319" type="curve" smooth="yes"/>
      <point x="661" y="319"/>
      <point x="673" y="306"/>
      <point x="673" y="293" type="curve" smooth="yes"/>
      <point x="673" y="273"/>
      <point x="654" y="252"/>
      <point x="626" y="241" type="curve" smooth="yes"/>
      <point x="594" y="227"/>
      <point x="552" y="217"/>
      <point x="531" y="217" type="curve" smooth="yes"/>
      <point x="516" y="217"/>
      <point x="503" y="228"/>
      <point x="503" y="242" type="curve" smooth="yes"/>
      <point x="503" y="256"/>
      <point x="508" y="260"/>
      <point x="536" y="268" type="curve" smooth="yes"/>
      <point x="540" y="269"/>
      <point x="551" y="274"/>
      <point x="567" y="281" type="curve" smooth="yes"/>
      <point x="645" y="319"/>
      <point x="645" y="319"/>
    </contour>
    <contour>
      <point x="668" y="238" type="curve"/>
      <point x="675" y="237"/>
      <point x="686" y="219"/>
      <point x="686" y="208" type="curve" smooth="yes"/>
      <point x="686" y="185"/>
      <point x="623" y="155"/>
      <point x="577" y="155" type="curve" smooth="yes"/>
      <point x="552" y="155"/>
      <point x="534" y="167"/>
      <point x="534" y="183" type="curve" smooth="yes"/>
      <point x="534" y="191"/>
      <point x="537" y="193"/>
      <point x="552" y="196" type="curve"/>
      <point x="563" y="199"/>
      <point x="575" y="202"/>
      <point x="586" y="204" type="curve" smooth="yes"/>
      <point x="599" y="207"/>
      <point x="607" y="210"/>
      <point x="608" y="210" type="curve"/>
      <point x="647" y="228"/>
      <point x="653" y="231"/>
      <point x="659" y="234" type="curve"/>
      <point x="663" y="237"/>
      <point x="666" y="238"/>
    </contour>
  </outline>
</glyph>
<glyph name="a120" format="1">
  <advance width="788"/>
  <outline>
    <contour>
      <point x="445" y="588" type="line"/>
      <point x="414" y="588" type="line"/>
      <point x="384" y="546"/>
      <point x="333" y="521"/>
      <point x="261" y="513" type="curve"/>
      <point x="261" y="486" type="line"/>
      <point x="331" y="486" type="line" smooth="yes"/>
      <point x="354" y="486"/>
      <point x="359" y="481"/>
      <point x="359" y="454" type="curve" smooth="yes"/>
      <point x="359" y="216" type="line" smooth="yes"/>
      <point x="359" y="163"/>
      <point x="349" y="151"/>
      <point x="302" y="151" type="curve" smooth="yes"/>
      <point x="275" y="151" type="line"/>
      <point x="275" y="118" type="line"/>
      <point x="534" y="118" type="line"/>
      <point x="534" y="151" type="line"/>
      <point x="498" y="151" type="line" smooth="yes"/>
      <point x="459" y="151"/>
      <point x="445" y="168"/>
      <point x="445" y="216" type="curve" smooth="yes"/>
    </contour>
    <contour>
      <point x="400" y="706" type="curve" smooth="yes"/>
      <point x="197" y="706"/>
      <point x="35" y="547"/>
      <point x="35" y="349" type="curve" smooth="yes"/>
      <point x="35" y="148"/>
      <point x="195" y="-13"/>
      <point x="394" y="-13" type="curve" smooth="yes"/>
      <point x="593" y="-13"/>
      <point x="754" y="148"/>
      <point x="754" y="347" type="curve" smooth="yes"/>
      <point x="754" y="542"/>
      <point x="593" y="706"/>
    </contour>
    <contour>
      <point x="400" y="673" type="curve" smooth="yes"/>
      <point x="474" y="673"/>
      <point x="556" y="641"/>
      <point x="613" y="589" type="curve" smooth="yes"/>
      <point x="684" y="524"/>
      <point x="721" y="440"/>
      <point x="721" y="347" type="curve" smooth="yes"/>
      <point x="721" y="167"/>
      <point x="575" y="20"/>
      <point x="395" y="20" type="curve" smooth="yes"/>
      <point x="213" y="20"/>
      <point x="68" y="166"/>
      <point x="68" y="349" type="curve" smooth="yes"/>
      <point x="68" y="428"/>
      <point x="98" y="506"/>
      <point x="152" y="565" type="curve" smooth="yes"/>
      <point x="217" y="637"/>
      <point x="300" y="673"/>
    </contour>
  </outline>
</glyph>
<glyph name="a121" format="1">
  <advance width="788"/>
  <outline>
    <contour>
      <point x="531" y="297" type="line"/>
      <point x="531" y="255" type="line" smooth="yes"/>
      <point x="531" y="210"/>
      <point x="526" y="205"/>
      <point x="482" y="205" type="curve" smooth="yes"/>
      <point x="286" y="205" type="line"/>
      <point x="299" y="242"/>
      <point x="351" y="285"/>
      <point x="423" y="317" type="curve" smooth="yes"/>
      <point x="518" y="362"/>
      <point x="554" y="402"/>
      <point x="554" y="466" type="curve" smooth="yes"/>
      <point x="554" y="545"/>
      <point x="489" y="595"/>
      <point x="388" y="595" type="curve" smooth="yes"/>
      <point x="306" y="595"/>
      <point x="247" y="553"/>
      <point x="247" y="496" type="curve" smooth="yes"/>
      <point x="247" y="464"/>
      <point x="268" y="441"/>
      <point x="296" y="441" type="curve" smooth="yes"/>
      <point x="323" y="441"/>
      <point x="345" y="462"/>
      <point x="345" y="488" type="curve" smooth="yes"/>
      <point x="345" y="494"/>
      <point x="344" y="499"/>
      <point x="342" y="504" type="curve"/>
      <point x="333" y="523"/>
      <point x="333" y="523"/>
      <point x="333" y="525" type="curve" smooth="yes"/>
      <point x="333" y="542"/>
      <point x="362" y="562"/>
      <point x="386" y="562" type="curve" smooth="yes"/>
      <point x="423" y="562"/>
      <point x="448" y="528"/>
      <point x="448" y="477" type="curve" smooth="yes"/>
      <point x="448" y="417"/>
      <point x="419" y="375"/>
      <point x="331" y="309" type="curve" smooth="yes"/>
      <point x="261" y="256"/>
      <point x="226" y="201"/>
      <point x="226" y="144" type="curve" smooth="yes"/>
      <point x="226" y="137"/>
      <point x="226" y="129"/>
      <point x="227" y="118" type="curve"/>
      <point x="564" y="118" type="line"/>
      <point x="564" y="297" type="line"/>
    </contour>
    <contour>
      <point x="400" y="706" type="curve" smooth="yes"/>
      <point x="197" y="706"/>
      <point x="35" y="547"/>
      <point x="35" y="349" type="curve" smooth="yes"/>
      <point x="35" y="148"/>
      <point x="195" y="-13"/>
      <point x="395" y="-13" type="curve" smooth="yes"/>
      <point x="593" y="-13"/>
      <point x="754" y="148"/>
      <point x="754" y="347" type="curve" smooth="yes"/>
      <point x="754" y="542"/>
      <point x="593" y="706"/>
    </contour>
    <contour>
      <point x="400" y="673" type="curve" smooth="yes"/>
      <point x="474" y="673"/>
      <point x="556" y="641"/>
      <point x="613" y="589" type="curve" smooth="yes"/>
      <point x="684" y="524"/>
      <point x="721" y="440"/>
      <point x="721" y="346" type="curve" smooth="yes"/>
      <point x="721" y="166"/>
      <point x="575" y="19"/>
      <point x="395" y="19" type="curve" smooth="yes"/>
      <point x="213" y="19"/>
      <point x="68" y="166"/>
      <point x="68" y="349" type="curve" smooth="yes"/>
      <point x="68" y="427"/>
      <point x="98" y="505"/>
      <point x="152" y="565" type="curve" smooth="yes"/>
      <point x="217" y="637"/>
      <point x="300" y="673"/>
    </contour>
  </outline>
</glyph>
<glyph name="a122" format="1">
  <advance width="788"/>
  <outline>
    <contour>
      <point x="321" y="355" type="line"/>
      <point x="346" y="361"/>
      <point x="358" y="362"/>
      <point x="372" y="362" type="curve" smooth="yes"/>
      <point x="432" y="362"/>
      <point x="470" y="326"/>
      <point x="470" y="268" type="curve" smooth="yes"/>
      <point x="470" y="204"/>
      <point x="425" y="151"/>
      <point x="371" y="151" type="curve" smooth="yes"/>
      <point x="340" y="151"/>
      <point x="318" y="165"/>
      <point x="318" y="183" type="curve" smooth="yes"/>
      <point x="318" y="187"/>
      <point x="319" y="190"/>
      <point x="320" y="193" type="curve" smooth="yes"/>
      <point x="326" y="209"/>
      <point x="326" y="209"/>
      <point x="326" y="218" type="curve" smooth="yes"/>
      <point x="326" y="247"/>
      <point x="305" y="267"/>
      <point x="274" y="267" type="curve" smooth="yes"/>
      <point x="242" y="267"/>
      <point x="221" y="246"/>
      <point x="221" y="215" type="curve" smooth="yes"/>
      <point x="221" y="155"/>
      <point x="287" y="111"/>
      <point x="377" y="111" type="curve" smooth="yes"/>
      <point x="490" y="111"/>
      <point x="572" y="173"/>
      <point x="572" y="260" type="curve" smooth="yes"/>
      <point x="572" y="299"/>
      <point x="555" y="332"/>
      <point x="525" y="353" type="curve" smooth="yes"/>
      <point x="509" y="364"/>
      <point x="469" y="378"/>
      <point x="447" y="380" type="curve"/>
      <point x="439" y="380"/>
      <point x="436" y="382"/>
      <point x="436" y="385" type="curve" smooth="yes"/>
      <point x="436" y="388"/>
      <point x="439" y="389"/>
      <point x="455" y="394" type="curve" smooth="yes"/>
      <point x="509" y="409"/>
      <point x="538" y="444"/>
      <point x="538" y="492" type="curve" smooth="yes"/>
      <point x="538" y="558"/>
      <point x="485" y="596"/>
      <point x="393" y="596" type="curve" smooth="yes"/>
      <point x="304" y="596"/>
      <point x="242" y="560"/>
      <point x="242" y="508" type="curve" smooth="yes"/>
      <point x="242" y="482"/>
      <point x="262" y="462"/>
      <point x="287" y="462" type="curve" smooth="yes"/>
      <point x="312" y="462"/>
      <point x="335" y="484"/>
      <point x="335" y="509" type="curve" smooth="yes"/>
      <point x="335" y="514"/>
      <point x="333" y="523"/>
      <point x="332" y="526" type="curve"/>
      <point x="328" y="533"/>
      <point x="328" y="533"/>
      <point x="328" y="534" type="curve" smooth="yes"/>
      <point x="328" y="549"/>
      <point x="353" y="563"/>
      <point x="377" y="563" type="curve" smooth="yes"/>
      <point x="419" y="563"/>
      <point x="447" y="533"/>
      <point x="447" y="488" type="curve" smooth="yes"/>
      <point x="447" y="454"/>
      <point x="435" y="428"/>
      <point x="413" y="412" type="curve" smooth="yes"/>
      <point x="394" y="399"/>
      <point x="368" y="390"/>
      <point x="345" y="390" type="curve" smooth="yes"/>
      <point x="338" y="390"/>
      <point x="331" y="390"/>
      <point x="321" y="391" type="curve"/>
    </contour>
    <contour>
      <point x="400" y="706" type="curve" smooth="yes"/>
      <point x="198" y="706"/>
      <point x="35" y="547"/>
      <point x="35" y="349" type="curve" smooth="yes"/>
      <point x="35" y="148"/>
      <point x="195" y="-13"/>
      <point x="395" y="-13" type="curve" smooth="yes"/>
      <point x="593" y="-13"/>
      <point x="754" y="148"/>
      <point x="754" y="347" type="curve" smooth="yes"/>
      <point x="754" y="542"/>
      <point x="593" y="706"/>
    </contour>
    <contour>
      <point x="400" y="673" type="curve" smooth="yes"/>
      <point x="474" y="673"/>
      <point x="556" y="641"/>
      <point x="613" y="589" type="curve" smooth="yes"/>
      <point x="684" y="524"/>
      <point x="721" y="440"/>
      <point x="721" y="347" type="curve" smooth="yes"/>
      <point x="721" y="166"/>
      <point x="575" y="20"/>
      <point x="394" y="20" type="curve" smooth="yes"/>
      <point x="213" y="20"/>
      <point x="68" y="166"/>
      <point x="68" y="349" type="curve" smooth="yes"/>
      <point x="68" y="427"/>
      <point x="98" y="506"/>
      <point x="152" y="565" type="curve" smooth="yes"/>
      <point x="217" y="637"/>
      <point x="300" y="673"/>
    </contour>
  </outline>
</glyph>
<glyph name="a123" format="1">
  <advance width="788"/>
  <outline>
    <contour>
      <point x="459" y="588" type="line"/>
      <point x="393" y="588" type="line"/>
      <point x="180" y="267" type="line"/>
      <point x="180" y="239" type="line"/>
      <point x="373" y="239" type="line"/>
      <point x="373" y="200" type="line" smooth="yes"/>
      <point x="373" y="162"/>
      <point x="364" y="151"/>
      <point x="334" y="151" type="curve" smooth="yes"/>
      <point x="287" y="151" type="line"/>
      <point x="287" y="118" type="line"/>
      <point x="528" y="118" type="line"/>
      <point x="528" y="151" type="line"/>
      <point x="496" y="151" type="line" smooth="yes"/>
      <point x="484" y="151"/>
      <point x="469" y="156"/>
      <point x="464" y="162" type="curve"/>
      <point x="461" y="167"/>
      <point x="459" y="176"/>
      <point x="459" y="194" type="curve" smooth="yes"/>
      <point x="459" y="239" type="line"/>
      <point x="570" y="239" type="line"/>
      <point x="570" y="284" type="line"/>
      <point x="459" y="284" type="line"/>
    </contour>
    <contour>
      <point x="373" y="494" type="line"/>
      <point x="373" y="284" type="line"/>
      <point x="238" y="284" type="line"/>
    </contour>
    <contour>
      <point x="400" y="705" type="curve" smooth="yes"/>
      <point x="197" y="705"/>
      <point x="35" y="546"/>
      <point x="35" y="348" type="curve" smooth="yes"/>
      <point x="35" y="147"/>
      <point x="195" y="-14"/>
      <point x="395" y="-14" type="curve" smooth="yes"/>
      <point x="593" y="-14"/>
      <point x="754" y="147"/>
      <point x="754" y="346" type="curve" smooth="yes"/>
      <point x="754" y="541"/>
      <point x="593" y="705"/>
    </contour>
    <contour>
      <point x="400" y="672" type="curve" smooth="yes"/>
      <point x="474" y="672"/>
      <point x="556" y="640"/>
      <point x="613" y="588" type="curve" smooth="yes"/>
      <point x="684" y="523"/>
      <point x="721" y="439"/>
      <point x="721" y="346" type="curve" smooth="yes"/>
      <point x="721" y="165"/>
      <point x="575" y="19"/>
      <point x="395" y="19" type="curve" smooth="yes"/>
      <point x="213" y="19"/>
      <point x="68" y="165"/>
      <point x="68" y="348" type="curve" smooth="yes"/>
      <point x="68" y="427"/>
      <point x="98" y="505"/>
      <point x="152" y="564" type="curve" smooth="yes"/>
      <point x="217" y="636"/>
      <point x="300" y="672"/>
    </contour>
  </outline>
</glyph>
<glyph name="a124" format="1">
  <advance width="788"/>
  <outline>
    <contour>
      <point x="286" y="315" type="line"/>
      <point x="313" y="350"/>
      <point x="338" y="365"/>
      <point x="367" y="365" type="curve" smooth="yes"/>
      <point x="413" y="365"/>
      <point x="447" y="321"/>
      <point x="447" y="261" type="curve" smooth="yes"/>
      <point x="447" y="196"/>
      <point x="404" y="144"/>
      <point x="351" y="144" type="curve" smooth="yes"/>
      <point x="323" y="144"/>
      <point x="300" y="158"/>
      <point x="300" y="176" type="curve" smooth="yes"/>
      <point x="300" y="181"/>
      <point x="300" y="181"/>
      <point x="307" y="196" type="curve" smooth="yes"/>
      <point x="311" y="204"/>
      <point x="313" y="212"/>
      <point x="313" y="219" type="curve" smooth="yes"/>
      <point x="313" y="243"/>
      <point x="289" y="263"/>
      <point x="261" y="263" type="curve" smooth="yes"/>
      <point x="231" y="263"/>
      <point x="209" y="241"/>
      <point x="209" y="209" type="curve" smooth="yes"/>
      <point x="209" y="153"/>
      <point x="274" y="111"/>
      <point x="360" y="111" type="curve" smooth="yes"/>
      <point x="473" y="111"/>
      <point x="559" y="178"/>
      <point x="559" y="266" type="curve" smooth="yes"/>
      <point x="559" y="347"/>
      <point x="492" y="406"/>
      <point x="400" y="406" type="curve" smooth="yes"/>
      <point x="353" y="406"/>
      <point x="317" y="394"/>
      <point x="286" y="370" type="curve"/>
      <point x="297" y="491" type="line"/>
      <point x="331" y="488"/>
      <point x="348" y="487"/>
      <point x="380" y="487" type="curve" smooth="yes"/>
      <point x="464" y="487"/>
      <point x="488" y="490"/>
      <point x="509" y="505" type="curve" smooth="yes"/>
      <point x="528" y="519"/>
      <point x="543" y="548"/>
      <point x="553" y="592" type="curve"/>
      <point x="514" y="578"/>
      <point x="480" y="573"/>
      <point x="427" y="573" type="curve" smooth="yes"/>
      <point x="392" y="573"/>
      <point x="355" y="578"/>
      <point x="270" y="592" type="curve"/>
      <point x="267" y="540"/>
      <point x="256" y="421"/>
      <point x="245" y="332" type="curve"/>
    </contour>
    <contour>
      <point x="400" y="706" type="curve" smooth="yes"/>
      <point x="198" y="706"/>
      <point x="35" y="547"/>
      <point x="35" y="349" type="curve" smooth="yes"/>
      <point x="35" y="148"/>
      <point x="195" y="-13"/>
      <point x="395" y="-13" type="curve" smooth="yes"/>
      <point x="593" y="-13"/>
      <point x="754" y="148"/>
      <point x="754" y="347" type="curve" smooth="yes"/>
      <point x="754" y="542"/>
      <point x="593" y="706"/>
    </contour>
    <contour>
      <point x="400" y="673" type="curve" smooth="yes"/>
      <point x="474" y="673"/>
      <point x="556" y="641"/>
      <point x="613" y="589" type="curve" smooth="yes"/>
      <point x="684" y="524"/>
      <point x="721" y="441"/>
      <point x="721" y="347" type="curve" smooth="yes"/>
      <point x="721" y="166"/>
      <point x="575" y="20"/>
      <point x="395" y="20" type="curve" smooth="yes"/>
      <point x="213" y="20"/>
      <point x="68" y="166"/>
      <point x="68" y="349" type="curve" smooth="yes"/>
      <point x="68" y="428"/>
      <point x="98" y="506"/>
      <point x="152" y="565" type="curve" smooth="yes"/>
      <point x="217" y="637"/>
      <point x="300" y="673"/>
    </contour>
  </outline>
</glyph>
<glyph name="a125" format="1">
  <advance width="788"/>
  <outline>
    <contour>
      <point x="302" y="375" type="line" smooth="yes"/>
      <point x="302" y="445"/>
      <point x="324" y="513"/>
      <point x="357" y="545" type="curve" smooth="yes"/>
      <point x="368" y="555"/>
      <point x="389" y="562"/>
      <point x="408" y="562" type="curve" smooth="yes"/>
      <point x="437" y="562"/>
      <point x="459" y="547"/>
      <point x="459" y="529" type="curve" smooth="yes"/>
      <point x="459" y="525"/>
      <point x="458" y="522"/>
      <point x="457" y="517" type="curve"/>
      <point x="454" y="506"/>
      <point x="453" y="497"/>
      <point x="453" y="490" type="curve" smooth="yes"/>
      <point x="453" y="469"/>
      <point x="475" y="449"/>
      <point x="499" y="449" type="curve" smooth="yes"/>
      <point x="526" y="449"/>
      <point x="546" y="472"/>
      <point x="546" y="503" type="curve" smooth="yes"/>
      <point x="546" y="556"/>
      <point x="484" y="595"/>
      <point x="399" y="595" type="curve" smooth="yes"/>
      <point x="342" y="595"/>
      <point x="297" y="577"/>
      <point x="266" y="541" type="curve" smooth="yes"/>
      <point x="224" y="493"/>
      <point x="198" y="419"/>
      <point x="198" y="344" type="curve" smooth="yes"/>
      <point x="198" y="280"/>
      <point x="216" y="222"/>
      <point x="249" y="178" type="curve" smooth="yes"/>
      <point x="282" y="134"/>
      <point x="331" y="111"/>
      <point x="394" y="111" type="curve" smooth="yes"/>
      <point x="498" y="111"/>
      <point x="574" y="181"/>
      <point x="574" y="275" type="curve" smooth="yes"/>
      <point x="574" y="352"/>
      <point x="516" y="409"/>
      <point x="437" y="409" type="curve" smooth="yes"/>
      <point x="382" y="409"/>
      <point x="337" y="384"/>
      <point x="303" y="334" type="curve"/>
    </contour>
    <contour>
      <point x="401" y="363" type="curve" smooth="yes"/>
      <point x="450" y="363"/>
      <point x="483" y="319"/>
      <point x="483" y="251" type="curve" smooth="yes"/>
      <point x="483" y="188"/>
      <point x="447" y="143"/>
      <point x="395" y="143" type="curve" smooth="yes"/>
      <point x="342" y="143"/>
      <point x="305" y="189"/>
      <point x="305" y="253" type="curve" smooth="yes"/>
      <point x="305" y="316"/>
      <point x="346" y="363"/>
    </contour>
    <contour>
      <point x="400" y="706" type="curve" smooth="yes"/>
      <point x="197" y="706"/>
      <point x="35" y="547"/>
      <point x="35" y="349" type="curve" smooth="yes"/>
      <point x="35" y="148"/>
      <point x="195" y="-13"/>
      <point x="394" y="-13" type="curve" smooth="yes"/>
      <point x="593" y="-13"/>
      <point x="754" y="148"/>
      <point x="754" y="347" type="curve" smooth="yes"/>
      <point x="754" y="542"/>
      <point x="593" y="706"/>
    </contour>
    <contour>
      <point x="400" y="673" type="curve" smooth="yes"/>
      <point x="474" y="673"/>
      <point x="556" y="641"/>
      <point x="613" y="589" type="curve" smooth="yes"/>
      <point x="684" y="524"/>
      <point x="721" y="440"/>
      <point x="721" y="347" type="curve" smooth="yes"/>
      <point x="721" y="166"/>
      <point x="575" y="20"/>
      <point x="394" y="20" type="curve" smooth="yes"/>
      <point x="213" y="20"/>
      <point x="68" y="166"/>
      <point x="68" y="349" type="curve" smooth="yes"/>
      <point x="68" y="427"/>
      <point x="98" y="506"/>
      <point x="152" y="565" type="curve" smooth="yes"/>
      <point x="217" y="637"/>
      <point x="300" y="673"/>
    </contour>
  </outline>
</glyph>
<glyph name="a126" format="1">
  <advance width="788"/>
  <outline>
    <contour>
      <point x="219" y="585" type="line"/>
      <point x="219" y="418" type="line"/>
      <point x="248" y="418" type="line"/>
      <point x="257" y="452" type="line" smooth="yes"/>
      <point x="269" y="497"/>
      <point x="270" y="498"/>
      <point x="303" y="499" type="curve" smooth="yes"/>
      <point x="485" y="499" type="line"/>
      <point x="413" y="398" type="line" smooth="yes"/>
      <point x="400" y="380"/>
      <point x="385" y="361"/>
      <point x="372" y="345" type="curve" smooth="yes"/>
      <point x="319" y="277"/>
      <point x="292" y="220"/>
      <point x="292" y="174" type="curve" smooth="yes"/>
      <point x="292" y="137"/>
      <point x="318" y="110"/>
      <point x="353" y="110" type="curve" smooth="yes"/>
      <point x="388" y="110"/>
      <point x="413" y="133"/>
      <point x="413" y="167" type="curve" smooth="yes"/>
      <point x="413" y="172"/>
      <point x="412" y="178"/>
      <point x="411" y="183" type="curve" smooth="yes"/>
      <point x="400" y="227"/>
      <point x="400" y="227"/>
      <point x="400" y="240" type="curve" smooth="yes"/>
      <point x="400" y="260"/>
      <point x="405" y="284"/>
      <point x="416" y="312" type="curve" smooth="yes"/>
      <point x="425" y="333"/>
      <point x="430" y="342"/>
      <point x="476" y="419" type="curve" smooth="yes"/>
      <point x="510" y="477"/>
      <point x="541" y="528"/>
      <point x="569" y="573" type="curve"/>
      <point x="569" y="574"/>
      <point x="572" y="578"/>
      <point x="575" y="585" type="curve"/>
    </contour>
    <contour>
      <point x="400" y="706" type="curve" smooth="yes"/>
      <point x="198" y="706"/>
      <point x="35" y="547"/>
      <point x="35" y="349" type="curve" smooth="yes"/>
      <point x="35" y="148"/>
      <point x="195" y="-13"/>
      <point x="395" y="-13" type="curve" smooth="yes"/>
      <point x="593" y="-13"/>
      <point x="754" y="148"/>
      <point x="754" y="347" type="curve" smooth="yes"/>
      <point x="754" y="542"/>
      <point x="593" y="706"/>
    </contour>
    <contour>
      <point x="400" y="673" type="curve" smooth="yes"/>
      <point x="474" y="673"/>
      <point x="556" y="641"/>
      <point x="613" y="589" type="curve" smooth="yes"/>
      <point x="684" y="524"/>
      <point x="721" y="440"/>
      <point x="721" y="347" type="curve" smooth="yes"/>
      <point x="721" y="166"/>
      <point x="575" y="20"/>
      <point x="394" y="20" type="curve" smooth="yes"/>
      <point x="213" y="20"/>
      <point x="68" y="166"/>
      <point x="68" y="349" type="curve" smooth="yes"/>
      <point x="68" y="427"/>
      <point x="98" y="505"/>
      <point x="152" y="565" type="curve" smooth="yes"/>
      <point x="217" y="637"/>
      <point x="300" y="673"/>
    </contour>
  </outline>
</glyph>
<glyph name="a127" format="1">
  <advance width="788"/>
  <outline>
    <contour>
      <point x="458" y="400" type="curve"/>
      <point x="512" y="435"/>
      <point x="530" y="460"/>
      <point x="530" y="499" type="curve" smooth="yes"/>
      <point x="530" y="555"/>
      <point x="476" y="595"/>
      <point x="402" y="595" type="curve" smooth="yes"/>
      <point x="317" y="595"/>
      <point x="256" y="544"/>
      <point x="256" y="472" type="curve" smooth="yes"/>
      <point x="256" y="428"/>
      <point x="273" y="403"/>
      <point x="324" y="369" type="curve"/>
      <point x="249" y="326"/>
      <point x="224" y="293"/>
      <point x="224" y="237" type="curve" smooth="yes"/>
      <point x="224" y="161"/>
      <point x="289" y="111"/>
      <point x="387" y="111" type="curve" smooth="yes"/>
      <point x="491" y="111"/>
      <point x="566" y="174"/>
      <point x="566" y="262" type="curve" smooth="yes"/>
      <point x="566" y="322"/>
      <point x="535" y="362"/>
    </contour>
    <contour>
      <point x="382" y="439" type="line" smooth="yes"/>
      <point x="347" y="458"/>
      <point x="332" y="477"/>
      <point x="332" y="502" type="curve" smooth="yes"/>
      <point x="332" y="536"/>
      <point x="362" y="562"/>
      <point x="401" y="562" type="curve" smooth="yes"/>
      <point x="444" y="562"/>
      <point x="474" y="534"/>
      <point x="474" y="494" type="curve" smooth="yes"/>
      <point x="474" y="462"/>
      <point x="458" y="437"/>
      <point x="424" y="416" type="curve"/>
    </contour>
    <contour>
      <point x="415" y="317" type="line" smooth="yes"/>
      <point x="460" y="292"/>
      <point x="479" y="266"/>
      <point x="479" y="230" type="curve" smooth="yes"/>
      <point x="479" y="181"/>
      <point x="438" y="144"/>
      <point x="385" y="144" type="curve" smooth="yes"/>
      <point x="330" y="144"/>
      <point x="289" y="185"/>
      <point x="289" y="241" type="curve" smooth="yes"/>
      <point x="289" y="285"/>
      <point x="313" y="324"/>
      <point x="357" y="350" type="curve"/>
    </contour>
    <contour>
      <point x="400" y="706" type="curve" smooth="yes"/>
      <point x="198" y="706"/>
      <point x="35" y="547"/>
      <point x="35" y="349" type="curve" smooth="yes"/>
      <point x="35" y="148"/>
      <point x="195" y="-13"/>
      <point x="395" y="-13" type="curve" smooth="yes"/>
      <point x="593" y="-13"/>
      <point x="754" y="148"/>
      <point x="754" y="347" type="curve" smooth="yes"/>
      <point x="754" y="542"/>
      <point x="593" y="706"/>
    </contour>
    <contour>
      <point x="400" y="673" type="curve" smooth="yes"/>
      <point x="474" y="673"/>
      <point x="556" y="641"/>
      <point x="613" y="589" type="curve" smooth="yes"/>
      <point x="684" y="524"/>
      <point x="721" y="441"/>
      <point x="721" y="347" type="curve" smooth="yes"/>
      <point x="721" y="166"/>
      <point x="575" y="20"/>
      <point x="394" y="20" type="curve" smooth="yes"/>
      <point x="213" y="20"/>
      <point x="68" y="166"/>
      <point x="68" y="349" type="curve" smooth="yes"/>
      <point x="68" y="427"/>
      <point x="98" y="506"/>
      <point x="152" y="565" type="curve" smooth="yes"/>
      <point x="217" y="637"/>
      <point x="300" y="673"/>
    </contour>
  </outline>
</glyph>
<glyph name="a128" format="1">
  <advance width="788"/>
  <outline>
    <contour>
      <point x="485" y="372" type="curve"/>
      <point x="487" y="350"/>
      <point x="487" y="339"/>
      <point x="487" y="331" type="curve" smooth="yes"/>
      <point x="487" y="262"/>
      <point x="464" y="193"/>
      <point x="431" y="161" type="curve" smooth="yes"/>
      <point x="420" y="151"/>
      <point x="400" y="144"/>
      <point x="380" y="144" type="curve" smooth="yes"/>
      <point x="352" y="144"/>
      <point x="329" y="159"/>
      <point x="329" y="177" type="curve" smooth="yes"/>
      <point x="329" y="180"/>
      <point x="330" y="184"/>
      <point x="331" y="189" type="curve"/>
      <point x="334" y="200"/>
      <point x="336" y="209"/>
      <point x="336" y="216" type="curve" smooth="yes"/>
      <point x="336" y="237"/>
      <point x="314" y="257"/>
      <point x="290" y="257" type="curve" smooth="yes"/>
      <point x="262" y="257"/>
      <point x="242" y="234"/>
      <point x="242" y="203" type="curve" smooth="yes"/>
      <point x="242" y="150"/>
      <point x="304" y="111"/>
      <point x="390" y="111" type="curve" smooth="yes"/>
      <point x="446" y="111"/>
      <point x="491" y="129"/>
      <point x="523" y="165" type="curve" smooth="yes"/>
      <point x="565" y="213"/>
      <point x="591" y="287"/>
      <point x="591" y="362" type="curve" smooth="yes"/>
      <point x="591" y="426"/>
      <point x="573" y="484"/>
      <point x="540" y="528" type="curve" smooth="yes"/>
      <point x="506" y="572"/>
      <point x="457" y="595"/>
      <point x="395" y="595" type="curve" smooth="yes"/>
      <point x="291" y="595"/>
      <point x="214" y="525"/>
      <point x="214" y="431" type="curve" smooth="yes"/>
      <point x="214" y="354"/>
      <point x="272" y="297"/>
      <point x="351" y="297" type="curve" smooth="yes"/>
      <point x="407" y="297"/>
      <point x="452" y="322"/>
    </contour>
    <contour>
      <point x="393" y="562" type="curve" smooth="yes"/>
      <point x="446" y="562"/>
      <point x="484" y="516"/>
      <point x="484" y="452" type="curve" smooth="yes"/>
      <point x="484" y="390"/>
      <point x="442" y="342"/>
      <point x="388" y="342" type="curve" smooth="yes"/>
      <point x="338" y="342"/>
      <point x="305" y="386"/>
      <point x="305" y="454" type="curve" smooth="yes"/>
      <point x="305" y="517"/>
      <point x="342" y="562"/>
    </contour>
    <contour>
      <point x="400" y="706" type="curve" smooth="yes"/>
      <point x="198" y="706"/>
      <point x="35" y="547"/>
      <point x="35" y="349" type="curve" smooth="yes"/>
      <point x="35" y="148"/>
      <point x="195" y="-13"/>
      <point x="395" y="-13" type="curve" smooth="yes"/>
      <point x="593" y="-13"/>
      <point x="754" y="148"/>
      <point x="754" y="347" type="curve" smooth="yes"/>
      <point x="754" y="542"/>
      <point x="593" y="706"/>
    </contour>
    <contour>
      <point x="400" y="673" type="curve" smooth="yes"/>
      <point x="474" y="673"/>
      <point x="556" y="641"/>
      <point x="613" y="589" type="curve" smooth="yes"/>
      <point x="684" y="524"/>
      <point x="721" y="441"/>
      <point x="721" y="347" type="curve" smooth="yes"/>
      <point x="721" y="166"/>
      <point x="575" y="20"/>
      <point x="395" y="20" type="curve" smooth="yes"/>
      <point x="213" y="20"/>
      <point x="68" y="166"/>
      <point x="68" y="349" type="curve" smooth="yes"/>
      <point x="68" y="428"/>
      <point x="98" y="506"/>
      <point x="152" y="565" type="curve" smooth="yes"/>
      <point x="217" y="637"/>
      <point x="300" y="673"/>
    </contour>
  </outline>
</glyph>
<glyph name="a129" format="1">
  <advance width="788"/>
  <outline>
    <contour>
      <point x="318" y="589" type="line"/>
      <point x="284" y="589" type="line"/>
      <point x="260" y="549"/>
      <point x="221" y="530"/>
      <point x="152" y="525" type="curve"/>
      <point x="152" y="499" type="line"/>
      <point x="203" y="499" type="line" smooth="yes"/>
      <point x="233" y="499"/>
      <point x="235" y="497"/>
      <point x="236" y="458" type="curve" smooth="yes"/>
      <point x="236" y="193" type="line" smooth="yes"/>
      <point x="236" y="158"/>
      <point x="232" y="153"/>
      <point x="203" y="153" type="curve" smooth="yes"/>
      <point x="178" y="153" type="line"/>
      <point x="178" y="118" type="line"/>
      <point x="376" y="118" type="line"/>
      <point x="376" y="153" type="line"/>
      <point x="357" y="153" type="line" smooth="yes"/>
      <point x="326" y="153"/>
      <point x="318" y="162"/>
      <point x="318" y="200" type="curve" smooth="yes"/>
    </contour>
    <contour>
      <point x="505" y="595" type="curve" smooth="yes"/>
      <point x="412" y="595"/>
      <point x="361" y="509"/>
      <point x="361" y="353" type="curve" smooth="yes"/>
      <point x="361" y="250"/>
      <point x="382" y="178"/>
      <point x="423" y="138" type="curve" smooth="yes"/>
      <point x="441" y="122"/>
      <point x="472" y="111"/>
      <point x="505" y="111" type="curve" smooth="yes"/>
      <point x="560" y="111"/>
      <point x="596" y="129"/>
      <point x="619" y="166" type="curve" smooth="yes"/>
      <point x="643" y="206"/>
      <point x="656" y="269"/>
      <point x="656" y="344" type="curve" smooth="yes"/>
      <point x="656" y="513"/>
      <point x="607" y="595"/>
    </contour>
    <contour>
      <point x="509" y="562" type="curve" smooth="yes"/>
      <point x="543" y="562"/>
      <point x="560" y="493"/>
      <point x="560" y="354" type="curve" smooth="yes"/>
      <point x="560" y="215"/>
      <point x="543" y="147"/>
      <point x="508" y="147" type="curve" smooth="yes"/>
      <point x="475" y="147"/>
      <point x="457" y="220"/>
      <point x="457" y="355" type="curve" smooth="yes"/>
      <point x="457" y="491"/>
      <point x="475" y="562"/>
    </contour>
    <contour>
      <point x="400" y="706" type="curve" smooth="yes"/>
      <point x="198" y="706"/>
      <point x="35" y="547"/>
      <point x="35" y="349" type="curve" smooth="yes"/>
      <point x="35" y="148"/>
      <point x="195" y="-13"/>
      <point x="395" y="-13" type="curve" smooth="yes"/>
      <point x="593" y="-13"/>
      <point x="754" y="148"/>
      <point x="754" y="347" type="curve" smooth="yes"/>
      <point x="754" y="542"/>
      <point x="593" y="706"/>
    </contour>
    <contour>
      <point x="400" y="673" type="curve" smooth="yes"/>
      <point x="474" y="673"/>
      <point x="556" y="641"/>
      <point x="613" y="589" type="curve" smooth="yes"/>
      <point x="684" y="524"/>
      <point x="721" y="441"/>
      <point x="721" y="347" type="curve" smooth="yes"/>
      <point x="721" y="166"/>
      <point x="575" y="20"/>
      <point x="395" y="20" type="curve" smooth="yes"/>
      <point x="213" y="20"/>
      <point x="68" y="166"/>
      <point x="68" y="349" type="curve" smooth="yes"/>
      <point x="68" y="428"/>
      <point x="98" y="506"/>
      <point x="152" y="565" type="curve" smooth="yes"/>
      <point x="217" y="637"/>
      <point x="300" y="673"/>
    </contour>
  </outline>
</glyph>
<glyph name="a13" format="1">
  <advance width="549"/>
  <outline>
    <contour>
      <point x="93" y="292" type="line"/>
      <point x="85" y="293"/>
      <point x="73" y="289"/>
      <point x="62" y="282" type="curve" smooth="yes"/>
      <point x="40" y="269"/>
      <point x="29" y="248"/>
      <point x="29" y="223" type="curve" smooth="yes"/>
      <point x="29" y="179"/>
      <point x="50" y="118"/>
      <point x="82" y="72" type="curve" smooth="yes"/>
      <point x="119" y="19"/>
      <point x="182" y="-10"/>
      <point x="261" y="-10" type="curve" smooth="yes"/>
      <point x="338" y="-10"/>
      <point x="422" y="32"/>
      <point x="466" y="92" type="curve" smooth="yes"/>
      <point x="495" y="133"/>
      <point x="516" y="202"/>
      <point x="516" y="261" type="curve" smooth="yes"/>
      <point x="516" y="300"/>
      <point x="510" y="336"/>
      <point x="497" y="366" type="curve" smooth="yes"/>
      <point x="490" y="384"/>
      <point x="483" y="389"/>
      <point x="458" y="395" type="curve" smooth="yes"/>
      <point x="454" y="396"/>
      <point x="445" y="399"/>
      <point x="435" y="402" type="curve"/>
      <point x="488" y="551"/>
      <point x="500" y="593"/>
      <point x="500" y="631" type="curve" smooth="yes"/>
      <point x="500" y="665"/>
      <point x="478" y="692"/>
      <point x="450" y="692" type="curve" smooth="yes"/>
      <point x="440" y="692"/>
      <point x="429" y="687"/>
      <point x="420" y="680" type="curve" smooth="yes"/>
      <point x="395" y="659"/>
      <point x="381" y="634"/>
      <point x="355" y="562" type="curve" smooth="yes"/>
      <point x="349" y="546"/>
      <point x="332" y="500"/>
      <point x="312" y="449" type="curve"/>
      <point x="300" y="478"/>
      <point x="292" y="499"/>
      <point x="278" y="542" type="curve" smooth="yes"/>
      <point x="237" y="665"/>
      <point x="212" y="706"/>
      <point x="177" y="706" type="curve" smooth="yes"/>
      <point x="147" y="706"/>
      <point x="118" y="676"/>
      <point x="118" y="645" type="curve" smooth="yes"/>
      <point x="118" y="625"/>
      <point x="136" y="557"/>
      <point x="155" y="505" type="curve" smooth="yes"/>
      <point x="173" y="458"/>
      <point x="184" y="427"/>
      <point x="187" y="417" type="curve"/>
      <point x="187" y="416"/>
      <point x="189" y="410"/>
      <point x="191" y="402" type="curve"/>
      <point x="176" y="409"/>
      <point x="164" y="412"/>
      <point x="156" y="412" type="curve" smooth="yes"/>
      <point x="127" y="412"/>
      <point x="86" y="372"/>
      <point x="86" y="343" type="curve" smooth="yes"/>
      <point x="86" y="329"/>
      <point x="89" y="311"/>
      <point x="94" y="292" type="curve"/>
    </contour>
    <contour>
      <point x="435" y="366" type="line" smooth="yes"/>
      <point x="441" y="365"/>
      <point x="449" y="362"/>
      <point x="457" y="356" type="curve" smooth="yes"/>
      <point x="476" y="342"/>
      <point x="485" y="316"/>
      <point x="485" y="275" type="curve" smooth="yes"/>
      <point x="485" y="129"/>
      <point x="390" y="27"/>
      <point x="255" y="27" type="curve" smooth="yes"/>
      <point x="206" y="27"/>
      <point x="158" y="41"/>
      <point x="134" y="61" type="curve" smooth="yes"/>
      <point x="122" y="72"/>
      <point x="87" y="125"/>
      <point x="81" y="142" type="curve" smooth="yes"/>
      <point x="58" y="213"/>
      <point x="58" y="213"/>
      <point x="58" y="218" type="curve" smooth="yes"/>
      <point x="58" y="236"/>
      <point x="84" y="262"/>
      <point x="102" y="262" type="curve" smooth="yes"/>
      <point x="118" y="262"/>
      <point x="123" y="257"/>
      <point x="157" y="205" type="curve" smooth="yes"/>
      <point x="194" y="151"/>
      <point x="194" y="151"/>
      <point x="194" y="145" type="curve" smooth="yes"/>
      <point x="194" y="135"/>
      <point x="177" y="123"/>
      <point x="163" y="123" type="curve" smooth="yes"/>
      <point x="141" y="123"/>
      <point x="99" y="165"/>
      <point x="86" y="199" type="curve"/>
      <point x="78" y="199" type="line"/>
      <point x="78" y="177" type="line"/>
      <point x="91" y="152"/>
      <point x="104" y="132"/>
      <point x="114" y="123" type="curve" smooth="yes"/>
      <point x="134" y="105"/>
      <point x="160" y="93"/>
      <point x="178" y="93" type="curve" smooth="yes"/>
      <point x="187" y="93"/>
      <point x="202" y="99"/>
      <point x="211" y="106" type="curve" smooth="yes"/>
      <point x="221" y="114"/>
      <point x="225" y="122"/>
      <point x="225" y="138" type="curve" smooth="yes"/>
      <point x="225" y="142"/>
      <point x="225" y="149"/>
      <point x="224" y="156" type="curve"/>
      <point x="246" y="156" type="line"/>
      <point x="251" y="107"/>
      <point x="256" y="97"/>
      <point x="288" y="65" type="curve"/>
      <point x="298" y="74" type="line"/>
      <point x="297" y="80"/>
      <point x="296" y="85"/>
      <point x="295" y="86" type="curve"/>
      <point x="287" y="116"/>
      <point x="282" y="136"/>
      <point x="282" y="143" type="curve" smooth="yes"/>
      <point x="282" y="164"/>
      <point x="311" y="213"/>
      <point x="340" y="242" type="curve" smooth="yes"/>
      <point x="365" y="267"/>
      <point x="382" y="275"/>
      <point x="420" y="282" type="curve"/>
      <point x="420" y="309" type="line"/>
      <point x="410" y="309" type="line" smooth="yes"/>
      <point x="404" y="309"/>
      <point x="399" y="309"/>
      <point x="393" y="308" type="curve"/>
      <point x="368" y="306"/>
      <point x="353" y="304"/>
      <point x="352" y="304" type="curve" smooth="yes"/>
      <point x="338" y="304"/>
      <point x="289" y="317"/>
      <point x="273" y="324" type="curve"/>
      <point x="255" y="333"/>
      <point x="238" y="357"/>
      <point x="238" y="372" type="curve" smooth="yes"/>
      <point x="238" y="380"/>
      <point x="241" y="390"/>
      <point x="246" y="402" type="curve"/>
      <point x="264" y="396"/>
      <point x="276" y="393"/>
      <point x="280" y="392" type="curve"/>
    </contour>
    <contour>
      <point x="283" y="425" type="curve"/>
      <point x="268" y="428"/>
      <point x="257" y="429"/>
      <point x="249" y="429" type="curve" smooth="yes"/>
      <point x="243" y="429"/>
      <point x="232" y="428"/>
      <point x="219" y="425" type="curve"/>
      <point x="214" y="434"/>
      <point x="214" y="434"/>
      <point x="200" y="473" type="curve" smooth="yes"/>
      <point x="157" y="588"/>
      <point x="151" y="610"/>
      <point x="151" y="642" type="curve" smooth="yes"/>
      <point x="151" y="657"/>
      <point x="161" y="670"/>
      <point x="173" y="670" type="curve" smooth="yes"/>
      <point x="185" y="670"/>
      <point x="194" y="663"/>
      <point x="202" y="645" type="curve"/>
      <point x="215" y="622"/>
      <point x="255" y="510"/>
    </contour>
    <contour>
      <point x="340" y="425" type="line"/>
      <point x="418" y="649"/>
      <point x="422" y="659"/>
      <point x="446" y="659" type="curve" smooth="yes"/>
      <point x="457" y="659"/>
      <point x="468" y="647"/>
      <point x="468" y="634" type="curve" smooth="yes"/>
      <point x="468" y="612"/>
      <point x="428" y="482"/>
      <point x="400" y="413" type="curve"/>
    </contour>
    <contour>
      <point x="149" y="374" type="curve"/>
      <point x="170" y="369"/>
      <point x="179" y="363"/>
      <point x="188" y="349" type="curve" smooth="yes"/>
      <point x="228" y="286"/>
      <point x="259" y="225"/>
      <point x="259" y="210" type="curve" smooth="yes"/>
      <point x="259" y="200"/>
      <point x="248" y="190"/>
      <point x="236" y="190" type="curve" smooth="yes"/>
      <point x="224" y="190"/>
      <point x="206" y="201"/>
      <point x="193" y="215" type="curve" smooth="yes"/>
      <point x="156" y="257"/>
      <point x="119" y="317"/>
      <point x="119" y="338" type="curve" smooth="yes"/>
      <point x="119" y="348"/>
      <point x="127" y="358"/>
    </contour>
    <contour>
      <point x="286" y="235" type="line"/>
      <point x="263" y="290" type="line"/>
      <point x="289" y="282"/>
      <point x="300" y="280"/>
      <point x="331" y="277" type="curve"/>
    </contour>
  </outline>
</glyph>
<glyph name="a130" format="1">
  <advance width="788"/>
  <outline>
    <contour>
      <point x="400" y="706" type="curve" smooth="yes"/>
      <point x="198" y="706"/>
      <point x="35" y="547"/>
      <point x="35" y="349" type="curve" smooth="yes"/>
      <point x="35" y="148"/>
      <point x="195" y="-13"/>
      <point x="394" y="-13" type="curve" smooth="yes"/>
      <point x="593" y="-13"/>
      <point x="754" y="148"/>
      <point x="754" y="347" type="curve" smooth="yes"/>
      <point x="754" y="543"/>
      <point x="593" y="706"/>
    </contour>
    <contour>
      <point x="454" y="613" type="line"/>
      <point x="454" y="200" type="line" smooth="yes"/>
      <point x="454" y="146"/>
      <point x="469" y="128"/>
      <point x="512" y="128" type="curve" smooth="yes"/>
      <point x="552" y="128" type="line"/>
      <point x="552" y="93" type="line"/>
      <point x="260" y="93" type="line"/>
      <point x="260" y="128" type="line"/>
      <point x="290" y="128" type="line" smooth="yes"/>
      <point x="335" y="128"/>
      <point x="354" y="144"/>
      <point x="354" y="183" type="curve"/>
      <point x="353" y="200" type="line"/>
      <point x="353" y="464" type="line" smooth="yes"/>
      <point x="353" y="494"/>
      <point x="348" y="499"/>
      <point x="322" y="499" type="curve" smooth="yes"/>
      <point x="245" y="499" type="line"/>
      <point x="245" y="529" type="line"/>
      <point x="323" y="537"/>
      <point x="382" y="566"/>
      <point x="418" y="613" type="curve"/>
    </contour>
  </outline>
</glyph>
<glyph name="a131" format="1">
  <advance width="788"/>
  <outline>
    <contour>
      <point x="401" y="706" type="curve" smooth="yes"/>
      <point x="198" y="706"/>
      <point x="35" y="547"/>
      <point x="35" y="350" type="curve" smooth="yes"/>
      <point x="35" y="148"/>
      <point x="195" y="-13"/>
      <point x="395" y="-13" type="curve" smooth="yes"/>
      <point x="593" y="-13"/>
      <point x="754" y="148"/>
      <point x="754" y="347" type="curve" smooth="yes"/>
      <point x="754" y="542"/>
      <point x="593" y="706"/>
    </contour>
    <contour>
      <point x="546" y="294" type="line"/>
      <point x="583" y="294" type="line"/>
      <point x="583" y="93" type="line"/>
      <point x="210" y="93" type="line"/>
      <point x="209" y="105"/>
      <point x="209" y="114"/>
      <point x="209" y="120" type="curve" smooth="yes"/>
      <point x="209" y="187"/>
      <point x="246" y="247"/>
      <point x="324" y="305" type="curve" smooth="yes"/>
      <point x="385" y="350"/>
      <point x="397" y="361"/>
      <point x="420" y="392" type="curve" smooth="yes"/>
      <point x="442" y="420"/>
      <point x="454" y="455"/>
      <point x="454" y="488" type="curve" smooth="yes"/>
      <point x="454" y="543"/>
      <point x="427" y="580"/>
      <point x="387" y="580" type="curve" smooth="yes"/>
      <point x="360" y="580"/>
      <point x="329" y="559"/>
      <point x="329" y="541" type="curve" smooth="yes"/>
      <point x="329" y="539"/>
      <point x="330" y="537"/>
      <point x="331" y="534" type="curve"/>
      <point x="340" y="511"/>
      <point x="340" y="511"/>
      <point x="340" y="502" type="curve" smooth="yes"/>
      <point x="340" y="475"/>
      <point x="316" y="452"/>
      <point x="286" y="452" type="curve" smooth="yes"/>
      <point x="254" y="452"/>
      <point x="231" y="477"/>
      <point x="231" y="511" type="curve" smooth="yes"/>
      <point x="231" y="574"/>
      <point x="296" y="620"/>
      <point x="387" y="620" type="curve" smooth="yes"/>
      <point x="499" y="620"/>
      <point x="572" y="565"/>
      <point x="572" y="480" type="curve" smooth="yes"/>
      <point x="572" y="443"/>
      <point x="559" y="411"/>
      <point x="532" y="382" type="curve" smooth="yes"/>
      <point x="511" y="359"/>
      <point x="485" y="343"/>
      <point x="427" y="316" type="curve" smooth="yes"/>
      <point x="345" y="279"/>
      <point x="292" y="235"/>
      <point x="275" y="192" type="curve"/>
      <point x="492" y="192" type="line" smooth="yes"/>
      <point x="527" y="192"/>
      <point x="529" y="193"/>
      <point x="537" y="202" type="curve"/>
      <point x="543" y="210"/>
      <point x="546" y="223"/>
      <point x="546" y="247" type="curve" smooth="yes"/>
    </contour>
  </outline>
</glyph>
<glyph name="a132" format="1">
  <advance width="788"/>
  <outline>
    <contour>
      <point x="400" y="706" type="curve" smooth="yes"/>
      <point x="198" y="706"/>
      <point x="35" y="547"/>
      <point x="35" y="349" type="curve" smooth="yes"/>
      <point x="35" y="148"/>
      <point x="195" y="-13"/>
      <point x="395" y="-13" type="curve" smooth="yes"/>
      <point x="593" y="-13"/>
      <point x="754" y="148"/>
      <point x="754" y="347" type="curve" smooth="yes"/>
      <point x="754" y="542"/>
      <point x="593" y="706"/>
    </contour>
    <contour>
      <point x="313" y="391" type="line"/>
      <point x="324" y="390"/>
      <point x="333" y="389"/>
      <point x="340" y="389" type="curve" smooth="yes"/>
      <point x="361" y="389"/>
      <point x="383" y="395"/>
      <point x="403" y="406" type="curve" smooth="yes"/>
      <point x="435" y="424"/>
      <point x="451" y="453"/>
      <point x="451" y="495" type="curve" smooth="yes"/>
      <point x="451" y="544"/>
      <point x="420" y="578"/>
      <point x="375" y="578" type="curve" smooth="yes"/>
      <point x="349" y="578"/>
      <point x="323" y="563"/>
      <point x="322" y="547" type="curve"/>
      <point x="322" y="546"/>
      <point x="322" y="545"/>
      <point x="323" y="544" type="curve"/>
      <point x="327" y="535"/>
      <point x="328" y="529"/>
      <point x="328" y="520" type="curve" smooth="yes"/>
      <point x="328" y="492"/>
      <point x="304" y="469"/>
      <point x="275" y="469" type="curve" smooth="yes"/>
      <point x="247" y="469"/>
      <point x="226" y="490"/>
      <point x="226" y="519" type="curve" smooth="yes"/>
      <point x="226" y="572"/>
      <point x="295" y="611"/>
      <point x="389" y="611" type="curve" smooth="yes"/>
      <point x="491" y="611"/>
      <point x="548" y="570"/>
      <point x="548" y="496" type="curve" smooth="yes"/>
      <point x="548" y="443"/>
      <point x="516" y="404"/>
      <point x="459" y="388" type="curve" smooth="yes"/>
      <point x="442" y="383"/>
      <point x="439" y="382"/>
      <point x="439" y="378" type="curve" smooth="yes"/>
      <point x="439" y="375"/>
      <point x="443" y="373"/>
      <point x="451" y="372" type="curve"/>
      <point x="468" y="371"/>
      <point x="513" y="358"/>
      <point x="529" y="349" type="curve" smooth="yes"/>
      <point x="568" y="326"/>
      <point x="590" y="287"/>
      <point x="590" y="240" type="curve" smooth="yes"/>
      <point x="590" y="145"/>
      <point x="500" y="76"/>
      <point x="376" y="76" type="curve" smooth="yes"/>
      <point x="276" y="76"/>
      <point x="203" y="126"/>
      <point x="203" y="194" type="curve" smooth="yes"/>
      <point x="203" y="230"/>
      <point x="226" y="254"/>
      <point x="261" y="254" type="curve" smooth="yes"/>
      <point x="294" y="254"/>
      <point x="317" y="232"/>
      <point x="317" y="200" type="curve" smooth="yes"/>
      <point x="317" y="194"/>
      <point x="316" y="188"/>
      <point x="315" y="183" type="curve"/>
      <point x="310" y="168"/>
      <point x="310" y="168"/>
      <point x="310" y="162" type="curve" smooth="yes"/>
      <point x="310" y="141"/>
      <point x="334" y="126"/>
      <point x="367" y="126" type="curve" smooth="yes"/>
      <point x="424" y="126"/>
      <point x="472" y="184"/>
      <point x="472" y="255" type="curve" smooth="yes"/>
      <point x="472" y="318"/>
      <point x="432" y="358"/>
      <point x="367" y="358" type="curve" smooth="yes"/>
      <point x="352" y="358"/>
      <point x="340" y="356"/>
      <point x="313" y="351" type="curve"/>
    </contour>
  </outline>
</glyph>
<glyph name="a133" format="1">
  <advance width="788"/>
  <outline>
    <contour>
      <point x="370" y="510" type="line"/>
      <point x="220" y="280" type="line"/>
      <point x="370" y="280" type="line"/>
    </contour>
    <contour>
      <point x="400" y="706" type="curve" smooth="yes"/>
      <point x="198" y="706"/>
      <point x="35" y="547"/>
      <point x="35" y="349" type="curve" smooth="yes"/>
      <point x="35" y="148"/>
      <point x="195" y="-13"/>
      <point x="394" y="-13" type="curve" smooth="yes"/>
      <point x="593" y="-13"/>
      <point x="754" y="148"/>
      <point x="754" y="347" type="curve" smooth="yes"/>
      <point x="754" y="542"/>
      <point x="593" y="706"/>
    </contour>
    <contour>
      <point x="468" y="613" type="line"/>
      <point x="468" y="280" type="line"/>
      <point x="588" y="280" type="line"/>
      <point x="588" y="225" type="line"/>
      <point x="468" y="225" type="line"/>
      <point x="468" y="176" type="line" smooth="yes"/>
      <point x="468" y="157"/>
      <point x="470" y="145"/>
      <point x="474" y="140" type="curve" smooth="yes"/>
      <point x="479" y="134"/>
      <point x="495" y="128"/>
      <point x="508" y="128" type="curve" smooth="yes"/>
      <point x="543" y="128" type="line"/>
      <point x="543" y="93" type="line"/>
      <point x="275" y="93" type="line"/>
      <point x="275" y="128" type="line"/>
      <point x="327" y="128" type="line" smooth="yes"/>
      <point x="343" y="128"/>
      <point x="358" y="134"/>
      <point x="364" y="142" type="curve"/>
      <point x="368" y="149"/>
      <point x="370" y="160"/>
      <point x="370" y="183" type="curve" smooth="yes"/>
      <point x="370" y="225" type="line"/>
      <point x="156" y="225" type="line"/>
      <point x="156" y="259" type="line"/>
      <point x="393" y="613" type="line"/>
    </contour>
  </outline>
</glyph>
<glyph name="a134" format="1">
  <advance width="788"/>
  <outline>
    <contour>
      <point x="400" y="706" type="curve" smooth="yes"/>
      <point x="198" y="706"/>
      <point x="35" y="547"/>
      <point x="35" y="349" type="curve" smooth="yes"/>
      <point x="35" y="148"/>
      <point x="195" y="-13"/>
      <point x="395" y="-13" type="curve" smooth="yes"/>
      <point x="593" y="-13"/>
      <point x="754" y="148"/>
      <point x="754" y="347" type="curve" smooth="yes"/>
      <point x="754" y="542"/>
      <point x="593" y="706"/>
    </contour>
    <contour>
      <point x="274" y="371" type="line"/>
      <point x="307" y="398"/>
      <point x="349" y="411"/>
      <point x="401" y="411" type="curve" smooth="yes"/>
      <point x="503" y="411"/>
      <point x="577" y="346"/>
      <point x="577" y="256" type="curve" smooth="yes"/>
      <point x="577" y="159"/>
      <point x="481" y="85"/>
      <point x="354" y="85" type="curve" smooth="yes"/>
      <point x="261" y="85"/>
      <point x="189" y="133"/>
      <point x="189" y="193" type="curve" smooth="yes"/>
      <point x="189" y="228"/>
      <point x="213" y="253"/>
      <point x="246" y="253" type="curve" smooth="yes"/>
      <point x="278" y="253"/>
      <point x="304" y="230"/>
      <point x="304" y="201" type="curve" smooth="yes"/>
      <point x="304" y="194"/>
      <point x="302" y="185"/>
      <point x="298" y="177" type="curve" smooth="yes"/>
      <point x="290" y="160"/>
      <point x="290" y="160"/>
      <point x="290" y="154" type="curve" smooth="yes"/>
      <point x="290" y="134"/>
      <point x="315" y="117"/>
      <point x="345" y="117" type="curve" smooth="yes"/>
      <point x="404" y="117"/>
      <point x="451" y="176"/>
      <point x="451" y="249" type="curve" smooth="yes"/>
      <point x="451" y="315"/>
      <point x="413" y="365"/>
      <point x="362" y="365" type="curve" smooth="yes"/>
      <point x="331" y="365"/>
      <point x="304" y="349"/>
      <point x="274" y="311" type="curve"/>
      <point x="230" y="330" type="line"/>
      <point x="242" y="431"/>
      <point x="251" y="525"/>
      <point x="256" y="618" type="curve"/>
      <point x="374" y="600"/>
      <point x="390" y="598"/>
      <point x="434" y="598" type="curve" smooth="yes"/>
      <point x="491" y="598"/>
      <point x="525" y="603"/>
      <point x="570" y="618" type="curve"/>
      <point x="561" y="575"/>
      <point x="544" y="539"/>
      <point x="528" y="526" type="curve" smooth="yes"/>
      <point x="503" y="505"/>
      <point x="477" y="501"/>
      <point x="378" y="501" type="curve" smooth="yes"/>
      <point x="343" y="501"/>
      <point x="324" y="502"/>
      <point x="287" y="505" type="curve"/>
    </contour>
  </outline>
</glyph>
<glyph name="a135" format="1">
  <advance width="788"/>
  <outline>
    <contour>
      <point x="402" y="367" type="curve" smooth="yes"/>
      <point x="343" y="367"/>
      <point x="299" y="315"/>
      <point x="299" y="247" type="curve" smooth="yes"/>
      <point x="299" y="178"/>
      <point x="339" y="128"/>
      <point x="396" y="128" type="curve" smooth="yes"/>
      <point x="452" y="128"/>
      <point x="491" y="176"/>
      <point x="491" y="245" type="curve" smooth="yes"/>
      <point x="491" y="319"/>
      <point x="456" y="367"/>
    </contour>
    <contour>
      <point x="400" y="706" type="curve" smooth="yes"/>
      <point x="198" y="706"/>
      <point x="35" y="547"/>
      <point x="35" y="349" type="curve" smooth="yes"/>
      <point x="35" y="148"/>
      <point x="195" y="-13"/>
      <point x="395" y="-13" type="curve" smooth="yes"/>
      <point x="593" y="-13"/>
      <point x="754" y="148"/>
      <point x="754" y="347" type="curve" smooth="yes"/>
      <point x="754" y="542"/>
      <point x="593" y="706"/>
    </contour>
    <contour>
      <point x="294" y="337" type="curve"/>
      <point x="332" y="392"/>
      <point x="381" y="419"/>
      <point x="442" y="419" type="curve" smooth="yes"/>
      <point x="530" y="419"/>
      <point x="594" y="356"/>
      <point x="594" y="269" type="curve" smooth="yes"/>
      <point x="594" y="163"/>
      <point x="509" y="85"/>
      <point x="394" y="85" type="curve" smooth="yes"/>
      <point x="324" y="85"/>
      <point x="271" y="110"/>
      <point x="233" y="160" type="curve" smooth="yes"/>
      <point x="196" y="208"/>
      <point x="177" y="272"/>
      <point x="177" y="343" type="curve" smooth="yes"/>
      <point x="177" y="417"/>
      <point x="199" y="490"/>
      <point x="236" y="543" type="curve" smooth="yes"/>
      <point x="275" y="598"/>
      <point x="327" y="623"/>
      <point x="400" y="623" type="curve" smooth="yes"/>
      <point x="493" y="623"/>
      <point x="562" y="580"/>
      <point x="562" y="523" type="curve" smooth="yes"/>
      <point x="562" y="489"/>
      <point x="540" y="464"/>
      <point x="510" y="464" type="curve" smooth="yes"/>
      <point x="482" y="464"/>
      <point x="459" y="486"/>
      <point x="459" y="511" type="curve" smooth="yes"/>
      <point x="459" y="518"/>
      <point x="461" y="528"/>
      <point x="463" y="540" type="curve" smooth="yes"/>
      <point x="464" y="545"/>
      <point x="465" y="549"/>
      <point x="465" y="553" type="curve" smooth="yes"/>
      <point x="465" y="574"/>
      <point x="441" y="590"/>
      <point x="409" y="590" type="curve" smooth="yes"/>
      <point x="388" y="590"/>
      <point x="365" y="582"/>
      <point x="353" y="570" type="curve" smooth="yes"/>
      <point x="316" y="535"/>
      <point x="292" y="460"/>
      <point x="292" y="381" type="curve" smooth="yes"/>
      <point x="292" y="373"/>
      <point x="293" y="348"/>
    </contour>
  </outline>
</glyph>
<glyph name="a136" format="1">
  <advance width="788"/>
  <outline>
    <contour>
      <point x="400" y="706" type="curve" smooth="yes"/>
      <point x="197" y="706"/>
      <point x="35" y="547"/>
      <point x="35" y="349" type="curve" smooth="yes"/>
      <point x="35" y="148"/>
      <point x="195" y="-13"/>
      <point x="395" y="-13" type="curve" smooth="yes"/>
      <point x="593" y="-13"/>
      <point x="754" y="148"/>
      <point x="754" y="347" type="curve" smooth="yes"/>
      <point x="754" y="542"/>
      <point x="593" y="706"/>
    </contour>
    <contour>
      <point x="200" y="611" type="line"/>
      <point x="594" y="611" type="line"/>
      <point x="591" y="604"/>
      <point x="588" y="599"/>
      <point x="587" y="597" type="curve"/>
      <point x="537" y="514"/>
      <point x="537" y="514"/>
      <point x="466" y="392" type="curve" smooth="yes"/>
      <point x="416" y="304"/>
      <point x="404" y="273"/>
      <point x="404" y="227" type="curve" smooth="yes"/>
      <point x="404" y="218"/>
      <point x="405" y="209"/>
      <point x="406" y="199" type="curve"/>
      <point x="413" y="158"/>
      <point x="413" y="158"/>
      <point x="413" y="150" type="curve" smooth="yes"/>
      <point x="413" y="111"/>
      <point x="387" y="85"/>
      <point x="347" y="85" type="curve" smooth="yes"/>
      <point x="308" y="85"/>
      <point x="281" y="115"/>
      <point x="281" y="158" type="curve" smooth="yes"/>
      <point x="281" y="206"/>
      <point x="310" y="268"/>
      <point x="369" y="344" type="curve" smooth="yes"/>
      <point x="384" y="364"/>
      <point x="399" y="384"/>
      <point x="414" y="403" type="curve" smooth="yes"/>
      <point x="495" y="514" type="line"/>
      <point x="293" y="514" type="line" smooth="yes"/>
      <point x="256" y="513"/>
      <point x="255" y="512"/>
      <point x="242" y="463" type="curve" smooth="yes"/>
      <point x="233" y="425" type="line"/>
      <point x="200" y="425" type="line"/>
    </contour>
  </outline>
</glyph>
<glyph name="a137" format="1">
  <advance width="788"/>
  <outline>
    <contour>
      <point x="428" y="428" type="line"/>
      <point x="463" y="450"/>
      <point x="480" y="478"/>
      <point x="480" y="513" type="curve" smooth="yes"/>
      <point x="480" y="556"/>
      <point x="447" y="588"/>
      <point x="403" y="588" type="curve" smooth="yes"/>
      <point x="360" y="588"/>
      <point x="327" y="560"/>
      <point x="327" y="523" type="curve" smooth="yes"/>
      <point x="327" y="495"/>
      <point x="344" y="472"/>
      <point x="381" y="453" type="curve" smooth="yes"/>
    </contour>
    <contour>
      <point x="353" y="354" type="line"/>
      <point x="307" y="327"/>
      <point x="281" y="285"/>
      <point x="281" y="237" type="curve" smooth="yes"/>
      <point x="281" y="177"/>
      <point x="326" y="132"/>
      <point x="385" y="132" type="curve" smooth="yes"/>
      <point x="443" y="132"/>
      <point x="487" y="172"/>
      <point x="487" y="224" type="curve" smooth="yes"/>
      <point x="487" y="263"/>
      <point x="466" y="290"/>
      <point x="418" y="318" type="curve" smooth="yes"/>
    </contour>
    <contour>
      <point x="400" y="706" type="curve" smooth="yes"/>
      <point x="198" y="706"/>
      <point x="35" y="547"/>
      <point x="35" y="349" type="curve" smooth="yes"/>
      <point x="35" y="148"/>
      <point x="195" y="-13"/>
      <point x="395" y="-13" type="curve" smooth="yes"/>
      <point x="593" y="-13"/>
      <point x="754" y="148"/>
      <point x="754" y="347" type="curve" smooth="yes"/>
      <point x="754" y="542"/>
      <point x="593" y="706"/>
    </contour>
    <contour>
      <point x="465" y="410" type="curve"/>
      <point x="550" y="367"/>
      <point x="585" y="323"/>
      <point x="585" y="255" type="curve" smooth="yes"/>
      <point x="585" y="156"/>
      <point x="502" y="85"/>
      <point x="387" y="85" type="curve" smooth="yes"/>
      <point x="278" y="85"/>
      <point x="206" y="141"/>
      <point x="206" y="227" type="curve" smooth="yes"/>
      <point x="206" y="290"/>
      <point x="234" y="328"/>
      <point x="316" y="375" type="curve"/>
      <point x="259" y="414"/>
      <point x="241" y="440"/>
      <point x="241" y="489" type="curve" smooth="yes"/>
      <point x="241" y="568"/>
      <point x="309" y="625"/>
      <point x="404" y="625" type="curve" smooth="yes"/>
      <point x="486" y="625"/>
      <point x="546" y="580"/>
      <point x="546" y="519" type="curve" smooth="yes"/>
      <point x="546" y="476"/>
      <point x="526" y="449"/>
    </contour>
  </outline>
</glyph>
<glyph name="a138" format="1">
  <advance width="788"/>
  <outline>
    <contour>
      <point x="389" y="587" type="curve" smooth="yes"/>
      <point x="333" y="587"/>
      <point x="294" y="539"/>
      <point x="294" y="469" type="curve" smooth="yes"/>
      <point x="294" y="396"/>
      <point x="331" y="349"/>
      <point x="388" y="349" type="curve" smooth="yes"/>
      <point x="445" y="349"/>
      <point x="487" y="400"/>
      <point x="487" y="468" type="curve" smooth="yes"/>
      <point x="487" y="537"/>
      <point x="446" y="587"/>
    </contour>
    <contour>
      <point x="400" y="706" type="curve" smooth="yes"/>
      <point x="198" y="706"/>
      <point x="35" y="547"/>
      <point x="35" y="349" type="curve" smooth="yes"/>
      <point x="35" y="148"/>
      <point x="195" y="-13"/>
      <point x="395" y="-13" type="curve" smooth="yes"/>
      <point x="593" y="-13"/>
      <point x="754" y="148"/>
      <point x="754" y="347" type="curve" smooth="yes"/>
      <point x="754" y="542"/>
      <point x="593" y="706"/>
    </contour>
    <contour>
      <point x="494" y="363" type="line"/>
      <point x="456" y="316"/>
      <point x="412" y="296"/>
      <point x="350" y="296" type="curve" smooth="yes"/>
      <point x="256" y="296"/>
      <point x="192" y="356"/>
      <point x="192" y="444" type="curve" smooth="yes"/>
      <point x="192" y="548"/>
      <point x="276" y="625"/>
      <point x="389" y="625" type="curve" smooth="yes"/>
      <point x="520" y="625"/>
      <point x="607" y="523"/>
      <point x="607" y="369" type="curve" smooth="yes"/>
      <point x="607" y="291"/>
      <point x="585" y="216"/>
      <point x="547" y="161" type="curve" smooth="yes"/>
      <point x="511" y="110"/>
      <point x="457" y="85"/>
      <point x="383" y="85" type="curve" smooth="yes"/>
      <point x="292" y="85"/>
      <point x="224" y="129"/>
      <point x="224" y="189" type="curve" smooth="yes"/>
      <point x="224" y="224"/>
      <point x="247" y="252"/>
      <point x="277" y="252" type="curve" smooth="yes"/>
      <point x="305" y="252"/>
      <point x="327" y="228"/>
      <point x="327" y="199" type="curve" smooth="yes"/>
      <point x="327" y="194"/>
      <point x="326" y="188"/>
      <point x="325" y="183" type="curve"/>
      <point x="322" y="172"/>
      <point x="321" y="164"/>
      <point x="321" y="161" type="curve" smooth="yes"/>
      <point x="321" y="139"/>
      <point x="346" y="122"/>
      <point x="377" y="122" type="curve" smooth="yes"/>
      <point x="401" y="122"/>
      <point x="426" y="133"/>
      <point x="441" y="149" type="curve"/>
      <point x="474" y="188"/>
      <point x="494" y="257"/>
      <point x="494" y="333" type="curve" smooth="yes"/>
      <point x="494" y="343" type="line"/>
    </contour>
  </outline>
</glyph>
<glyph name="a139" format="1">
  <advance width="788"/>
  <outline>
    <contour>
      <point x="524" y="588" type="curve" smooth="yes"/>
      <point x="484" y="588"/>
      <point x="462" y="507"/>
      <point x="462" y="353" type="curve" smooth="yes"/>
      <point x="462" y="200"/>
      <point x="484" y="118"/>
      <point x="524" y="118" type="curve" smooth="yes"/>
      <point x="565" y="118"/>
      <point x="586" y="196"/>
      <point x="586" y="352" type="curve" smooth="yes"/>
      <point x="586" y="510"/>
      <point x="565" y="588"/>
    </contour>
    <contour>
      <point x="397" y="706" type="curve" smooth="yes"/>
      <point x="197" y="706"/>
      <point x="35" y="545"/>
      <point x="35" y="346" type="curve" smooth="yes"/>
      <point x="35" y="149"/>
      <point x="196" y="-13"/>
      <point x="394" y="-13" type="curve" smooth="yes"/>
      <point x="593" y="-13"/>
      <point x="754" y="148"/>
      <point x="754" y="346" type="curve" smooth="yes"/>
      <point x="754" y="543"/>
      <point x="593" y="706"/>
    </contour>
    <contour>
      <point x="309" y="613" type="line"/>
      <point x="309" y="183" type="line" smooth="yes"/>
      <point x="309" y="160"/>
      <point x="311" y="149"/>
      <point x="315" y="143" type="curve"/>
      <point x="321" y="136"/>
      <point x="337" y="131"/>
      <point x="351" y="131" type="curve" smooth="yes"/>
      <point x="373" y="131" type="line"/>
      <point x="373" y="93" type="line"/>
      <point x="153" y="93" type="line"/>
      <point x="153" y="131" type="line"/>
      <point x="181" y="131" type="line" smooth="yes"/>
      <point x="213" y="131"/>
      <point x="217" y="136"/>
      <point x="217" y="175" type="curve" smooth="yes"/>
      <point x="217" y="469" type="line" smooth="yes"/>
      <point x="216" y="502"/>
      <point x="216" y="502"/>
      <point x="212" y="507" type="curve"/>
      <point x="207" y="511"/>
      <point x="194" y="514"/>
      <point x="181" y="514" type="curve" smooth="yes"/>
      <point x="124" y="514" type="line"/>
      <point x="124" y="543" type="line"/>
      <point x="202" y="548"/>
      <point x="243" y="568"/>
      <point x="271" y="613" type="curve"/>
    </contour>
    <contour>
      <point x="520" y="621" type="curve" smooth="yes"/>
      <point x="632" y="621"/>
      <point x="687" y="530"/>
      <point x="687" y="343" type="curve" smooth="yes"/>
      <point x="687" y="274"/>
      <point x="676" y="208"/>
      <point x="658" y="168" type="curve" smooth="yes"/>
      <point x="631" y="109"/>
      <point x="590" y="85"/>
      <point x="520" y="85" type="curve" smooth="yes"/>
      <point x="484" y="85"/>
      <point x="449" y="97"/>
      <point x="429" y="115" type="curve" smooth="yes"/>
      <point x="383" y="159"/>
      <point x="360" y="238"/>
      <point x="360" y="352" type="curve" smooth="yes"/>
      <point x="360" y="526"/>
      <point x="416" y="621"/>
    </contour>
  </outline>
</glyph>
<glyph name="a14" format="1">
  <advance width="855"/>
  <outline>
    <contour>
      <point x="82" y="202" type="line"/>
      <point x="94" y="185" type="line"/>
      <point x="38" y="74" type="line"/>
      <point x="35" y="67"/>
      <point x="33" y="63"/>
      <point x="33" y="63" type="curve"/>
      <point x="33" y="61"/>
      <point x="36" y="59"/>
      <point x="38" y="59" type="curve" smooth="yes"/>
      <point x="40" y="59"/>
      <point x="45" y="60"/>
      <point x="48" y="61" type="curve" smooth="yes"/>
      <point x="137" y="94" type="line"/>
      <point x="189" y="150" type="line"/>
      <point x="249" y="134"/>
      <point x="276" y="129"/>
      <point x="310" y="129" type="curve" smooth="yes"/>
      <point x="327" y="129"/>
      <point x="360" y="131"/>
      <point x="437" y="138" type="curve"/>
      <point x="541" y="127" type="line"/>
      <point x="633" y="150" type="line"/>
      <point x="646" y="94" type="line"/>
      <point x="797" y="94" type="line"/>
      <point x="820" y="236" type="line"/>
      <point x="820" y="339" type="line"/>
      <point x="797" y="410" type="line"/>
      <point x="646" y="419" type="line"/>
      <point x="633" y="399" type="line"/>
      <point x="603" y="401"/>
      <point x="591" y="404"/>
      <point x="569" y="419" type="curve" smooth="yes"/>
      <point x="476" y="478" type="line"/>
      <point x="550" y="562" type="line" smooth="yes"/>
      <point x="555" y="568"/>
      <point x="557" y="573"/>
      <point x="557" y="580" type="curve" smooth="yes"/>
      <point x="557" y="607"/>
      <point x="537" y="632"/>
      <point x="515" y="632" type="curve" smooth="yes"/>
      <point x="507" y="632"/>
      <point x="499" y="628"/>
      <point x="494" y="623" type="curve"/>
      <point x="409" y="527" type="line"/>
      <point x="348" y="562" type="line"/>
      <point x="283" y="533"/>
      <point x="246" y="506"/>
      <point x="154" y="419" type="curve"/>
      <point x="131" y="352"/>
      <point x="127" y="338"/>
      <point x="117" y="292" type="curve"/>
    </contour>
    <contour>
      <point x="643" y="378" type="line"/>
      <point x="653" y="326"/>
      <point x="656" y="301"/>
      <point x="656" y="270" type="curve" smooth="yes"/>
      <point x="656" y="244"/>
      <point x="654" y="222"/>
      <point x="646" y="177" type="curve"/>
      <point x="587" y="159"/>
      <point x="561" y="154"/>
      <point x="534" y="154" type="curve" smooth="yes"/>
      <point x="517" y="154"/>
      <point x="507" y="155"/>
      <point x="447" y="165" type="curve"/>
      <point x="417" y="162"/>
      <point x="391" y="158"/>
      <point x="381" y="155" type="curve"/>
      <point x="358" y="150"/>
      <point x="341" y="147"/>
      <point x="331" y="147" type="curve"/>
      <point x="319" y="148" type="line"/>
      <point x="308" y="150"/>
      <point x="297" y="151"/>
      <point x="287" y="153" type="curve"/>
      <point x="274" y="154"/>
      <point x="266" y="157"/>
      <point x="267" y="161" type="curve"/>
      <point x="267" y="162"/>
      <point x="269" y="164"/>
      <point x="271" y="166" type="curve"/>
      <point x="282" y="174"/>
      <point x="288" y="183"/>
      <point x="288" y="192" type="curve" smooth="yes"/>
      <point x="288" y="198"/>
      <point x="282" y="212"/>
      <point x="277" y="218" type="curve"/>
      <point x="274" y="222"/>
      <point x="255" y="232"/>
      <point x="251" y="232" type="curve" smooth="yes"/>
      <point x="250" y="232"/>
      <point x="249" y="232"/>
      <point x="248" y="231" type="curve" smooth="yes"/>
      <point x="247" y="230" type="line"/>
      <point x="246" y="230"/>
      <point x="246" y="229"/>
      <point x="246" y="229" type="curve"/>
      <point x="247" y="229" type="line" smooth="yes"/>
      <point x="248" y="229"/>
      <point x="248" y="228"/>
      <point x="249" y="227" type="curve"/>
      <point x="249" y="226"/>
      <point x="251" y="223"/>
      <point x="254" y="219" type="curve"/>
      <point x="259" y="213"/>
      <point x="264" y="195"/>
      <point x="264" y="185" type="curve" smooth="yes"/>
      <point x="264" y="174"/>
      <point x="256" y="163"/>
      <point x="249" y="163" type="curve"/>
      <point x="235" y="165" type="line"/>
      <point x="214" y="165" type="line" smooth="yes"/>
      <point x="200" y="165"/>
      <point x="191" y="174"/>
      <point x="191" y="188" type="curve" smooth="yes"/>
      <point x="191" y="207"/>
      <point x="202" y="225"/>
      <point x="218" y="233" type="curve" smooth="yes"/>
      <point x="246" y="246" type="line"/>
      <point x="268" y="259"/>
      <point x="272" y="260"/>
      <point x="291" y="260" type="curve" smooth="yes"/>
      <point x="415" y="260" type="line"/>
      <point x="436" y="279"/>
      <point x="440" y="284"/>
      <point x="447" y="301" type="curve"/>
      <point x="406" y="284"/>
      <point x="384" y="277"/>
      <point x="364" y="277" type="curve" smooth="yes"/>
      <point x="362" y="277"/>
      <point x="357" y="277"/>
      <point x="351" y="278" type="curve"/>
      <point x="398" y="331" type="line"/>
      <point x="398" y="341"/>
      <point x="400" y="350"/>
      <point x="401" y="353" type="curve"/>
      <point x="402" y="360"/>
      <point x="403" y="365"/>
      <point x="403" y="368" type="curve" smooth="yes"/>
      <point x="403" y="371"/>
      <point x="401" y="377"/>
      <point x="398" y="387" type="curve"/>
      <point x="457" y="457" type="line"/>
      <point x="577" y="387" type="line"/>
    </contour>
    <contour>
      <point x="231" y="326" type="line"/>
      <point x="204" y="260" type="line" smooth="yes"/>
      <point x="198" y="246"/>
      <point x="179" y="223"/>
      <point x="154" y="202" type="curve"/>
      <point x="137" y="202" type="line"/>
      <point x="163" y="260" type="line"/>
      <point x="154" y="288" type="line"/>
      <point x="137" y="298" type="line"/>
      <point x="163" y="387" type="line"/>
      <point x="168" y="399"/>
      <point x="168" y="400"/>
      <point x="189" y="419" type="curve" smooth="yes"/>
      <point x="264" y="485" type="line" smooth="yes"/>
      <point x="286" y="505"/>
      <point x="339" y="536"/>
      <point x="351" y="536" type="curve" smooth="yes"/>
      <point x="359" y="536"/>
      <point x="368" y="530"/>
      <point x="397" y="507" type="curve"/>
    </contour>
    <contour>
      <point x="85" y="83" type="line"/>
      <point x="81" y="82"/>
      <point x="78" y="81"/>
      <point x="76" y="81" type="curve" smooth="yes"/>
      <point x="68" y="81"/>
      <point x="63" y="86"/>
      <point x="63" y="93" type="curve" smooth="yes"/>
      <point x="63" y="97"/>
      <point x="65" y="106"/>
      <point x="67" y="108" type="curve"/>
      <point x="81" y="135" type="line"/>
      <point x="91" y="151"/>
      <point x="92" y="152"/>
      <point x="96" y="152" type="curve" smooth="yes"/>
      <point x="105" y="152"/>
      <point x="127" y="120"/>
      <point x="127" y="107" type="curve" smooth="yes"/>
      <point x="127" y="101"/>
      <point x="123" y="97"/>
      <point x="115" y="94" type="curve" smooth="yes"/>
    </contour>
    <contour>
      <point x="137" y="288" type="line"/>
      <point x="143" y="280"/>
      <point x="145" y="275"/>
      <point x="145" y="263" type="curve" smooth="yes"/>
      <point x="145" y="228"/>
      <point x="130" y="201"/>
      <point x="110" y="201" type="curve" smooth="yes"/>
      <point x="107" y="201"/>
      <point x="103" y="201"/>
      <point x="98" y="202" type="curve"/>
    </contour>
    <contour>
      <point x="381" y="371" type="line"/>
      <point x="381" y="326"/>
      <point x="352" y="275"/>
      <point x="326" y="275" type="curve" smooth="yes"/>
      <point x="320" y="275"/>
      <point x="311" y="276"/>
      <point x="302" y="278" type="curve"/>
    </contour>
    <contour>
      <point x="757" y="387" type="line"/>
      <point x="775" y="345"/>
      <point x="781" y="309"/>
      <point x="781" y="253" type="curve" smooth="yes"/>
      <point x="781" y="205"/>
      <point x="777" y="172"/>
      <point x="764" y="127" type="curve"/>
      <point x="659" y="118" type="line"/>
      <point x="674" y="172"/>
      <point x="681" y="222"/>
      <point x="681" y="272" type="curve" smooth="yes"/>
      <point x="681" y="298"/>
      <point x="679" y="316"/>
      <point x="669" y="387" type="curve"/>
    </contour>
  </outline>
</glyph>
<glyph name="a140" format="1">
  <advance width="788"/>
  <outline>
    <contour>
      <point x="392" y="588" type="line"/>
      <point x="382" y="534"/>
      <point x="349" y="514"/>
      <point x="272" y="515" type="curve"/>
      <point x="272" y="474" type="line"/>
      <point x="369" y="474" type="line"/>
      <point x="369" y="117" type="line"/>
      <point x="429" y="117" type="line"/>
      <point x="429" y="588" type="line"/>
    </contour>
    <contour>
      <point x="400" y="706" type="curve" smooth="yes"/>
      <point x="198" y="706"/>
      <point x="35" y="547"/>
      <point x="35" y="349" type="curve" smooth="yes"/>
      <point x="35" y="148"/>
      <point x="195" y="-13"/>
      <point x="395" y="-13" type="curve" smooth="yes"/>
      <point x="593" y="-13"/>
      <point x="754" y="148"/>
      <point x="754" y="347" type="curve" smooth="yes"/>
      <point x="754" y="542"/>
      <point x="593" y="706"/>
    </contour>
    <contour>
      <point x="400" y="673" type="curve" smooth="yes"/>
      <point x="474" y="673"/>
      <point x="556" y="641"/>
      <point x="613" y="589" type="curve" smooth="yes"/>
      <point x="684" y="524"/>
      <point x="721" y="441"/>
      <point x="721" y="347" type="curve" smooth="yes"/>
      <point x="721" y="166"/>
      <point x="575" y="20"/>
      <point x="395" y="20" type="curve" smooth="yes"/>
      <point x="213" y="20"/>
      <point x="68" y="166"/>
      <point x="68" y="349" type="curve" smooth="yes"/>
      <point x="68" y="428"/>
      <point x="98" y="506"/>
      <point x="152" y="565" type="curve" smooth="yes"/>
      <point x="217" y="637"/>
      <point x="300" y="673"/>
    </contour>
  </outline>
</glyph>
<glyph name="a141" format="1">
  <advance width="788"/>
  <outline>
    <contour>
      <point x="538" y="169" type="line"/>
      <point x="313" y="169" type="line"/>
      <point x="327" y="198"/>
      <point x="336" y="207"/>
      <point x="391" y="244" type="curve" smooth="yes"/>
      <point x="511" y="324"/>
      <point x="542" y="365"/>
      <point x="542" y="441" type="curve" smooth="yes"/>
      <point x="542" y="526"/>
      <point x="477" y="589"/>
      <point x="389" y="589" type="curve" smooth="yes"/>
      <point x="304" y="589"/>
      <point x="241" y="527"/>
      <point x="241" y="443" type="curve" smooth="yes"/>
      <point x="241" y="429" type="line"/>
      <point x="302" y="429" type="line"/>
      <point x="301" y="435"/>
      <point x="301" y="441"/>
      <point x="301" y="444" type="curve" smooth="yes"/>
      <point x="301" y="504"/>
      <point x="336" y="544"/>
      <point x="389" y="544" type="curve" smooth="yes"/>
      <point x="443" y="544"/>
      <point x="481" y="502"/>
      <point x="481" y="442" type="curve" smooth="yes"/>
      <point x="481" y="381"/>
      <point x="457" y="350"/>
      <point x="363" y="289" type="curve" smooth="yes"/>
      <point x="285" y="238"/>
      <point x="248" y="188"/>
      <point x="248" y="133" type="curve" smooth="yes"/>
      <point x="248" y="128"/>
      <point x="248" y="124"/>
      <point x="249" y="117" type="curve"/>
      <point x="538" y="117" type="line"/>
    </contour>
    <contour>
      <point x="400" y="706" type="curve" smooth="yes"/>
      <point x="198" y="706"/>
      <point x="35" y="547"/>
      <point x="35" y="349" type="curve" smooth="yes"/>
      <point x="35" y="148"/>
      <point x="195" y="-13"/>
      <point x="395" y="-13" type="curve" smooth="yes"/>
      <point x="593" y="-13"/>
      <point x="754" y="148"/>
      <point x="754" y="347" type="curve" smooth="yes"/>
      <point x="754" y="542"/>
      <point x="593" y="706"/>
    </contour>
    <contour>
      <point x="400" y="673" type="curve" smooth="yes"/>
      <point x="474" y="673"/>
      <point x="556" y="641"/>
      <point x="613" y="589" type="curve" smooth="yes"/>
      <point x="684" y="524"/>
      <point x="721" y="441"/>
      <point x="721" y="347" type="curve" smooth="yes"/>
      <point x="721" y="166"/>
      <point x="575" y="20"/>
      <point x="395" y="20" type="curve" smooth="yes"/>
      <point x="213" y="20"/>
      <point x="68" y="166"/>
      <point x="68" y="349" type="curve" smooth="yes"/>
      <point x="68" y="428"/>
      <point x="98" y="506"/>
      <point x="152" y="565" type="curve" smooth="yes"/>
      <point x="217" y="637"/>
      <point x="300" y="673"/>
    </contour>
  </outline>
</glyph>
<glyph name="a142" format="1">
  <advance width="788"/>
  <outline>
    <contour>
      <point x="310" y="462" type="line"/>
      <point x="310" y="480"/>
      <point x="312" y="489"/>
      <point x="315" y="500" type="curve" smooth="yes"/>
      <point x="324" y="530"/>
      <point x="353" y="550"/>
      <point x="390" y="550" type="curve" smooth="yes"/>
      <point x="441" y="550"/>
      <point x="473" y="518"/>
      <point x="473" y="467" type="curve" smooth="yes"/>
      <point x="473" y="436"/>
      <point x="464" y="415"/>
      <point x="445" y="402" type="curve" smooth="yes"/>
      <point x="422" y="387"/>
      <point x="400" y="379"/>
      <point x="379" y="379" type="curve" smooth="yes"/>
      <point x="376" y="379"/>
      <point x="369" y="380"/>
      <point x="359" y="381" type="curve"/>
      <point x="350" y="381" type="line"/>
      <point x="350" y="338" type="line"/>
      <point x="383" y="338" type="line" smooth="yes"/>
      <point x="451" y="338"/>
      <point x="490" y="306"/>
      <point x="490" y="249" type="curve" smooth="yes"/>
      <point x="490" y="197"/>
      <point x="453" y="161"/>
      <point x="399" y="161" type="curve" smooth="yes"/>
      <point x="368" y="161"/>
      <point x="340" y="174"/>
      <point x="324" y="197" type="curve" smooth="yes"/>
      <point x="314" y="211"/>
      <point x="310" y="229"/>
      <point x="310" y="261" type="curve"/>
      <point x="256" y="250" type="line"/>
      <point x="255" y="243"/>
      <point x="255" y="236"/>
      <point x="255" y="231" type="curve" smooth="yes"/>
      <point x="255" y="162"/>
      <point x="315" y="111"/>
      <point x="395" y="111" type="curve" smooth="yes"/>
      <point x="484" y="111"/>
      <point x="546" y="168"/>
      <point x="546" y="249" type="curve" smooth="yes"/>
      <point x="546" y="308"/>
      <point x="519" y="345"/>
      <point x="465" y="363" type="curve"/>
      <point x="513" y="385"/>
      <point x="533" y="415"/>
      <point x="533" y="465" type="curve" smooth="yes"/>
      <point x="533" y="539"/>
      <point x="473" y="595"/>
      <point x="392" y="595" type="curve" smooth="yes"/>
      <point x="342" y="595"/>
      <point x="296" y="572"/>
      <point x="274" y="534" type="curve" smooth="yes"/>
      <point x="262" y="514"/>
      <point x="257" y="495"/>
      <point x="256" y="462" type="curve"/>
    </contour>
    <contour>
      <point x="400" y="706" type="curve" smooth="yes"/>
      <point x="198" y="706"/>
      <point x="35" y="547"/>
      <point x="35" y="349" type="curve" smooth="yes"/>
      <point x="35" y="148"/>
      <point x="195" y="-13"/>
      <point x="395" y="-13" type="curve" smooth="yes"/>
      <point x="593" y="-13"/>
      <point x="754" y="148"/>
      <point x="754" y="347" type="curve" smooth="yes"/>
      <point x="754" y="542"/>
      <point x="593" y="706"/>
    </contour>
    <contour>
      <point x="400" y="673" type="curve" smooth="yes"/>
      <point x="474" y="673"/>
      <point x="556" y="641"/>
      <point x="613" y="589" type="curve" smooth="yes"/>
      <point x="684" y="524"/>
      <point x="721" y="441"/>
      <point x="721" y="347" type="curve" smooth="yes"/>
      <point x="721" y="166"/>
      <point x="575" y="20"/>
      <point x="395" y="20" type="curve" smooth="yes"/>
      <point x="213" y="20"/>
      <point x="68" y="166"/>
      <point x="68" y="349" type="curve" smooth="yes"/>
      <point x="68" y="428"/>
      <point x="98" y="506"/>
      <point x="152" y="565" type="curve" smooth="yes"/>
      <point x="217" y="637"/>
      <point x="300" y="673"/>
    </contour>
  </outline>
</glyph>
<glyph name="a143" format="1">
  <advance width="788"/>
  <outline>
    <contour>
      <point x="538" y="285" type="line"/>
      <point x="463" y="285" type="line"/>
      <point x="463" y="593" type="line"/>
      <point x="407" y="593" type="line"/>
      <point x="200" y="285" type="line"/>
      <point x="200" y="235" type="line"/>
      <point x="407" y="235" type="line"/>
      <point x="407" y="117" type="line"/>
      <point x="463" y="117" type="line"/>
      <point x="463" y="235" type="line"/>
      <point x="538" y="235" type="line"/>
    </contour>
    <contour>
      <point x="407" y="514" type="line"/>
      <point x="407" y="285" type="line"/>
      <point x="256" y="285" type="line"/>
    </contour>
    <contour>
      <point x="400" y="706" type="curve" smooth="yes"/>
      <point x="198" y="706"/>
      <point x="35" y="547"/>
      <point x="35" y="349" type="curve" smooth="yes"/>
      <point x="35" y="148"/>
      <point x="195" y="-13"/>
      <point x="395" y="-13" type="curve" smooth="yes"/>
      <point x="593" y="-13"/>
      <point x="754" y="148"/>
      <point x="754" y="347" type="curve" smooth="yes"/>
      <point x="754" y="542"/>
      <point x="593" y="706"/>
    </contour>
    <contour>
      <point x="400" y="673" type="curve" smooth="yes"/>
      <point x="474" y="673"/>
      <point x="556" y="641"/>
      <point x="613" y="589" type="curve" smooth="yes"/>
      <point x="684" y="524"/>
      <point x="721" y="441"/>
      <point x="721" y="347" type="curve" smooth="yes"/>
      <point x="721" y="166"/>
      <point x="575" y="20"/>
      <point x="395" y="20" type="curve" smooth="yes"/>
      <point x="213" y="20"/>
      <point x="68" y="166"/>
      <point x="68" y="349" type="curve" smooth="yes"/>
      <point x="68" y="428"/>
      <point x="98" y="506"/>
      <point x="152" y="565" type="curve" smooth="yes"/>
      <point x="217" y="637"/>
      <point x="300" y="673"/>
    </contour>
  </outline>
</glyph>
<glyph name="a144" format="1">
  <advance width="788"/>
  <outline>
    <contour>
      <point x="269" y="585" type="line"/>
      <point x="269" y="319" type="line"/>
      <point x="314" y="319" type="line"/>
      <point x="324" y="371"/>
      <point x="357" y="401"/>
      <point x="403" y="401" type="curve" smooth="yes"/>
      <point x="459" y="401"/>
      <point x="497" y="360"/>
      <point x="497" y="299" type="curve" smooth="yes"/>
      <point x="497" y="257"/>
      <point x="487" y="216"/>
      <point x="471" y="192" type="curve" smooth="yes"/>
      <point x="457" y="173"/>
      <point x="430" y="160"/>
      <point x="401" y="160" type="curve" smooth="yes"/>
      <point x="350" y="160"/>
      <point x="315" y="193"/>
      <point x="314" y="243" type="curve"/>
      <point x="269" y="231" type="line"/>
      <point x="273" y="157"/>
      <point x="323" y="110"/>
      <point x="398" y="110" type="curve" smooth="yes"/>
      <point x="490" y="110"/>
      <point x="557" y="184"/>
      <point x="557" y="286" type="curve" smooth="yes"/>
      <point x="557" y="380"/>
      <point x="496" y="446"/>
      <point x="409" y="446" type="curve" smooth="yes"/>
      <point x="363" y="446"/>
      <point x="336" y="433"/>
      <point x="314" y="402" type="curve"/>
      <point x="314" y="535" type="line"/>
      <point x="515" y="535" type="line"/>
      <point x="515" y="585" type="line"/>
    </contour>
    <contour>
      <point x="400" y="706" type="curve" smooth="yes"/>
      <point x="198" y="706"/>
      <point x="35" y="547"/>
      <point x="35" y="349" type="curve" smooth="yes"/>
      <point x="35" y="148"/>
      <point x="195" y="-13"/>
      <point x="395" y="-13" type="curve" smooth="yes"/>
      <point x="593" y="-13"/>
      <point x="754" y="148"/>
      <point x="754" y="347" type="curve" smooth="yes"/>
      <point x="754" y="542"/>
      <point x="593" y="706"/>
    </contour>
    <contour>
      <point x="400" y="673" type="curve" smooth="yes"/>
      <point x="474" y="673"/>
      <point x="556" y="641"/>
      <point x="613" y="589" type="curve" smooth="yes"/>
      <point x="684" y="524"/>
      <point x="721" y="441"/>
      <point x="721" y="347" type="curve" smooth="yes"/>
      <point x="721" y="166"/>
      <point x="575" y="20"/>
      <point x="395" y="20" type="curve" smooth="yes"/>
      <point x="213" y="20"/>
      <point x="68" y="166"/>
      <point x="68" y="349" type="curve" smooth="yes"/>
      <point x="68" y="428"/>
      <point x="98" y="506"/>
      <point x="152" y="565" type="curve" smooth="yes"/>
      <point x="217" y="637"/>
      <point x="300" y="673"/>
    </contour>
  </outline>
</glyph>
<glyph name="a145" format="1">
  <advance width="788"/>
  <outline>
    <contour>
      <point x="520" y="488" type="line"/>
      <point x="507" y="558"/>
      <point x="465" y="595"/>
      <point x="399" y="595" type="curve" smooth="yes"/>
      <point x="341" y="595"/>
      <point x="285" y="559"/>
      <point x="260" y="506" type="curve" smooth="yes"/>
      <point x="242" y="466"/>
      <point x="233" y="416"/>
      <point x="233" y="348" type="curve" smooth="yes"/>
      <point x="233" y="274"/>
      <point x="244" y="219"/>
      <point x="266" y="181" type="curve" smooth="yes"/>
      <point x="290" y="139"/>
      <point x="339" y="111"/>
      <point x="388" y="111" type="curve" smooth="yes"/>
      <point x="471" y="111"/>
      <point x="533" y="180"/>
      <point x="533" y="272" type="curve" smooth="yes"/>
      <point x="533" y="359"/>
      <point x="477" y="420"/>
      <point x="398" y="420" type="curve" smooth="yes"/>
      <point x="347" y="420"/>
      <point x="311" y="397"/>
      <point x="290" y="352" type="curve"/>
      <point x="289" y="362"/>
      <point x="289" y="371"/>
      <point x="289" y="375" type="curve" smooth="yes"/>
      <point x="289" y="483"/>
      <point x="330" y="550"/>
      <point x="395" y="550" type="curve" smooth="yes"/>
      <point x="421" y="550"/>
      <point x="444" y="537"/>
      <point x="455" y="518" type="curve" smooth="yes"/>
      <point x="461" y="507"/>
      <point x="463" y="500"/>
      <point x="469" y="474" type="curve"/>
    </contour>
    <contour>
      <point x="390" y="381" type="curve" smooth="yes"/>
      <point x="443" y="381"/>
      <point x="477" y="336"/>
      <point x="477" y="265" type="curve" smooth="yes"/>
      <point x="477" y="199"/>
      <point x="443" y="156"/>
      <point x="392" y="156" type="curve" smooth="yes"/>
      <point x="336" y="156"/>
      <point x="295" y="206"/>
      <point x="295" y="274" type="curve" smooth="yes"/>
      <point x="295" y="335"/>
      <point x="336" y="381"/>
    </contour>
    <contour>
      <point x="400" y="706" type="curve" smooth="yes"/>
      <point x="198" y="706"/>
      <point x="35" y="547"/>
      <point x="35" y="349" type="curve" smooth="yes"/>
      <point x="35" y="148"/>
      <point x="195" y="-13"/>
      <point x="395" y="-13" type="curve" smooth="yes"/>
      <point x="593" y="-13"/>
      <point x="754" y="148"/>
      <point x="754" y="347" type="curve" smooth="yes"/>
      <point x="754" y="542"/>
      <point x="593" y="706"/>
    </contour>
    <contour>
      <point x="400" y="673" type="curve" smooth="yes"/>
      <point x="474" y="673"/>
      <point x="556" y="641"/>
      <point x="613" y="589" type="curve" smooth="yes"/>
      <point x="684" y="524"/>
      <point x="721" y="441"/>
      <point x="721" y="347" type="curve" smooth="yes"/>
      <point x="721" y="166"/>
      <point x="575" y="20"/>
      <point x="395" y="20" type="curve" smooth="yes"/>
      <point x="213" y="20"/>
      <point x="68" y="166"/>
      <point x="68" y="349" type="curve" smooth="yes"/>
      <point x="68" y="428"/>
      <point x="98" y="506"/>
      <point x="152" y="565" type="curve" smooth="yes"/>
      <point x="217" y="637"/>
      <point x="300" y="673"/>
    </contour>
  </outline>
</glyph>
<glyph name="a147" format="1">
  <advance width="788"/>
  <outline>
    <contour>
      <point x="458" y="366" type="curve"/>
      <point x="475" y="373"/>
      <point x="484" y="378"/>
      <point x="492" y="383" type="curve" smooth="yes"/>
      <point x="518" y="401"/>
      <point x="533" y="434"/>
      <point x="533" y="471" type="curve" smooth="yes"/>
      <point x="533" y="545"/>
      <point x="479" y="595"/>
      <point x="401" y="595" type="curve" smooth="yes"/>
      <point x="321" y="595"/>
      <point x="263" y="543"/>
      <point x="263" y="473" type="curve" smooth="yes"/>
      <point x="263" y="422"/>
      <point x="285" y="389"/>
      <point x="335" y="366" type="curve"/>
      <point x="314" y="359"/>
      <point x="302" y="353"/>
      <point x="292" y="346" type="curve" smooth="yes"/>
      <point x="262" y="326"/>
      <point x="245" y="291"/>
      <point x="245" y="248" type="curve" smooth="yes"/>
      <point x="245" y="167"/>
      <point x="306" y="111"/>
      <point x="393" y="111" type="curve" smooth="yes"/>
      <point x="480" y="111"/>
      <point x="543" y="169"/>
      <point x="543" y="249" type="curve" smooth="yes"/>
      <point x="543" y="309"/>
      <point x="516" y="346"/>
    </contour>
    <contour>
      <point x="397" y="556" type="curve" smooth="yes"/>
      <point x="450" y="556"/>
      <point x="483" y="523"/>
      <point x="483" y="470" type="curve" smooth="yes"/>
      <point x="483" y="420"/>
      <point x="447" y="385"/>
      <point x="396" y="385" type="curve" smooth="yes"/>
      <point x="346" y="385"/>
      <point x="313" y="419"/>
      <point x="313" y="470" type="curve" smooth="yes"/>
      <point x="313" y="522"/>
      <point x="347" y="556"/>
    </contour>
    <contour>
      <point x="394" y="340" type="curve" smooth="yes"/>
      <point x="453" y="340"/>
      <point x="487" y="305"/>
      <point x="487" y="246" type="curve" smooth="yes"/>
      <point x="487" y="190"/>
      <point x="449" y="150"/>
      <point x="395" y="150" type="curve" smooth="yes"/>
      <point x="341" y="150"/>
      <point x="301" y="191"/>
      <point x="301" y="246" type="curve" smooth="yes"/>
      <point x="301" y="302"/>
      <point x="339" y="340"/>
    </contour>
    <contour>
      <point x="400" y="706" type="curve" smooth="yes"/>
      <point x="198" y="706"/>
      <point x="35" y="547"/>
      <point x="35" y="349" type="curve" smooth="yes"/>
      <point x="35" y="148"/>
      <point x="195" y="-13"/>
      <point x="395" y="-13" type="curve" smooth="yes"/>
      <point x="593" y="-13"/>
      <point x="754" y="148"/>
      <point x="754" y="347" type="curve" smooth="yes"/>
      <point x="754" y="542"/>
      <point x="593" y="706"/>
    </contour>
    <contour>
      <point x="400" y="673" type="curve" smooth="yes"/>
      <point x="474" y="673"/>
      <point x="556" y="641"/>
      <point x="613" y="589" type="curve" smooth="yes"/>
      <point x="684" y="524"/>
      <point x="721" y="441"/>
      <point x="721" y="347" type="curve" smooth="yes"/>
      <point x="721" y="166"/>
      <point x="575" y="20"/>
      <point x="395" y="20" type="curve" smooth="yes"/>
      <point x="213" y="20"/>
      <point x="68" y="166"/>
      <point x="68" y="349" type="curve" smooth="yes"/>
      <point x="68" y="428"/>
      <point x="98" y="506"/>
      <point x="152" y="565" type="curve" smooth="yes"/>
      <point x="217" y="637"/>
      <point x="300" y="673"/>
    </contour>
  </outline>
</glyph>
<glyph name="a148" format="1">
  <advance width="788"/>
  <outline>
    <contour>
      <point x="264" y="213" type="line"/>
      <point x="269" y="186"/>
      <point x="273" y="173"/>
      <point x="282" y="158" type="curve" smooth="yes"/>
      <point x="301" y="129"/>
      <point x="339" y="110"/>
      <point x="380" y="110" type="curve" smooth="yes"/>
      <point x="415" y="110"/>
      <point x="451" y="123"/>
      <point x="476" y="146" type="curve" smooth="yes"/>
      <point x="523" y="188"/>
      <point x="544" y="252"/>
      <point x="544" y="357" type="curve" smooth="yes"/>
      <point x="544" y="424"/>
      <point x="533" y="483"/>
      <point x="515" y="518" type="curve" smooth="yes"/>
      <point x="489" y="568"/>
      <point x="445" y="595"/>
      <point x="391" y="595" type="curve" smooth="yes"/>
      <point x="306" y="595"/>
      <point x="244" y="527"/>
      <point x="244" y="436" type="curve" smooth="yes"/>
      <point x="244" y="349"/>
      <point x="298" y="288"/>
      <point x="376" y="288" type="curve" smooth="yes"/>
      <point x="430" y="288"/>
      <point x="465" y="309"/>
      <point x="488" y="356" type="curve"/>
      <point x="486" y="275"/>
      <point x="480" y="241"/>
      <point x="465" y="211" type="curve" smooth="yes"/>
      <point x="447" y="175"/>
      <point x="418" y="155"/>
      <point x="385" y="155" type="curve" smooth="yes"/>
      <point x="348" y="155"/>
      <point x="323" y="178"/>
      <point x="313" y="223" type="curve"/>
    </contour>
    <contour>
      <point x="386" y="556" type="curve" smooth="yes"/>
      <point x="441" y="556"/>
      <point x="481" y="506"/>
      <point x="481" y="436" type="curve" smooth="yes"/>
      <point x="481" y="373"/>
      <point x="443" y="328"/>
      <point x="388" y="328" type="curve" smooth="yes"/>
      <point x="332" y="328"/>
      <point x="300" y="371"/>
      <point x="300" y="445" type="curve" smooth="yes"/>
      <point x="300" y="513"/>
      <point x="333" y="556"/>
    </contour>
    <contour>
      <point x="400" y="706" type="curve" smooth="yes"/>
      <point x="198" y="706"/>
      <point x="35" y="547"/>
      <point x="35" y="349" type="curve" smooth="yes"/>
      <point x="35" y="148"/>
      <point x="195" y="-13"/>
      <point x="395" y="-13" type="curve" smooth="yes"/>
      <point x="593" y="-13"/>
      <point x="754" y="148"/>
      <point x="754" y="347" type="curve" smooth="yes"/>
      <point x="754" y="542"/>
      <point x="593" y="706"/>
    </contour>
    <contour>
      <point x="400" y="673" type="curve" smooth="yes"/>
      <point x="474" y="673"/>
      <point x="556" y="641"/>
      <point x="613" y="589" type="curve" smooth="yes"/>
      <point x="684" y="524"/>
      <point x="721" y="441"/>
      <point x="721" y="347" type="curve" smooth="yes"/>
      <point x="721" y="166"/>
      <point x="575" y="20"/>
      <point x="395" y="20" type="curve" smooth="yes"/>
      <point x="213" y="20"/>
      <point x="68" y="166"/>
      <point x="68" y="349" type="curve" smooth="yes"/>
      <point x="68" y="428"/>
      <point x="98" y="506"/>
      <point x="152" y="565" type="curve" smooth="yes"/>
      <point x="217" y="637"/>
      <point x="300" y="673"/>
    </contour>
  </outline>
</glyph>
<glyph name="a149" format="1">
  <advance width="788"/>
  <outline>
    <contour>
      <point x="480" y="595" type="curve" smooth="yes"/>
      <point x="438" y="595"/>
      <point x="401" y="576"/>
      <point x="376" y="543" type="curve" smooth="yes"/>
      <point x="347" y="504"/>
      <point x="334" y="445"/>
      <point x="334" y="357" type="curve" smooth="yes"/>
      <point x="334" y="264"/>
      <point x="352" y="192"/>
      <point x="386" y="152" type="curve" smooth="yes"/>
      <point x="408" y="125"/>
      <point x="442" y="110"/>
      <point x="477" y="110" type="curve" smooth="yes"/>
      <point x="517" y="110"/>
      <point x="551" y="127"/>
      <point x="577" y="161" type="curve" smooth="yes"/>
      <point x="606" y="197"/>
      <point x="622" y="264"/>
      <point x="622" y="346" type="curve" smooth="yes"/>
      <point x="622" y="513"/>
      <point x="575" y="595"/>
    </contour>
    <contour>
      <point x="477" y="556" type="curve" smooth="yes"/>
      <point x="535" y="556"/>
      <point x="563" y="486"/>
      <point x="563" y="347" type="curve" smooth="yes"/>
      <point x="563" y="216"/>
      <point x="536" y="150"/>
      <point x="481" y="150" type="curve" smooth="yes"/>
      <point x="425" y="150"/>
      <point x="393" y="225"/>
      <point x="393" y="358" type="curve" smooth="yes"/>
      <point x="393" y="488"/>
      <point x="422" y="556"/>
    </contour>
    <contour>
      <point x="253" y="588" type="line"/>
      <point x="248" y="542"/>
      <point x="210" y="514"/>
      <point x="151" y="513" type="curve"/>
      <point x="151" y="472" type="line"/>
      <point x="234" y="472" type="line"/>
      <point x="234" y="117" type="line"/>
      <point x="294" y="117" type="line"/>
      <point x="294" y="588" type="line"/>
    </contour>
    <contour>
      <point x="400" y="706" type="curve" smooth="yes"/>
      <point x="198" y="706"/>
      <point x="35" y="547"/>
      <point x="35" y="349" type="curve" smooth="yes"/>
      <point x="35" y="148"/>
      <point x="195" y="-13"/>
      <point x="395" y="-13" type="curve" smooth="yes"/>
      <point x="593" y="-13"/>
      <point x="754" y="148"/>
      <point x="754" y="347" type="curve" smooth="yes"/>
      <point x="754" y="542"/>
      <point x="593" y="706"/>
    </contour>
    <contour>
      <point x="400" y="673" type="curve" smooth="yes"/>
      <point x="474" y="673"/>
      <point x="556" y="641"/>
      <point x="613" y="589" type="curve" smooth="yes"/>
      <point x="684" y="524"/>
      <point x="721" y="441"/>
      <point x="721" y="347" type="curve" smooth="yes"/>
      <point x="721" y="166"/>
      <point x="575" y="20"/>
      <point x="395" y="20" type="curve" smooth="yes"/>
      <point x="213" y="20"/>
      <point x="68" y="166"/>
      <point x="68" y="349" type="curve" smooth="yes"/>
      <point x="68" y="428"/>
      <point x="98" y="506"/>
      <point x="152" y="565" type="curve" smooth="yes"/>
      <point x="217" y="637"/>
      <point x="300" y="673"/>
    </contour>
  </outline>
</glyph>
<glyph name="a15" format="1">
  <advance width="911"/>
  <outline>
    <contour>
      <point x="194" y="554" type="curve" smooth="yes"/>
      <point x="162" y="554"/>
      <point x="122" y="503"/>
      <point x="122" y="461" type="curve" smooth="yes"/>
      <point x="122" y="442"/>
      <point x="136" y="425"/>
      <point x="153" y="425" type="curve" smooth="yes"/>
      <point x="184" y="425"/>
      <point x="222" y="476"/>
      <point x="222" y="518" type="curve" smooth="yes"/>
      <point x="222" y="538"/>
      <point x="210" y="554"/>
    </contour>
    <contour>
      <point x="265" y="641" type="line"/>
      <point x="116" y="616" type="line"/>
      <point x="35" y="480" type="line"/>
      <point x="76" y="326" type="line"/>
      <point x="510" y="65" type="line" smooth="yes"/>
      <point x="524" y="57"/>
      <point x="545" y="51"/>
      <point x="563" y="51" type="curve" smooth="yes"/>
      <point x="840" y="51" type="line" smooth="yes"/>
      <point x="864" y="51"/>
      <point x="876" y="59"/>
      <point x="876" y="75" type="curve" smooth="yes"/>
      <point x="876" y="81"/>
      <point x="875" y="84"/>
      <point x="869" y="95" type="curve" smooth="yes"/>
      <point x="726" y="346" type="line" smooth="yes"/>
      <point x="715" y="366"/>
      <point x="710" y="371"/>
      <point x="694" y="380" type="curve" smooth="yes"/>
      <point x="684" y="386" type="line"/>
    </contour>
    <contour>
      <point x="257" y="617" type="line"/>
      <point x="291" y="498" type="line"/>
      <point x="218" y="374" type="line"/>
      <point x="97" y="348" type="line"/>
      <point x="64" y="478" type="line"/>
      <point x="133" y="594" type="line"/>
    </contour>
    <contour>
      <point x="794" y="178" type="line"/>
      <point x="816" y="145"/>
      <point x="816" y="144"/>
      <point x="816" y="135" type="curve" smooth="yes"/>
      <point x="816" y="123"/>
      <point x="801" y="98"/>
      <point x="788" y="86" type="curve" smooth="yes"/>
      <point x="781" y="79"/>
      <point x="767" y="75"/>
      <point x="752" y="75" type="curve" smooth="yes"/>
      <point x="571" y="75" type="line"/>
      <point x="665" y="138"/>
      <point x="705" y="207"/>
      <point x="713" y="316" type="curve"/>
    </contour>
    <contour>
      <point x="290" y="599" type="line"/>
      <point x="684" y="359" type="line"/>
      <point x="687" y="341"/>
      <point x="688" y="332"/>
      <point x="688" y="319" type="curve" smooth="yes"/>
      <point x="688" y="305"/>
      <point x="687" y="295"/>
      <point x="684" y="275" type="curve"/>
      <point x="318" y="494" type="line"/>
    </contour>
    <contour>
      <point x="306" y="474" type="line"/>
      <point x="675" y="251" type="line"/>
      <point x="671" y="224"/>
      <point x="635" y="164"/>
      <point x="612" y="146" type="curve"/>
      <point x="243" y="370" type="line"/>
    </contour>
    <contour>
      <point x="231" y="349" type="line"/>
      <point x="596" y="129" type="line"/>
      <point x="580" y="110"/>
      <point x="547" y="81"/>
      <point x="534" y="75" type="curve"/>
      <point x="120" y="328" type="line"/>
    </contour>
  </outline>
</glyph>
<glyph name="a150" format="1">
  <advance width="788"/>
  <outline>
    <contour>
      <point x="401" y="706" type="curve" smooth="yes"/>
      <point x="198" y="706"/>
      <point x="35" y="548"/>
      <point x="35" y="350" type="curve" smooth="yes"/>
      <point x="35" y="148"/>
      <point x="195" y="-13"/>
      <point x="395" y="-13" type="curve" smooth="yes"/>
      <point x="594" y="-13"/>
      <point x="755" y="148"/>
      <point x="755" y="347" type="curve" smooth="yes"/>
      <point x="755" y="543"/>
      <point x="594" y="706"/>
    </contour>
    <contour>
      <point x="445" y="601" type="line"/>
      <point x="445" y="118" type="line"/>
      <point x="354" y="118" type="line"/>
      <point x="354" y="474" type="line"/>
      <point x="258" y="474" type="line"/>
      <point x="258" y="528" type="line"/>
      <point x="345" y="527"/>
      <point x="368" y="541"/>
      <point x="380" y="601" type="curve"/>
    </contour>
  </outline>
</glyph>
<glyph name="a151" format="1">
  <advance width="788"/>
  <outline>
    <contour>
      <point x="400" y="706" type="curve" smooth="yes"/>
      <point x="197" y="706"/>
      <point x="34" y="547"/>
      <point x="34" y="349" type="curve" smooth="yes"/>
      <point x="34" y="148"/>
      <point x="194" y="-13"/>
      <point x="394" y="-13" type="curve" smooth="yes"/>
      <point x="593" y="-13"/>
      <point x="754" y="148"/>
      <point x="754" y="347" type="curve" smooth="yes"/>
      <point x="754" y="542"/>
      <point x="593" y="706"/>
    </contour>
    <contour>
      <point x="551" y="183" type="line"/>
      <point x="551" y="118" type="line"/>
      <point x="235" y="118" type="line"/>
      <point x="234" y="127"/>
      <point x="233" y="135"/>
      <point x="233" y="139" type="curve" smooth="yes"/>
      <point x="233" y="170"/>
      <point x="247" y="203"/>
      <point x="270" y="232" type="curve" smooth="yes"/>
      <point x="292" y="259"/>
      <point x="310" y="273"/>
      <point x="358" y="304" type="curve" smooth="yes"/>
      <point x="442" y="358"/>
      <point x="467" y="391"/>
      <point x="467" y="449" type="curve" smooth="yes"/>
      <point x="467" y="506"/>
      <point x="435" y="545"/>
      <point x="389" y="545" type="curve" smooth="yes"/>
      <point x="343" y="545"/>
      <point x="314" y="507"/>
      <point x="314" y="446" type="curve" smooth="yes"/>
      <point x="314" y="442"/>
      <point x="314" y="435"/>
      <point x="315" y="426" type="curve"/>
      <point x="227" y="434" type="line"/>
      <point x="226" y="442"/>
      <point x="226" y="450"/>
      <point x="226" y="454" type="curve" smooth="yes"/>
      <point x="226" y="541"/>
      <point x="296" y="605"/>
      <point x="390" y="605" type="curve" smooth="yes"/>
      <point x="488" y="605"/>
      <point x="559" y="539"/>
      <point x="559" y="449" type="curve" smooth="yes"/>
      <point x="559" y="389"/>
      <point x="532" y="343"/>
      <point x="471" y="296" type="curve" smooth="yes"/>
      <point x="451" y="281"/>
      <point x="426" y="264"/>
      <point x="397" y="244" type="curve" smooth="yes"/>
      <point x="350" y="213"/>
      <point x="339" y="203"/>
      <point x="329" y="183" type="curve"/>
    </contour>
  </outline>
</glyph>
<glyph name="a152" format="1">
  <advance width="788"/>
  <outline>
    <contour>
      <point x="400" y="706" type="curve" smooth="yes"/>
      <point x="197" y="706"/>
      <point x="34" y="547"/>
      <point x="34" y="349" type="curve" smooth="yes"/>
      <point x="34" y="148"/>
      <point x="194" y="-13"/>
      <point x="394" y="-13" type="curve" smooth="yes"/>
      <point x="593" y="-13"/>
      <point x="754" y="148"/>
      <point x="754" y="347" type="curve" smooth="yes"/>
      <point x="754" y="542"/>
      <point x="593" y="706"/>
    </contour>
    <contour>
      <point x="242" y="467" type="line"/>
      <point x="244" y="506"/>
      <point x="249" y="527"/>
      <point x="264" y="549" type="curve" smooth="yes"/>
      <point x="288" y="585"/>
      <point x="337" y="608"/>
      <point x="391" y="608" type="curve" smooth="yes"/>
      <point x="479" y="608"/>
      <point x="544" y="550"/>
      <point x="544" y="471" type="curve" smooth="yes"/>
      <point x="544" y="426"/>
      <point x="525" y="392"/>
      <point x="486" y="371" type="curve"/>
      <point x="503" y="361"/>
      <point x="514" y="353"/>
      <point x="522" y="347" type="curve"/>
      <point x="545" y="326"/>
      <point x="558" y="294"/>
      <point x="558" y="255" type="curve" smooth="yes"/>
      <point x="558" y="168"/>
      <point x="491" y="106"/>
      <point x="395" y="106" type="curve" smooth="yes"/>
      <point x="305" y="106"/>
      <point x="240" y="161"/>
      <point x="240" y="239" type="curve" smooth="yes"/>
      <point x="240" y="242"/>
      <point x="241" y="253"/>
      <point x="242" y="261" type="curve"/>
      <point x="324" y="279" type="line"/>
      <point x="323" y="272"/>
      <point x="323" y="263"/>
      <point x="323" y="261" type="curve" smooth="yes"/>
      <point x="323" y="206"/>
      <point x="349" y="176"/>
      <point x="396" y="176" type="curve" smooth="yes"/>
      <point x="441" y="176"/>
      <point x="471" y="209"/>
      <point x="471" y="259" type="curve" smooth="yes"/>
      <point x="471" y="310"/>
      <point x="440" y="339"/>
      <point x="386" y="339" type="curve" smooth="yes"/>
      <point x="374" y="339"/>
      <point x="362" y="338"/>
      <point x="336" y="336" type="curve"/>
      <point x="336" y="397" type="line"/>
      <point x="359" y="395"/>
      <point x="368" y="394"/>
      <point x="374" y="394" type="curve" smooth="yes"/>
      <point x="426" y="394"/>
      <point x="458" y="423"/>
      <point x="458" y="469" type="curve" smooth="yes"/>
      <point x="458" y="519"/>
      <point x="434" y="548"/>
      <point x="391" y="548" type="curve" smooth="yes"/>
      <point x="367" y="548"/>
      <point x="347" y="538"/>
      <point x="336" y="520" type="curve" smooth="yes"/>
      <point x="327" y="506"/>
      <point x="324" y="493"/>
      <point x="324" y="458" type="curve"/>
    </contour>
  </outline>
</glyph>
<glyph name="a153" format="1">
  <advance width="788"/>
  <outline>
    <contour>
      <point x="394" y="486" type="line"/>
      <point x="271" y="301" type="line"/>
      <point x="394" y="301" type="line"/>
    </contour>
    <contour>
      <point x="400" y="706" type="curve" smooth="yes"/>
      <point x="198" y="706"/>
      <point x="35" y="547"/>
      <point x="35" y="350" type="curve" smooth="yes"/>
      <point x="35" y="148"/>
      <point x="195" y="-13"/>
      <point x="395" y="-13" type="curve" smooth="yes"/>
      <point x="593" y="-13"/>
      <point x="754" y="148"/>
      <point x="754" y="347" type="curve" smooth="yes"/>
      <point x="754" y="542"/>
      <point x="593" y="706"/>
    </contour>
    <contour>
      <point x="551" y="301" type="line"/>
      <point x="551" y="235" type="line"/>
      <point x="476" y="235" type="line"/>
      <point x="476" y="118" type="line"/>
      <point x="394" y="118" type="line"/>
      <point x="394" y="235" type="line"/>
      <point x="187" y="235" type="line"/>
      <point x="187" y="301" type="line"/>
      <point x="404" y="606" type="line"/>
      <point x="476" y="606" type="line"/>
      <point x="476" y="301" type="line"/>
    </contour>
  </outline>
</glyph>
<glyph name="a154" format="1">
  <advance width="788"/>
  <outline>
    <contour>
      <point x="400" y="706" type="curve" smooth="yes"/>
      <point x="197" y="706"/>
      <point x="35" y="547"/>
      <point x="35" y="349" type="curve" smooth="yes"/>
      <point x="35" y="148"/>
      <point x="195" y="-13"/>
      <point x="394" y="-13" type="curve" smooth="yes"/>
      <point x="593" y="-13"/>
      <point x="754" y="148"/>
      <point x="754" y="347" type="curve" smooth="yes"/>
      <point x="754" y="543"/>
      <point x="593" y="706"/>
    </contour>
    <contour>
      <point x="255" y="600" type="line"/>
      <point x="536" y="600" type="line"/>
      <point x="536" y="535" type="line"/>
      <point x="326" y="535" type="line"/>
      <point x="326" y="440" type="line"/>
      <point x="360" y="456"/>
      <point x="377" y="460"/>
      <point x="408" y="460" type="curve" smooth="yes"/>
      <point x="506" y="460"/>
      <point x="572" y="393"/>
      <point x="572" y="293" type="curve" smooth="yes"/>
      <point x="572" y="187"/>
      <point x="499" y="111"/>
      <point x="397" y="111" type="curve" smooth="yes"/>
      <point x="313" y="111"/>
      <point x="259" y="161"/>
      <point x="255" y="242" type="curve"/>
      <point x="326" y="261" type="line"/>
      <point x="326" y="204"/>
      <point x="352" y="171"/>
      <point x="399" y="171" type="curve" smooth="yes"/>
      <point x="452" y="171"/>
      <point x="482" y="214"/>
      <point x="482" y="291" type="curve" smooth="yes"/>
      <point x="482" y="328"/>
      <point x="478" y="347"/>
      <point x="467" y="365" type="curve" smooth="yes"/>
      <point x="453" y="386"/>
      <point x="428" y="400"/>
      <point x="402" y="400" type="curve" smooth="yes"/>
      <point x="361" y="400"/>
      <point x="336" y="373"/>
      <point x="326" y="319" type="curve"/>
      <point x="255" y="319" type="line"/>
    </contour>
  </outline>
</glyph>
<glyph name="a155" format="1">
  <advance width="788"/>
  <outline>
    <contour>
      <point x="389" y="376" type="curve" smooth="yes"/>
      <point x="343" y="376"/>
      <point x="309" y="334"/>
      <point x="309" y="278" type="curve" smooth="yes"/>
      <point x="309" y="217"/>
      <point x="344" y="171"/>
      <point x="392" y="171" type="curve" smooth="yes"/>
      <point x="435" y="171"/>
      <point x="462" y="209"/>
      <point x="462" y="269" type="curve" smooth="yes"/>
      <point x="462" y="335"/>
      <point x="434" y="376"/>
    </contour>
    <contour>
      <point x="400" y="706" type="curve" smooth="yes"/>
      <point x="198" y="706"/>
      <point x="35" y="547"/>
      <point x="35" y="349" type="curve" smooth="yes"/>
      <point x="35" y="148"/>
      <point x="195" y="-13"/>
      <point x="395" y="-13" type="curve" smooth="yes"/>
      <point x="593" y="-13"/>
      <point x="754" y="148"/>
      <point x="754" y="347" type="curve" smooth="yes"/>
      <point x="754" y="542"/>
      <point x="593" y="706"/>
    </contour>
    <contour>
      <point x="458" y="471" type="line"/>
      <point x="456" y="479"/>
      <point x="454" y="486"/>
      <point x="453" y="489" type="curve"/>
      <point x="442" y="532"/>
      <point x="427" y="546"/>
      <point x="393" y="546" type="curve" smooth="yes"/>
      <point x="357" y="546"/>
      <point x="331" y="525"/>
      <point x="319" y="486" type="curve" smooth="yes"/>
      <point x="310" y="461"/>
      <point x="308" y="444"/>
      <point x="303" y="393" type="curve"/>
      <point x="338" y="424"/>
      <point x="362" y="434"/>
      <point x="401" y="434" type="curve" smooth="yes"/>
      <point x="486" y="434"/>
      <point x="547" y="368"/>
      <point x="547" y="277" type="curve" smooth="yes"/>
      <point x="547" y="179"/>
      <point x="479" y="106"/>
      <point x="388" y="106" type="curve" smooth="yes"/>
      <point x="335" y="106"/>
      <point x="283" y="134"/>
      <point x="255" y="177" type="curve" smooth="yes"/>
      <point x="231" y="215"/>
      <point x="219" y="271"/>
      <point x="219" y="351" type="curve" smooth="yes"/>
      <point x="219" y="423"/>
      <point x="228" y="470"/>
      <point x="251" y="514" type="curve" smooth="yes"/>
      <point x="279" y="569"/>
      <point x="337" y="604"/>
      <point x="399" y="604" type="curve" smooth="yes"/>
      <point x="446" y="604"/>
      <point x="487" y="586"/>
      <point x="510" y="554" type="curve" smooth="yes"/>
      <point x="522" y="537"/>
      <point x="528" y="523"/>
      <point x="534" y="491" type="curve"/>
    </contour>
  </outline>
</glyph>
<glyph name="a156" format="1">
  <advance width="788"/>
  <outline>
    <contour>
      <point x="400" y="706" type="curve" smooth="yes"/>
      <point x="197" y="706"/>
      <point x="35" y="547"/>
      <point x="35" y="349" type="curve" smooth="yes"/>
      <point x="35" y="148"/>
      <point x="195" y="-13"/>
      <point x="395" y="-13" type="curve" smooth="yes"/>
      <point x="593" y="-13"/>
      <point x="754" y="148"/>
      <point x="754" y="346" type="curve" smooth="yes"/>
      <point x="754" y="542"/>
      <point x="593" y="706"/>
    </contour>
    <contour>
      <point x="223" y="599" type="line"/>
      <point x="563" y="599" type="line"/>
      <point x="563" y="549" type="line"/>
      <point x="458" y="374"/>
      <point x="414" y="265"/>
      <point x="391" y="117" type="curve"/>
      <point x="296" y="117" type="line"/>
      <point x="315" y="252"/>
      <point x="386" y="408"/>
      <point x="485" y="534" type="curve"/>
      <point x="223" y="534" type="line"/>
    </contour>
  </outline>
</glyph>
<glyph name="a157" format="1">
  <advance width="788"/>
  <outline>
    <contour>
      <point x="398" y="551" type="curve" smooth="yes"/>
      <point x="358" y="551"/>
      <point x="332" y="522"/>
      <point x="332" y="475" type="curve" smooth="yes"/>
      <point x="332" y="428"/>
      <point x="357" y="399"/>
      <point x="397" y="399" type="curve" smooth="yes"/>
      <point x="438" y="399"/>
      <point x="466" y="430"/>
      <point x="466" y="477" type="curve" smooth="yes"/>
      <point x="466" y="523"/>
      <point x="440" y="551"/>
    </contour>
    <contour>
      <point x="393" y="340" type="curve" smooth="yes"/>
      <point x="346" y="340"/>
      <point x="315" y="307"/>
      <point x="315" y="257" type="curve" smooth="yes"/>
      <point x="315" y="205"/>
      <point x="348" y="169"/>
      <point x="395" y="169" type="curve" smooth="yes"/>
      <point x="442" y="169"/>
      <point x="474" y="205"/>
      <point x="474" y="257" type="curve" smooth="yes"/>
      <point x="474" y="309"/>
      <point x="444" y="340"/>
    </contour>
    <contour>
      <point x="400" y="706" type="curve" smooth="yes"/>
      <point x="198" y="706"/>
      <point x="35" y="547"/>
      <point x="35" y="349" type="curve" smooth="yes"/>
      <point x="35" y="148"/>
      <point x="195" y="-13"/>
      <point x="395" y="-13" type="curve" smooth="yes"/>
      <point x="593" y="-13"/>
      <point x="754" y="148"/>
      <point x="754" y="347" type="curve" smooth="yes"/>
      <point x="754" y="542"/>
      <point x="593" y="706"/>
    </contour>
    <contour>
      <point x="480" y="374" type="curve"/>
      <point x="537" y="340"/>
      <point x="556" y="311"/>
      <point x="556" y="259" type="curve" smooth="yes"/>
      <point x="556" y="172"/>
      <point x="486" y="106"/>
      <point x="393" y="106" type="curve" smooth="yes"/>
      <point x="301" y="106"/>
      <point x="232" y="170"/>
      <point x="232" y="255" type="curve" smooth="yes"/>
      <point x="232" y="312"/>
      <point x="260" y="352"/>
      <point x="314" y="374" type="curve"/>
      <point x="274" y="394"/>
      <point x="250" y="432"/>
      <point x="250" y="478" type="curve" smooth="yes"/>
      <point x="250" y="552"/>
      <point x="316" y="609"/>
      <point x="401" y="609" type="curve" smooth="yes"/>
      <point x="485" y="609"/>
      <point x="546" y="553"/>
      <point x="546" y="477" type="curve" smooth="yes"/>
      <point x="546" y="429"/>
      <point x="528" y="401"/>
    </contour>
  </outline>
</glyph>
<glyph name="a158" format="1">
  <advance width="788"/>
  <outline>
    <contour>
      <point x="384" y="551" type="curve" smooth="yes"/>
      <point x="341" y="551"/>
      <point x="314" y="513"/>
      <point x="314" y="453" type="curve" smooth="yes"/>
      <point x="314" y="387"/>
      <point x="342" y="346"/>
      <point x="387" y="346" type="curve" smooth="yes"/>
      <point x="433" y="346"/>
      <point x="467" y="388"/>
      <point x="467" y="444" type="curve" smooth="yes"/>
      <point x="467" y="505"/>
      <point x="432" y="551"/>
    </contour>
    <contour>
      <point x="400" y="706" type="curve" smooth="yes"/>
      <point x="198" y="706"/>
      <point x="35" y="547"/>
      <point x="35" y="349" type="curve" smooth="yes"/>
      <point x="35" y="148"/>
      <point x="195" y="-13"/>
      <point x="395" y="-13" type="curve" smooth="yes"/>
      <point x="593" y="-13"/>
      <point x="754" y="148"/>
      <point x="754" y="347" type="curve" smooth="yes"/>
      <point x="754" y="542"/>
      <point x="593" y="706"/>
    </contour>
    <contour>
      <point x="325" y="239" type="line"/>
      <point x="335" y="187"/>
      <point x="353" y="166"/>
      <point x="385" y="166" type="curve" smooth="yes"/>
      <point x="401" y="166"/>
      <point x="419" y="174"/>
      <point x="431" y="186" type="curve" smooth="yes"/>
      <point x="457" y="214"/>
      <point x="467" y="246"/>
      <point x="472" y="321" type="curve"/>
      <point x="445" y="294"/>
      <point x="414" y="282"/>
      <point x="374" y="282" type="curve" smooth="yes"/>
      <point x="290" y="282"/>
      <point x="230" y="348"/>
      <point x="230" y="440" type="curve" smooth="yes"/>
      <point x="230" y="537"/>
      <point x="298" y="608"/>
      <point x="390" y="608" type="curve" smooth="yes"/>
      <point x="440" y="608"/>
      <point x="482" y="588"/>
      <point x="512" y="549" type="curve" smooth="yes"/>
      <point x="542" y="511"/>
      <point x="557" y="448"/>
      <point x="557" y="362" type="curve" smooth="yes"/>
      <point x="557" y="290"/>
      <point x="545" y="227"/>
      <point x="524" y="191" type="curve" smooth="yes"/>
      <point x="493" y="137"/>
      <point x="440" y="106"/>
      <point x="380" y="106" type="curve" smooth="yes"/>
      <point x="335" y="106"/>
      <point x="294" y="125"/>
      <point x="272" y="157" type="curve" smooth="yes"/>
      <point x="260" y="174"/>
      <point x="255" y="190"/>
      <point x="249" y="225" type="curve"/>
    </contour>
  </outline>
</glyph>
<glyph name="a159" format="1">
  <advance width="788"/>
  <outline>
    <contour>
      <point x="484" y="549" type="curve" smooth="yes"/>
      <point x="438" y="549"/>
      <point x="414" y="483"/>
      <point x="414" y="361" type="curve" smooth="yes"/>
      <point x="414" y="239"/>
      <point x="442" y="165"/>
      <point x="487" y="165" type="curve" smooth="yes"/>
      <point x="531" y="165"/>
      <point x="555" y="230"/>
      <point x="555" y="351" type="curve" smooth="yes"/>
      <point x="555" y="481"/>
      <point x="530" y="549"/>
    </contour>
    <contour>
      <point x="400" y="706" type="curve" smooth="yes"/>
      <point x="198" y="706"/>
      <point x="35" y="547"/>
      <point x="35" y="349" type="curve" smooth="yes"/>
      <point x="35" y="148"/>
      <point x="194" y="-13"/>
      <point x="395" y="-13" type="curve" smooth="yes"/>
      <point x="594" y="-13"/>
      <point x="754" y="148"/>
      <point x="754" y="347" type="curve" smooth="yes"/>
      <point x="754" y="542"/>
      <point x="593" y="706"/>
    </contour>
    <contour>
      <point x="301" y="601" type="line"/>
      <point x="301" y="117" type="line"/>
      <point x="215" y="117" type="line"/>
      <point x="215" y="472" type="line"/>
      <point x="132" y="472" type="line"/>
      <point x="132" y="526" type="line"/>
      <point x="199" y="525"/>
      <point x="229" y="547"/>
      <point x="235" y="601" type="curve"/>
    </contour>
    <contour>
      <point x="486" y="608" type="curve" smooth="yes"/>
      <point x="590" y="608"/>
      <point x="643" y="523"/>
      <point x="643" y="354" type="curve" smooth="yes"/>
      <point x="643" y="193"/>
      <point x="587" y="106"/>
      <point x="483" y="106" type="curve" smooth="yes"/>
      <point x="381" y="106"/>
      <point x="326" y="196"/>
      <point x="326" y="362" type="curve" smooth="yes"/>
      <point x="326" y="452"/>
      <point x="341" y="515"/>
      <point x="373" y="555" type="curve" smooth="yes"/>
      <point x="401" y="589"/>
      <point x="440" y="608"/>
    </contour>
  </outline>
</glyph>
<glyph name="a16" format="1">
  <advance width="933"/>
  <outline>
    <contour>
      <point x="145" y="424" type="curve" smooth="yes"/>
      <point x="120" y="424"/>
      <point x="106" y="396"/>
      <point x="106" y="346" type="curve" smooth="yes"/>
      <point x="106" y="295"/>
      <point x="120" y="267"/>
      <point x="145" y="267" type="curve" smooth="yes"/>
      <point x="170" y="267"/>
      <point x="184" y="295"/>
      <point x="184" y="346" type="curve" smooth="yes"/>
      <point x="184" y="396"/>
      <point x="170" y="424"/>
    </contour>
    <contour>
      <point x="136" y="141" type="line"/>
      <point x="597" y="141" type="line"/>
      <point x="615" y="142"/>
      <point x="617" y="142"/>
      <point x="620" y="142" type="curve"/>
      <point x="629" y="143"/>
      <point x="629" y="144"/>
      <point x="643" y="154" type="curve" smooth="yes"/>
      <point x="868" y="311" type="line" smooth="yes"/>
      <point x="898" y="331"/>
      <point x="899" y="333"/>
      <point x="899" y="346" type="curve" smooth="yes"/>
      <point x="899" y="358"/>
      <point x="898" y="360"/>
      <point x="868" y="380" type="curve" smooth="yes"/>
      <point x="643" y="537" type="line" smooth="yes"/>
      <point x="640" y="539"/>
      <point x="637" y="541"/>
      <point x="634" y="544" type="curve"/>
      <point x="630" y="547"/>
      <point x="625" y="549"/>
      <point x="620" y="549" type="curve" smooth="yes"/>
      <point x="597" y="550" type="line"/>
      <point x="136" y="550" type="line"/>
      <point x="35" y="431" type="line"/>
      <point x="35" y="259" type="line"/>
    </contour>
    <contour>
      <point x="227" y="268" type="line"/>
      <point x="145" y="169" type="line"/>
      <point x="63" y="264" type="line"/>
      <point x="63" y="426" type="line"/>
      <point x="145" y="521" type="line"/>
      <point x="227" y="423" type="line"/>
    </contour>
    <contour>
      <point x="647" y="192" type="line"/>
      <point x="674" y="252"/>
      <point x="687" y="301"/>
      <point x="687" y="346" type="curve" smooth="yes"/>
      <point x="687" y="390"/>
      <point x="675" y="437"/>
      <point x="647" y="498" type="curve"/>
      <point x="806" y="389" type="line"/>
      <point x="812" y="372"/>
      <point x="814" y="363"/>
      <point x="814" y="345" type="curve" smooth="yes"/>
      <point x="814" y="328"/>
      <point x="812" y="318"/>
      <point x="806" y="302" type="curve"/>
    </contour>
    <contour>
      <point x="600" y="519" type="line"/>
      <point x="612" y="500"/>
      <point x="624" y="472"/>
      <point x="635" y="439" type="curve"/>
      <point x="251" y="439" type="line"/>
      <point x="185" y="519" type="line"/>
    </contour>
    <contour>
      <point x="255" y="278" type="line"/>
      <point x="255" y="409" type="line"/>
      <point x="643" y="409" type="line"/>
      <point x="648" y="391"/>
      <point x="650" y="376"/>
      <point x="650" y="343" type="curve" smooth="yes"/>
      <point x="650" y="311"/>
      <point x="648" y="296"/>
      <point x="643" y="278" type="curve"/>
    </contour>
    <contour>
      <point x="640" y="247" type="line"/>
      <point x="624" y="204"/>
      <point x="619" y="192"/>
      <point x="609" y="171" type="curve"/>
      <point x="179" y="171" type="line"/>
      <point x="247" y="247" type="line"/>
    </contour>
  </outline>
</glyph>
<glyph name="a160" format="1">
  <advance width="894"/>
  <outline>
    <contour>
      <point x="398" y="634" type="line"/>
      <point x="613" y="414" type="line"/>
      <point x="35" y="414" type="line"/>
      <point x="35" y="282" type="line"/>
      <point x="613" y="282" type="line"/>
      <point x="398" y="58" type="line"/>
      <point x="577" y="58" type="line"/>
      <point x="860" y="345" type="line"/>
      <point x="577" y="634" type="line"/>
    </contour>
  </outline>
</glyph>
<glyph name="a161" format="1">
  <advance width="838"/>
  <outline>
    <contour>
      <point x="35" y="353" type="line"/>
      <point x="35" y="334" type="line"/>
      <point x="624" y="334" type="line"/>
      <point x="568" y="265"/>
      <point x="546" y="211"/>
      <point x="547" y="151" type="curve"/>
      <point x="607" y="237"/>
      <point x="717" y="320"/>
      <point x="803" y="343" type="curve"/>
      <point x="718" y="367"/>
      <point x="617" y="444"/>
      <point x="547" y="537" type="curve"/>
      <point x="545" y="476"/>
      <point x="581" y="391"/>
      <point x="624" y="353" type="curve"/>
    </contour>
  </outline>
</glyph>
<glyph name="a162" format="1">
  <advance width="924"/>
  <outline>
    <contour>
      <point x="35" y="82" type="line"/>
      <point x="889" y="361" type="line"/>
      <point x="35" y="610" type="line"/>
      <point x="329" y="353" type="line"/>
    </contour>
    <contour>
      <point x="157" y="154" type="line"/>
      <point x="374" y="351" type="line"/>
      <point x="795" y="361" type="line"/>
    </contour>
  </outline>
</glyph>
<glyph name="a163" format="1">
  <advance width="1016"/>
  <outline>
    <contour>
      <point x="213" y="353" type="line"/>
      <point x="267" y="419"/>
      <point x="292" y="479"/>
      <point x="290" y="537" type="curve"/>
      <point x="231" y="452"/>
      <point x="118" y="366"/>
      <point x="34" y="343" type="curve"/>
      <point x="117" y="321"/>
      <point x="224" y="241"/>
      <point x="290" y="151" type="curve"/>
      <point x="292" y="212"/>
      <point x="257" y="295"/>
      <point x="213" y="334" type="curve"/>
      <point x="803" y="334" type="line"/>
      <point x="747" y="265"/>
      <point x="724" y="211"/>
      <point x="726" y="151" type="curve"/>
      <point x="785" y="237"/>
      <point x="896" y="321"/>
      <point x="981" y="343" type="curve"/>
      <point x="897" y="366"/>
      <point x="795" y="444"/>
      <point x="726" y="537" type="curve"/>
      <point x="724" y="476"/>
      <point x="760" y="390"/>
      <point x="803" y="353" type="curve"/>
    </contour>
  </outline>
</glyph>
<glyph name="a164" format="1">
  <advance width="458"/>
  <outline>
    <contour>
      <point x="238" y="640" type="line"/>
      <point x="304" y="586"/>
      <point x="363" y="561"/>
      <point x="422" y="563" type="curve"/>
      <point x="337" y="621"/>
      <point x="252" y="733"/>
      <point x="228" y="819" type="curve"/>
      <point x="204" y="733"/>
      <point x="128" y="633"/>
      <point x="35" y="563" type="curve"/>
      <point x="96" y="561"/>
      <point x="179" y="596"/>
      <point x="219" y="640" type="curve"/>
      <point x="219" y="51" type="line"/>
      <point x="150" y="107"/>
      <point x="93" y="131"/>
      <point x="35" y="128" type="curve"/>
      <point x="121" y="68"/>
      <point x="205" y="-42"/>
      <point x="228" y="-128" type="curve"/>
      <point x="252" y="-42"/>
      <point x="331" y="61"/>
      <point x="422" y="128" type="curve"/>
      <point x="361" y="130"/>
      <point x="276" y="95"/>
      <point x="238" y="51" type="curve"/>
    </contour>
  </outline>
</glyph>
<glyph name="a165" format="1">
  <advance width="924"/>
  <outline>
    <contour>
      <point x="35" y="440" type="line"/>
      <point x="35" y="252" type="line"/>
      <point x="577" y="318" type="line"/>
      <point x="497" y="140" type="line"/>
      <point x="890" y="346" type="line"/>
      <point x="497" y="551" type="line"/>
      <point x="577" y="373" type="line"/>
    </contour>
  </outline>
</glyph>
<glyph name="a166" format="1">
  <advance width="918"/>
  <outline>
    <contour>
      <point x="35" y="368" type="line"/>
      <point x="35" y="323" type="line"/>
      <point x="398" y="338" type="line"/>
      <point x="361" y="290"/>
      <point x="319" y="222"/>
      <point x="293" y="167" type="curve"/>
      <point x="445" y="232"/>
      <point x="502" y="254"/>
      <point x="576" y="277" type="curve" smooth="yes"/>
      <point x="694" y="312"/>
      <point x="827" y="341"/>
      <point x="884" y="345" type="curve"/>
      <point x="649" y="384"/>
      <point x="549" y="415"/>
      <point x="293" y="526" type="curve"/>
      <point x="293" y="522" type="line"/>
      <point x="320" y="467"/>
      <point x="361" y="402"/>
      <point x="398" y="354" type="curve"/>
    </contour>
  </outline>
</glyph>
<glyph name="a167" format="1">
  <advance width="927"/>
  <outline>
    <contour>
      <point x="582" y="260" type="line"/>
      <point x="529" y="207" type="line" smooth="yes"/>
      <point x="494" y="172"/>
      <point x="481" y="149"/>
      <point x="481" y="121" type="curve" smooth="yes"/>
      <point x="481" y="70"/>
      <point x="524" y="28"/>
      <point x="574" y="28" type="curve" smooth="yes"/>
      <point x="607" y="28"/>
      <point x="627" y="40"/>
      <point x="664" y="84" type="curve" smooth="yes"/>
      <point x="892" y="350" type="line"/>
      <point x="664" y="610" type="line" smooth="yes"/>
      <point x="627" y="652"/>
      <point x="608" y="664"/>
      <point x="577" y="664" type="curve" smooth="yes"/>
      <point x="527" y="664"/>
      <point x="485" y="622"/>
      <point x="485" y="573" type="curve" smooth="yes"/>
      <point x="485" y="547"/>
      <point x="500" y="520"/>
      <point x="532" y="489" type="curve" smooth="yes"/>
      <point x="582" y="439" type="line"/>
      <point x="159" y="439" type="line" smooth="yes"/>
      <point x="113" y="439"/>
      <point x="103" y="438"/>
      <point x="82" y="427" type="curve"/>
      <point x="55" y="415"/>
      <point x="35" y="382"/>
      <point x="35" y="350" type="curve" smooth="yes"/>
      <point x="35" y="317"/>
      <point x="55" y="285"/>
      <point x="82" y="272" type="curve" smooth="yes"/>
      <point x="103" y="262"/>
      <point x="114" y="260"/>
      <point x="159" y="260" type="curve" smooth="yes"/>
    </contour>
  </outline>
</glyph>
<glyph name="a168" format="1">
  <advance width="928"/>
  <outline>
    <contour>
      <point x="35" y="362" type="line"/>
      <point x="35" y="329" type="line"/>
      <point x="672" y="329" type="line"/>
      <point x="672" y="129" type="line"/>
      <point x="891" y="345" type="line"/>
      <point x="672" y="562" type="line"/>
      <point x="672" y="362" type="line"/>
    </contour>
  </outline>
</glyph>
<glyph name="a169" format="1">
  <advance width="928"/>
  <outline>
    <contour>
      <point x="35" y="400" type="line"/>
      <point x="35" y="288" type="line"/>
      <point x="674" y="288" type="line"/>
      <point x="674" y="129" type="line"/>
      <point x="893" y="344" type="line"/>
      <point x="674" y="561" type="line"/>
      <point x="674" y="400" type="line"/>
    </contour>
  </outline>
</glyph>
<glyph name="a17" format="1">
  <advance width="945"/>
  <outline>
    <contour>
      <point x="167" y="495" type="line" smooth="yes"/>
      <point x="90" y="495"/>
      <point x="35" y="431"/>
      <point x="35" y="341" type="curve" smooth="yes"/>
      <point x="35" y="283"/>
      <point x="61" y="233"/>
      <point x="105" y="207" type="curve" smooth="yes"/>
      <point x="122" y="196"/>
      <point x="133" y="194"/>
      <point x="160" y="194" type="curve" smooth="yes"/>
      <point x="319" y="194" type="line"/>
      <point x="331" y="237"/>
      <point x="356" y="260"/>
      <point x="389" y="260" type="curve" smooth="yes"/>
      <point x="412" y="260"/>
      <point x="431" y="246"/>
      <point x="452" y="212" type="curve" smooth="yes"/>
      <point x="491" y="151"/>
      <point x="505" y="139"/>
      <point x="542" y="139" type="curve" smooth="yes"/>
      <point x="587" y="139"/>
      <point x="648" y="166"/>
      <point x="758" y="233" type="curve" smooth="yes"/>
      <point x="827" y="275"/>
      <point x="868" y="305"/>
      <point x="909" y="343" type="curve"/>
      <point x="836" y="404"/>
      <point x="824" y="414"/>
      <point x="782" y="440" type="curve" smooth="yes"/>
      <point x="651" y="522"/>
      <point x="590" y="550"/>
      <point x="545" y="550" type="curve" smooth="yes"/>
      <point x="508" y="550"/>
      <point x="485" y="533"/>
      <point x="463" y="489" type="curve" smooth="yes"/>
      <point x="439" y="443"/>
      <point x="414" y="420"/>
      <point x="386" y="420" type="curve" smooth="yes"/>
      <point x="355" y="420"/>
      <point x="332" y="446"/>
      <point x="319" y="495" type="curve"/>
    </contour>
    <contour>
      <point x="736" y="355" type="line"/>
      <point x="641" y="355" type="line"/>
      <point x="628" y="402"/>
      <point x="608" y="425"/>
      <point x="577" y="425" type="curve" smooth="yes"/>
      <point x="539" y="425"/>
      <point x="508" y="387"/>
      <point x="508" y="340" type="curve" smooth="yes"/>
      <point x="508" y="295"/>
      <point x="538" y="258"/>
      <point x="574" y="258" type="curve" smooth="yes"/>
      <point x="606" y="258"/>
      <point x="628" y="282"/>
      <point x="641" y="331" type="curve"/>
      <point x="736" y="331" type="line"/>
      <point x="736" y="259" type="line"/>
      <point x="684" y="219"/>
      <point x="583" y="171"/>
      <point x="551" y="171" type="curve" smooth="yes"/>
      <point x="524" y="171"/>
      <point x="505" y="185"/>
      <point x="483" y="220" type="curve" smooth="yes"/>
      <point x="449" y="275"/>
      <point x="428" y="292"/>
      <point x="390" y="292" type="curve" smooth="yes"/>
      <point x="348" y="292"/>
      <point x="312" y="267"/>
      <point x="298" y="227" type="curve"/>
      <point x="159" y="227" type="line" smooth="yes"/>
      <point x="112" y="227"/>
      <point x="68" y="283"/>
      <point x="68" y="343" type="curve" smooth="yes"/>
      <point x="68" y="409"/>
      <point x="112" y="462"/>
      <point x="167" y="462" type="curve" smooth="yes"/>
      <point x="298" y="462" type="line"/>
      <point x="317" y="413"/>
      <point x="348" y="388"/>
      <point x="388" y="388" type="curve" smooth="yes"/>
      <point x="425" y="388"/>
      <point x="449" y="407"/>
      <point x="481" y="461" type="curve" smooth="yes"/>
      <point x="507" y="505"/>
      <point x="523" y="518"/>
      <point x="554" y="518" type="curve" smooth="yes"/>
      <point x="576" y="518"/>
      <point x="592" y="512"/>
      <point x="640" y="486" type="curve" smooth="yes"/>
      <point x="689" y="461"/>
      <point x="712" y="447"/>
      <point x="736" y="430" type="curve"/>
    </contour>
  </outline>
</glyph>
<glyph name="a170" format="1">
  <advance width="834"/>
  <outline>
    <contour>
      <point x="310" y="434" type="line"/>
      <point x="310" y="257" type="line"/>
      <point x="571" y="257" type="line"/>
      <point x="571" y="154" type="line"/>
      <point x="799" y="345" type="line"/>
      <point x="571" y="537" type="line"/>
      <point x="571" y="434" type="line"/>
    </contour>
    <contour>
      <point x="208" y="434" type="line"/>
      <point x="208" y="257" type="line"/>
      <point x="284" y="257" type="line"/>
      <point x="284" y="434" type="line"/>
    </contour>
    <contour>
      <point x="125" y="434" type="line"/>
      <point x="125" y="257" type="line"/>
      <point x="170" y="257" type="line"/>
      <point x="170" y="434" type="line"/>
    </contour>
    <contour>
      <point x="35" y="434" type="line"/>
      <point x="35" y="257" type="line"/>
      <point x="59" y="257" type="line"/>
      <point x="59" y="434" type="line"/>
    </contour>
  </outline>
</glyph>
